<svg id="logo" xmlns="http://www.w3.org/2000/svg" width="336.879" height="67.063" viewBox="0 0 336.879 67.063">
  <path id="Path_587" data-name="Path 587" d="M22.547-51.309a2.477,2.477,0,0,1,.542-1.409,1.5,1.5,0,0,1,1.192-.759,1.731,1.731,0,0,1,1.734.9,8.735,8.735,0,0,1,.65,2.565,8.655,8.655,0,0,0,.325,1.662.681.681,0,0,0,.687.506,5.157,5.157,0,0,0,1.3-.253,5.232,5.232,0,0,1,1.373-.253,2.35,2.35,0,0,1,1.192.361,1.071,1.071,0,0,1,.614.939,1.744,1.744,0,0,1-.614,1.192,11.283,11.283,0,0,1-1.7,1.337,11.26,11.26,0,0,0-1.554,1.156,1.423,1.423,0,0,0-.542,1.012,14.472,14.472,0,0,1-1.012,6l-.65,1.3a3.9,3.9,0,0,0-.506,1.59v.145a9.628,9.628,0,0,0,1.59.289,7.979,7.979,0,0,1,2.529.542,1.6,1.6,0,0,1,.867,1.626,1.62,1.62,0,0,1-.723,1.337,13.171,13.171,0,0,1-2.312,1.265,15.274,15.274,0,0,0-3.794,2.24,4.246,4.246,0,0,0-1.337,3.4q0,.65.578.65a.761.761,0,0,0,.65-.289q2.746-1.734,3.613-1.734a1.217,1.217,0,0,1,.939.542,1.7,1.7,0,0,1,.434,1.048,2.423,2.423,0,0,1-.831,1.7,17.283,17.283,0,0,1-2.276,1.843,10.878,10.878,0,0,0-1.59,1.229l-.072.289a2.535,2.535,0,0,0,.289.723,2.566,2.566,0,0,1,.289,1.156,6.877,6.877,0,0,1-.434,1.879,4.235,4.235,0,0,0-.506,1.879,3.433,3.433,0,0,0,.289,1.337,1.579,1.579,0,0,0,.795.9,14.062,14.062,0,0,1,3.541.4A1.742,1.742,0,0,1,29.629-7.3q0,2.674-2.6,2.674-.578,0-1.373-.072a6.5,6.5,0,0,0-1.373,0q-.072,1.373-.072,4.047,0,.289.036,3.144a18.056,18.056,0,0,1-.65,5.239q-.687,2.385-2.06,2.385-1.662,0-2.2-2.927a39.193,39.193,0,0,1-.65-5.275q-.108-2.349-.108-2.854a2.669,2.669,0,0,0-.108-.687q-.108-.4-.325-.4-.145,0-.723.723t-.723.939q-1.662,2.1-2.818,3.324a3.145,3.145,0,0,1-2.1,1.229q-.361,0-.976-.614T10.189,2.6A20.628,20.628,0,0,1,12.141-.723q2.674-4.336,4.3-7.19A10.138,10.138,0,0,0,18.066-12a.648.648,0,0,0-.108-.325q-.108-.181-.181-.181a10.12,10.12,0,0,0-2.891,1.445q-2.674,1.518-4.7,2.421a9.555,9.555,0,0,1-3.9.9,1.083,1.083,0,0,1-.976-.506,2.091,2.091,0,0,1-.325-1.156,1.4,1.4,0,0,1,.289-1.048A5.891,5.891,0,0,1,6.5-11.129a44.452,44.452,0,0,0,5.817-3.4,35.079,35.079,0,0,0,5.239-3.83,9.085,9.085,0,0,0,1.156-2.891,8.432,8.432,0,0,1,.795-2.385,2.987,2.987,0,0,0,.361-.939l-.145-.217-2.023.867q-3.541,1.445-5.492,2.168a9.574,9.574,0,0,1-3.107.723,1.147,1.147,0,0,1-.939-.289A1.92,1.92,0,0,1,7.949-22.4,2.791,2.791,0,0,1,9.286-24.39,47.843,47.843,0,0,1,13.3-27.1q2.385-1.445,2.457-1.807a9.138,9.138,0,0,0-1.373-1.662,4.748,4.748,0,0,1-1.012-1.373,6.079,6.079,0,0,1-.289-2.24,3.331,3.331,0,0,1,.289-1.156,3.314,3.314,0,0,0,.289-1.012l-.072-.289q-.289,0-1.373.036a2.74,2.74,0,0,1-1.7-.4A1.645,1.645,0,0,1,9.9-38.445q0-1.084,1.734-2.06a37.059,37.059,0,0,1,5.059-2.2,42.926,42.926,0,0,0,4.878-2.168q1.554-.867,1.554-1.807A12.435,12.435,0,0,0,22.836-49,14.612,14.612,0,0,1,22.547-51.309Zm14.02,19.439q0-.867,2.2-3.144a61.634,61.634,0,0,1,4.95-4.553,20.813,20.813,0,0,1,3.758-2.71,6.993,6.993,0,0,1,2.891-.65q2.818,0,2.818,1.229a.653.653,0,0,1-.361.578q-.361.217-1.915.976A14.115,14.115,0,0,0,48.057-38.3l-1.3,1.084a44.062,44.062,0,0,0-4.444,3.938,5.052,5.052,0,0,0-1.7,3.36,19.227,19.227,0,0,0,.253,2.818q.253,1.662.759,1.807l2.168-1.59a100.055,100.055,0,0,1,8.491-5.781,13.409,13.409,0,0,1,6.757-2.168q2.168,0,2.168,1.518a2.139,2.139,0,0,1-1.048,1.59,25.339,25.339,0,0,1-2.854,1.807,11.887,11.887,0,0,0-2.24,1.518l-.072,1.012q0,2.818.217,5.564.145,3.758.145,5.637v7.154q0,4.553-.072,6.793a40.062,40.062,0,0,1-.831,5.854,35.258,35.258,0,0,1-2.06,6.9q-1.3,3.071-2.963,3.071-2.023,0-2.023-3.18a30.307,30.307,0,0,1,.939-6.5q.723-3.686.795-4.7.145-1.518.434-3.035a51.978,51.978,0,0,0,.795-8.455l.217-3.541.217-2.529q.072-.723.217-2.746t.145-3.613q0-1.445-.217-1.445a42.215,42.215,0,0,0-4.842,3,53.953,53.953,0,0,0-4.842,3.36,3.429,3.429,0,0,0-.506,1.481q-.145.976-.217,1.626t-.072.867a15.97,15.97,0,0,1-.795,4.372,2.358,2.358,0,0,1-2.457,1.481q-1.156,0-1.626-1.481a9.868,9.868,0,0,1-.47-3,26.593,26.593,0,0,1,.289-3.9q.289-1.951.65-3.722t.506-2.493q.145-.65.542-2.2a11.588,11.588,0,0,0,.4-2.854,2.18,2.18,0,0,0-.47-1.12A2.18,2.18,0,0,1,36.566-31.869ZM23.775-40.613A3.055,3.055,0,0,0,22.258-40q-.939.614-2.312,1.7l-1.156.867a2.669,2.669,0,0,0-1.518,2.24,2.763,2.763,0,0,0,1.012,1.662,2.763,2.763,0,0,0,1.662,1.012q.434,0,2.24-3.469a18.98,18.98,0,0,0,1.879-4.264Zm53.982,6.576a2.349,2.349,0,0,1-1.771-.976,2.986,2.986,0,0,1-.831-1.915q0-1.229,2.963-3.288a42.2,42.2,0,0,1,6.612-3.722,15.437,15.437,0,0,1,4.95-1.662,3.706,3.706,0,0,1,2.385.65,2.749,2.749,0,0,1,.795,2.24,2.335,2.335,0,0,1-.108.795,1.966,1.966,0,0,1-.47.65,19.017,19.017,0,0,1-3.866,2.493Q85.2-37,81.913-35.519A15.139,15.139,0,0,1,77.758-34.037ZM87.152,5.709a29.314,29.314,0,0,1-6.685-1.156,34.4,34.4,0,0,1-7.877-3.035Q69.158-.361,69.158-2.6a2.21,2.21,0,0,1,.723-1.59,2.21,2.21,0,0,1,1.59-.723,9.746,9.746,0,0,1,3.144.614q1.771.614,4.589,1.771,2.24.939,3.722,1.445a7.877,7.877,0,0,0,2.421.506.625.625,0,0,0,.506-.289q.361-.578.361-13.8a7.253,7.253,0,0,0-.145-1.337q-.145-.759-.217-1.048-2.1,0-3.107.072l-3.18.072q-7.877,0-7.877-2.312,0-1.156,2.1-1.7t6.432-1.192q4.7-.506,5.348-1.156A2.686,2.686,0,0,0,86-25a4.78,4.78,0,0,0-.361-2.132q-.361-.687-1.662-.687l-2.746.072q-1.879.145-2.746.145-4.264,0-4.264-1.951,0-.723,1.915-1.3t5.239-1.3q.723-.145,1.771-.4a8.035,8.035,0,0,0,1.337-.4,2.926,2.926,0,0,0,1.3-1.951,5.034,5.034,0,0,1,.723-1.373,1.423,1.423,0,0,1,1.156-.434,1.2,1.2,0,0,1,.831.289,3.636,3.636,0,0,1,.687.939,2.919,2.919,0,0,0,1.012,1.3,7.53,7.53,0,0,0,2.818.506,11.971,11.971,0,0,1,3.324.47,1.675,1.675,0,0,1,1.156,1.771,2.022,2.022,0,0,1-1.048,2.023,9.39,9.39,0,0,1-2.927.723,9.547,9.547,0,0,0-2.276.542,1.189,1.189,0,0,0-.759,1.192,5.921,5.921,0,0,0,.4,2.6q.4.723,2.06.723l2.891-.072q5.564,0,5.564,2.023a1.45,1.45,0,0,1-.4,1.012,1.2,1.2,0,0,1-.9.434,24.684,24.684,0,0,1-2.457.723q-3.107.939-4.733,1.59T91.271-16.4A129.923,129.923,0,0,0,92.139-.578,7.953,7.953,0,0,1,92.211.65,4.938,4.938,0,0,1,90.8,4.3,4.938,4.938,0,0,1,87.152,5.709Zm60.414-40.324q.145-.506.361-1.771a8.664,8.664,0,0,1,.614-2.132,1.236,1.236,0,0,1,1.12-.867,1.121,1.121,0,0,1,.795.217,7.044,7.044,0,0,1,.181,1.373,3.772,3.772,0,0,0,.253,1.3l.072-.072q.506-.145,1.445-.4a6.3,6.3,0,0,1,1.59-.253q1.807,0,1.807,1.373a2.307,2.307,0,0,1-.687,1.7,14.938,14.938,0,0,1-2.06,1.626,12.64,12.64,0,0,0-1.373.939,1.094,1.094,0,0,0-.434.867,8.133,8.133,0,0,0,.65,2.891,5.228,5.228,0,0,0,.217.759,4.675,4.675,0,0,1,.217.831,57.08,57.08,0,0,1,1.12,8.419q.253,4.3.253,10.226a14.7,14.7,0,0,1-1.192,5.781,3.978,3.978,0,0,1-3.794,2.818,3.009,3.009,0,0,1-2.132-1.084,3.165,3.165,0,0,1-1.048-2.168,1.4,1.4,0,0,1,.289-.723q.217-.072,1.734-.361a2.007,2.007,0,0,0,.9-.325,1.429,1.429,0,0,0,.181-.9l-.072-2.6q0-10.84-.434-11.2a7.677,7.677,0,0,0-2.891-.65,16.7,16.7,0,0,1-3.938-.831,1.938,1.938,0,0,1-1.409-1.915.764.764,0,0,1,.361-.759,2.3,2.3,0,0,1,1.012-.181q.434,0,1.445.072t2.6.072q2.457,0,2.6-.361a2.565,2.565,0,0,0,.145-.939v-.723q0-4.77-1.229-4.77a2.461,2.461,0,0,0-1.084.434,4.581,4.581,0,0,1-1.843.361q-1.337.072-2.276.072a15.066,15.066,0,0,1-3.144-.253,1.441,1.441,0,0,1-1.12-1.626,2.307,2.307,0,0,1,.47-1.373,1.418,1.418,0,0,1,1.192-.65,1.908,1.908,0,0,1,.65.181,1.907,1.907,0,0,0,.65.181,12.8,12.8,0,0,0,3.866-.867A9.338,9.338,0,0,0,147.566-34.615Zm-36.277,4.986q0-1.229,1.626-1.843a25.972,25.972,0,0,1,4.661-1.12q1.879-.289,2.927-.542a2.636,2.636,0,0,0,1.409-.687,7.655,7.655,0,0,0,.65-1.734,9.934,9.934,0,0,1,.578-1.843.926.926,0,0,1,.867-.614q.939,0,.939,1.3l-.072,1.373q0,.578.4.723a3.7,3.7,0,0,0,1.192.145,3.564,3.564,0,0,1,1.481.253,1.106,1.106,0,0,1,.542,1.12,1.406,1.406,0,0,1-.542,1.156,7.29,7.29,0,0,1-1.481.867,4.63,4.63,0,0,0-.9.506.775.775,0,0,0-.4.578,12.646,12.646,0,0,0,.289,2.6q.289,1.373.361,1.734.217.795.506,2.385a1.54,1.54,0,0,0,.795.145,11.77,11.77,0,0,0,1.3-.072,11.77,11.77,0,0,1,1.3-.072,3.267,3.267,0,0,1,1.771.4,1.549,1.549,0,0,1,.614,1.409,2.081,2.081,0,0,1-1.048,2.132,8.336,8.336,0,0,1-3,.542l-1.518.145-.072,2.385a75.533,75.533,0,0,1-.795,11.021q-.723,4.444-3.252,4.444-1.229,0-1.59-2.6a38.3,38.3,0,0,1-.361-5.275v-3.4q0-4.842-.289-5.131a2.707,2.707,0,0,0-.795.9,4.791,4.791,0,0,1-.506.759,9.481,9.481,0,0,1-1.084,1.481,1.544,1.544,0,0,1-1.156.542,1.592,1.592,0,0,1-1.156-.506,1.592,1.592,0,0,1-.506-1.156,9.554,9.554,0,0,1,1.265-4.191q1.265-2.457,3.36-5.781.217-.361.939-1.59a5.047,5.047,0,0,0,.723-1.518.777.777,0,0,0-.145-.434.486.486,0,0,0-.434-.217,1.6,1.6,0,0,0-.506.072,2.8,2.8,0,0,0-.361.145,23.289,23.289,0,0,1-6.215.65,3.67,3.67,0,0,1-1.7-.325A1.3,1.3,0,0,1,111.289-29.629Z" transform="translate(150.883 53.477)" fill="#2f454f"/>
  <path id="Path_586" data-name="Path 586" d="M8.7,0A6.691,6.691,0,0,1,4.758-1.148,3.845,3.845,0,0,1,3.117-4.512,3.684,3.684,0,0,1,4.143-7.1,3.281,3.281,0,0,1,6.645-8.2a7.139,7.139,0,0,1,1.887.246q.328.082.779.164a6.321,6.321,0,0,0,1.107.082A7.271,7.271,0,0,0,15.135-9.6a5.561,5.561,0,0,0,2.256-4.348,8.489,8.489,0,0,0-1.477-4.881,36.535,36.535,0,0,0-4.348-5.045,36.065,36.065,0,0,1-4.02-4.594A7.292,7.292,0,0,1,6.234-32.73a10.008,10.008,0,0,1,1.8-5.537,14.632,14.632,0,0,1,4.594-4.471,10.54,10.54,0,0,1,5.578-1.723,6.183,6.183,0,0,1,4.307,1.518A5.3,5.3,0,0,1,24.2-38.8a2.68,2.68,0,0,1-1.066,2.174,3.693,3.693,0,0,1-2.379.861,3.358,3.358,0,0,1-1.518-.533,3.358,3.358,0,0,0-1.518-.533,3.881,3.881,0,0,0-2.5,1.518,4.212,4.212,0,0,0-1.436,2.584,4.765,4.765,0,0,0,.943,2.748,36.054,36.054,0,0,0,2.994,3.568A37.772,37.772,0,0,1,22.107-21a10,10,0,0,1,1.518,5.5,14.675,14.675,0,0,1-1.641,7.219,17.96,17.96,0,0,1-5.865,5.66A13.98,13.98,0,0,1,8.7,0ZM56.684-5.5q0,3.2-3.609,4.307A26.445,26.445,0,0,1,45.281-.082a17.481,17.481,0,0,1-6.357-1.189,11.9,11.9,0,0,1-5.045-3.609,8.876,8.876,0,0,1-1.969-5.783,14.677,14.677,0,0,1,1.8-6.07,24.139,24.139,0,0,1,4.471-6.4q2.666-2.707,5.127-2.707a6.309,6.309,0,0,1,3.568,1.477q2.01,1.477,2.01,2.953,0,1.8-1.148,1.8a3.8,3.8,0,0,1-1.189-.287,3.878,3.878,0,0,0-1.271-.287q-1.148,0-2.5,1.887a19.221,19.221,0,0,0-2.3,4.348,11.57,11.57,0,0,0-.943,3.609q0,1.641,2.256,2.256a16.934,16.934,0,0,0,4.471.615,5.68,5.68,0,0,0,1.723-.287q.9-.287,1.723-.615a9.426,9.426,0,0,1,3.445-.9A3.273,3.273,0,0,1,55.74-8.2,3.935,3.935,0,0,1,56.684-5.5ZM69.563,0a3.731,3.731,0,0,1-2.748-1.107,3.731,3.731,0,0,1-1.107-2.748,61.749,61.749,0,0,0-1.312-13.863,15.6,15.6,0,0,0-.9-2.707q-.164-.41-.615-1.764a7.294,7.294,0,0,1-.451-2.174,3.979,3.979,0,0,1,1.148-2.789,3.5,3.5,0,0,1,2.625-1.23,2.01,2.01,0,0,1,1.723.943,11.21,11.21,0,0,1,1.23,2.5,6.116,6.116,0,0,0,.574,1.271q.328.533.656.533a6.21,6.21,0,0,0,1.887-1.148,36.456,36.456,0,0,1,3.158-2.092,5.319,5.319,0,0,1,2.666-.779,4.5,4.5,0,0,1,2.584.7A2.444,2.444,0,0,1,81.7-24.281a3.39,3.39,0,0,1-.9,2.625,10.2,10.2,0,0,1-2.871,1.641,10.461,10.461,0,0,0-3.9,2.42Q72.68-16.16,72.68-12.8a23.442,23.442,0,0,0,.492,3.855q.41,3.035.41,3.855a5.916,5.916,0,0,1-1.148,3.445A3.406,3.406,0,0,1,69.563,0Zm38.883-.082a3.81,3.81,0,0,1-2.461-.943,26.694,26.694,0,0,1-2.707-2.666q-.328-.328-.984-1.025a2.417,2.417,0,0,0-1.066-.779,17.57,17.57,0,0,0-2.051,2.051A14.39,14.39,0,0,1,96.8-1.107a4.328,4.328,0,0,1-2.625.779,7.444,7.444,0,0,1-4.02-1.312,5.49,5.49,0,0,1-2.543-3.117,11.516,11.516,0,0,1-.246-2.789l.082-9.926q0-5.66,2.215-5.66a1.643,1.643,0,0,1,1.6.7,3.739,3.739,0,0,1,.41,1.6q.041.9.041,1.313l.9,9.68a16.715,16.715,0,0,0,.328,1.682.719.719,0,0,0,.738.615q1.641,0,2.953-4.143a70.31,70.31,0,0,0,2.051-8q.082-.41.246-1.477a4.956,4.956,0,0,1,.574-1.764,2.867,2.867,0,0,1,1.23-1.107,2.351,2.351,0,0,1,1.066-.246,3.271,3.271,0,0,1,2.461,1.148,3.656,3.656,0,0,1,1.066,2.543,21.869,21.869,0,0,1-.082,2.215l-.082,2.215a10.831,10.831,0,0,0,.41,3.2,30.37,30.37,0,0,0,2.707,5.086q1.477,2.379,2.133,3.568a4.313,4.313,0,0,1,.656,1.928,2.02,2.02,0,0,1-.82,1.641A2.824,2.824,0,0,1,108.445-.082Zm27.809.82q-2.707,0-2.707-4.594a66.146,66.146,0,0,1,.492-6.727,66.146,66.146,0,0,0,.492-6.727q0-.656-.328-.656-.738,0-1.395,2.174t-.738,2.338a19.56,19.56,0,0,0-.492,2.789,21.631,21.631,0,0,1-1.23,5.455,2.852,2.852,0,0,1-2.789,2.01,1.886,1.886,0,0,1-1.723-.943,4.1,4.1,0,0,1-.574-2.174,31.911,31.911,0,0,1,.82-5.906,29.589,29.589,0,0,0,.82-5.824,5.13,5.13,0,0,0-.164-1.107q-.164-.7-.492-.7-1.066,0-2.3,3.158a55.368,55.368,0,0,0-2.174,7.055q-.943,3.9-1.189,5.537Q120.094-.82,117.879-.82a1.745,1.745,0,0,1-1.764-1.354,9.153,9.153,0,0,1-.451-2.912q0-2.953.738-11.32t1.313-9.6a2.4,2.4,0,0,1,.615-.943,1.663,1.663,0,0,1,.943-.205,1.776,1.776,0,0,1,1.723.943,8.265,8.265,0,0,1,.738,2.5q.246,1.559.656,1.559.246,0,.82-.656a4.9,4.9,0,0,1,1.436-1.107,5.3,5.3,0,0,1,2.42-.451,4.126,4.126,0,0,1,2.133.451,6.491,6.491,0,0,1,1.354,1.107q.615.656.861.656a11.53,11.53,0,0,0,1.477-1.395,9.66,9.66,0,0,1,1.518-1.395,2.985,2.985,0,0,1,1.764-.492,3.247,3.247,0,0,1,3.445,2.5,22.2,22.2,0,0,1,.738,6.193,81.742,81.742,0,0,1-.861,11.361Q138.633.738,136.254.738Z" transform="translate(-3.117 57.477)" fill="#2f454f"/>
  <g id="Group_50" data-name="Group 50" transform="translate(311.747 36.091)">
    <path id="Path_8" data-name="Path 8" d="M397.4,59.566c3.988-1.769,5.1,2.389,7.819,4.265a17.707,17.707,0,0,1,1.986,1.361c2.36,2.151.09,4.7-2.084,5.671a17.717,17.717,0,0,1-9.566,1.389,8.028,8.028,0,0,1-3.439-1.147,3.649,3.649,0,0,1-1.753-3.663c.35-1.343,1.7-1.879,2.5-2.886,1.339-1.679,2.06-3.7,4.066-4.761q.243-.128.472-.23" transform="translate(-386.274 -52.706)" fill="#2f454f"/>
    <path id="Path_9" data-name="Path 9" d="M386.938,58.347a2.153,2.153,0,0,1,2.042.977,3.017,3.017,0,0,1,.358,2.3,5.122,5.122,0,0,1-1.1,2.1,3.483,3.483,0,0,1-2.668,1.49,2.708,2.708,0,0,1-2.367-2.607,4.422,4.422,0,0,1,3.732-4.26" transform="translate(-383.202 -52.355)" fill="#2f454f"/>
    <path id="Path_10" data-name="Path 10" d="M396.9,47.9a1.99,1.99,0,0,1,1.392,1.564,2.786,2.786,0,0,1-.517,2.089,4.738,4.738,0,0,1-1.685,1.4,3.222,3.222,0,0,1-2.809.318,2.506,2.506,0,0,1-1.088-3.071,4.091,4.091,0,0,1,4.706-2.3" transform="translate(-387.035 -47.783)" fill="#2f454f"/>
    <path id="Path_11" data-name="Path 11" d="M411.56,50a1.99,1.99,0,0,1-.183,2.086,2.788,2.788,0,0,1-1.875,1.058,4.753,4.753,0,0,1-2.174-.267,3.222,3.222,0,0,1-2.158-1.827,2.5,2.5,0,0,1,1.489-2.9A4.091,4.091,0,0,1,411.56,50" transform="translate(-392.686 -47.832)" fill="#2f454f"/>
    <path id="Path_12" data-name="Path 12" d="M422.267,59.89a2.083,2.083,0,0,1-.793,2.054,2.988,2.988,0,0,1-2.219.532,5.044,5.044,0,0,1-2.139-.891,3.371,3.371,0,0,1-1.67-2.461,2.646,2.646,0,0,1,2.361-2.5,4.322,4.322,0,0,1,4.461,3.267" transform="translate(-397.182 -51.604)" fill="#2f454f"/>
  </g>
</svg>
