<svg xmlns="http://www.w3.org/2000/svg" xmlns:xlink="http://www.w3.org/1999/xlink" width="170.891" height="52.467" viewBox="0 0 170.891 52.467">
  <defs>
    <clipPath id="clip-path">
      <rect id="Rectangle_123" data-name="Rectangle 123" width="44.522" height="52.467" fill="#de6e46"/>
    </clipPath>
  </defs>
  <g id="over" transform="translate(-1308 -925.422)">
    <path id="Path_1984" data-name="Path 1984" d="M18.75-15.352a1.238,1.238,0,0,1-.859-.43,1.238,1.238,0,0,1-.43-.859,9.406,9.406,0,0,1,1.172-2.891q.117-.234.469-.957a2.89,2.89,0,0,0,.352-1q0-.2-.234-.234a.747.747,0,0,1-.371-.156.677.677,0,0,1-.137-.508,1.629,1.629,0,0,1,.84-1.406,6.289,6.289,0,0,1,1.973-.82,8.629,8.629,0,0,1,1.992-.273,2.312,2.312,0,0,1,2.109.859,4.777,4.777,0,0,1,.547,2.539,7.377,7.377,0,0,1-.449,2.422,4.391,4.391,0,0,1-1.23,1.953,3.262,3.262,0,0,1-2.227.586q-.2,0-.508-.527t-.625-.527q-.234,0-.625.742a5.942,5.942,0,0,1-.82,1.094A1.279,1.279,0,0,1,18.75-15.352ZM29.531,1.172a1.353,1.353,0,0,1-.215.938,1.553,1.553,0,0,1-.957.2,4.465,4.465,0,0,1-.9-.117q-.547-.117-.82-.156A40.521,40.521,0,0,1,21.563.684q-2.5-.84-6.055-2.207-1.055-.43-1.895-.742t-1.426-.547q-.43-.156-2.148-1.055A15.69,15.69,0,0,0,6.6-5.43q-.547,0-.781.7A10.78,10.78,0,0,0,5.43-2.7,11.527,11.527,0,0,1,4.824-.059,1.321,1.321,0,0,1,3.516.859.782.782,0,0,1,2.773.293,2.989,2.989,0,0,1,2.539-.859,34.167,34.167,0,0,1,3.32-6.27a19.919,19.919,0,0,1,1.367-4.941q.508-.82,1.055-.82a.414.414,0,0,1,.469.469.848.848,0,0,1-.078.41q-.078.137-.117.215a5.24,5.24,0,0,0-.156,1.563q0,.469.9.938a3.359,3.359,0,0,0,1.406.469q.117,0,.2-.176a.87.87,0,0,0,.078-.215,22.23,22.23,0,0,0,.9-2.715,12.078,12.078,0,0,0,.547-2.6v-.234a1.907,1.907,0,0,0-.742-.234,3.274,3.274,0,0,1-1.074-.332.845.845,0,0,1-.371-.8.914.914,0,0,1,.176-.527,3.45,3.45,0,0,1,.215-.293q.039-.078.293-.469a1.682,1.682,0,0,0,.254-.937,2.663,2.663,0,0,0-.078-.605q-.078-.332-.273-.332a1.592,1.592,0,0,0-.547.117q-.313.117-.391.156a2.942,2.942,0,0,1-1.055.313.809.809,0,0,1-.488-.156.5.5,0,0,1-.215-.43.876.876,0,0,1,.391-.723,8.784,8.784,0,0,1,1.133-.684,7.082,7.082,0,0,0,1.309-.8,1.146,1.146,0,0,0,.449-.918,4.31,4.31,0,0,1,.43-1.8q.43-.937,1.172-.937a.578.578,0,0,1,.527.215,1.217,1.217,0,0,1,.137.645v.391a.762.762,0,0,0,.156.547,2.443,2.443,0,0,0,.527-.078,2.4,2.4,0,0,1,.488-.078,1.125,1.125,0,0,1,.684.215.67.67,0,0,1,.293.566.933.933,0,0,1-.234.625,4.493,4.493,0,0,1-.7.625,6.044,6.044,0,0,0-.723.625.889.889,0,0,0-.215.625q0,.43.215.547a1.719,1.719,0,0,0,.645.156,1.741,1.741,0,0,1,.762.2q.254.156.254.742a2.868,2.868,0,0,1-.7,1.6,2.555,2.555,0,0,0-.586,1.211,1.707,1.707,0,0,0,.039.371,1.707,1.707,0,0,1,.039.371,5.482,5.482,0,0,1-.078.742,5.538,5.538,0,0,0-.078.781q0,.273.117.273a2.8,2.8,0,0,0,.9-.391l.547-.273a1.663,1.663,0,0,1,.742-.2,1.12,1.12,0,0,1,.8.371,1.12,1.12,0,0,1,.371.8,1.93,1.93,0,0,1-.625,1.348A11.878,11.878,0,0,1,13.008-9.3a12.531,12.531,0,0,0-1.6,1.289,1.607,1.607,0,0,0-.547,1.133l.078.117q5.82,2.227,10.938,4.375.586.234,1.758.781Q26.016-.586,26.875-.273,27.109-.2,28.047.1A6.269,6.269,0,0,1,29.3.586a.5.5,0,0,1,.2.254A1.222,1.222,0,0,1,29.531,1.172ZM22.148-20.156q0,.391.117.391.273,0,.664-.781a3.009,3.009,0,0,0,.391-1.133.824.824,0,0,0-.137-.449.421.421,0,0,0-.371-.215q-.273,0-.469.859A6.466,6.466,0,0,0,22.148-20.156ZM29.1-7.617a1.088,1.088,0,0,1-.234.664.991.991,0,0,1-.664.293q-.469.059-.508.059a47.061,47.061,0,0,0-5.156.664q-.2.039-.781.2a8.624,8.624,0,0,1-1.6.273.872.872,0,0,1-.957-.664,4.326,4.326,0,0,1-.156-1.25q.02-.586.02-.7a26.93,26.93,0,0,1,.215-3.457q.215-1.66.918-1.66a4.983,4.983,0,0,0,1.133-.391,2.524,2.524,0,0,1,.742-.312,4.848,4.848,0,0,1,1.289-.2,2.5,2.5,0,0,1,1.816.664,2.389,2.389,0,0,1,.684,1.8,2.893,2.893,0,0,1-.137.84q-.137.449-.293.879a7.483,7.483,0,0,0-.391,1.172,1.753,1.753,0,0,0,.742.117,6.268,6.268,0,0,0,.645-.039,8.093,8.093,0,0,1,.84-.039Q29.1-8.711,29.1-7.617Zm-7.578-.43q.313,0,.742-.586a7.229,7.229,0,0,0,.762-1.328,3.11,3.11,0,0,0,.332-1.055.691.691,0,0,0-.781-.781,1.551,1.551,0,0,0-.84.156q-.215.156-.215.781,0,.469-.078,1.25-.078.859-.078,1.289ZM46.953-3.4q-1.406,0-1.406-2.656a24.128,24.128,0,0,1,.547-5.312q.117-.508.43-1.445.352-1.211.43-1.6a3.233,3.233,0,0,1,.332-.937,5.448,5.448,0,0,1,.684-.781q.547-.547.781-.547.312,0,.313.352a.967.967,0,0,1-.352.625,17.841,17.841,0,0,0,2.09-1.172q1.23-.781,1.23-1.172a10.183,10.183,0,0,0-.117-1.465,4.759,4.759,0,0,0-.312-1.23,2.2,2.2,0,0,1-.176-.352,1.122,1.122,0,0,1-.059-.391.968.968,0,0,1,.742-1.035,7.6,7.6,0,0,1,2.031-.215,11.721,11.721,0,0,0,1.211-.1q.352-.059.352-.332a5.035,5.035,0,0,0-.371-2.07,1.414,1.414,0,0,0-1.426-.82,6.538,6.538,0,0,0-1.094.117,3.153,3.153,0,0,0-.937.273,3.036,3.036,0,0,0-1.191,1.758,18.822,18.822,0,0,0-.527,3.164,15.72,15.72,0,0,1-.352,2.324q-.2.723-.781.723a.843.843,0,0,1-.9-.586,4.617,4.617,0,0,1-.2-1.445,30.454,30.454,0,0,1,.488-5.078q.488-2.852,1.7-2.852.43,0,.527.2a1.759,1.759,0,0,1,.137.586q.039.391.2.469a9.022,9.022,0,0,0,1.211-.586,4.218,4.218,0,0,1,.938-.508,3.244,3.244,0,0,1,1.094-.156,2.927,2.927,0,0,1,2.734,1.484,6.9,6.9,0,0,1,.859,3.516,12.324,12.324,0,0,1-.234,3.125,1.887,1.887,0,0,0-.156.508q0,.313,1.133.313l1.836-.039a4.261,4.261,0,0,1,1.25.117q1.6.547,2.07,2.949a32.528,32.528,0,0,1,.508,5.762v1.016l.039.9q0,.664.078,1.836l.1.684a4.992,4.992,0,0,1,.059.684q0,1.523-1.016,1.523a1.816,1.816,0,0,1-1.895-1.25,10.2,10.2,0,0,1-.449-3.359V-9.414A17.418,17.418,0,0,0,60.9-11.8q-.156-.937-.234-1.875,0-.2-.039-.664a1.971,1.971,0,0,0-.2-.762,2.521,2.521,0,0,0-.547-.645,44.371,44.371,0,0,0-6.816.664q-3.691.625-4.98,1.953a3.434,3.434,0,0,0-.254,1.563q-.059,1.367-.1,3.945A21.874,21.874,0,0,1,47.5-3.594a.588.588,0,0,1-.254.156A1.062,1.062,0,0,1,46.953-3.4Zm-4.219-6.875q-.43,0-1.133-.82a15.406,15.406,0,0,1-2.48-4.219,12.408,12.408,0,0,1-1.23-4.609,3.065,3.065,0,0,1,.352-1.523,1.237,1.237,0,0,1,1.172-.625,3.268,3.268,0,0,1,1.172.313q.742.313.742.664,0,.117-.312.156a1.48,1.48,0,0,0-.527.156q-.215.117-.215.508a2.8,2.8,0,0,0,.273,1.152q.273.605.352.762a6,6,0,0,1,.352.742l.078.078-.078-.117a20.355,20.355,0,0,1,1.719,3.2,9.238,9.238,0,0,1,1.016,3.125.927.927,0,0,1-.391.742A1.345,1.345,0,0,1,42.734-10.273Zm11.25-8.008q.352,0,.879-.625a1.8,1.8,0,0,0,.527-.977.969.969,0,0,0-.43-.82,1.56,1.56,0,0,0-.937-.312.606.606,0,0,0-.43.117,3.292,3.292,0,0,0-.078.547,10.221,10.221,0,0,0,.078,1.113,2.644,2.644,0,0,0,.2.879Zm-.9,15.82a1.511,1.511,0,0,1-1.055-.391,12.5,12.5,0,0,1-1.074-1.23,5.151,5.151,0,0,1-.879-1.27,9.367,9.367,0,0,1-.312-2.734,1.654,1.654,0,0,1,.1-.625.431.431,0,0,1,.449-.234,2.63,2.63,0,0,1,.43.039,2.63,2.63,0,0,0,.43.039,2.74,2.74,0,0,0,.391-.977q.078-.469.078-.547a3.133,3.133,0,0,1,.332-1.133,3.565,3.565,0,0,1,1.074-1.055,2.049,2.049,0,0,1,1.133-.391,2.052,2.052,0,0,1,2.051,1.426A8.669,8.669,0,0,1,56.8-8.32a4.573,4.573,0,0,1-.391,2.148,4.348,4.348,0,0,1-1.133,1.289,6.379,6.379,0,0,0-.723.684,2.977,2.977,0,0,0-.449.723Q53.711-2.461,53.086-2.461Zm.117-6.25q0,.664.273.781.234,0,.371-.8a7.894,7.894,0,0,0,.137-1.23q0-.312-.2-.391-.273,0-.43.605A4.251,4.251,0,0,0,53.2-8.711ZM61.914,1.953q-1.289,0-1.914-.039l-1.953-.039a11,11,0,0,0-1.523.156q-.234.039-.723.078t-.84.039q-3.281,0-5.586.2a21.741,21.741,0,0,0-4.492.859,25.571,25.571,0,0,1-7.422,1.172,8.183,8.183,0,0,1-2.09-.234,1.049,1.049,0,0,1-.879-1.094,1.26,1.26,0,0,1,.9-1.25,12.033,12.033,0,0,1,2.617-.586q1.25-.2,1.992-.391A2.182,2.182,0,0,0,41.094.234a17.8,17.8,0,0,0-.664-1.992q-.312-.859-.605-1.758a4.89,4.89,0,0,1-.293-1.406A3.374,3.374,0,0,1,40.137-6.5q.605-1,1.113-1a1.074,1.074,0,0,1,.449.1.314.314,0,0,1,.215.293A1.243,1.243,0,0,1,41.6-6.5a1.259,1.259,0,0,0-.312.723,2.445,2.445,0,0,0,.078.664,3.046,3.046,0,0,0,.273.625A20.408,20.408,0,0,1,43.4-.352a1.487,1.487,0,0,0,.156.391.847.847,0,0,0,.273.234.732.732,0,0,0,.391.078,45.649,45.649,0,0,0,4.922-.391q6.8-.937,10.2-1.133.664-.039,2.188-.2,1.367-.156,2.148-.2a30.07,30.07,0,0,0,4.375-.469,6.885,6.885,0,0,1,1.563-.156,2.185,2.185,0,0,1,1.484.508A1.717,1.717,0,0,1,71.68-.312a1.681,1.681,0,0,1-.449.957,3.348,3.348,0,0,1-.84.8,10.842,10.842,0,0,1-3.359.41Q64.258,1.953,61.914,1.953ZM90.43-22.461a1.022,1.022,0,0,1,.508-.8,1.63,1.63,0,0,1,.938-.371,1.661,1.661,0,0,1,1.5.762,3.367,3.367,0,0,1,.488,1.855,3.554,3.554,0,0,1-.41,1.543,4.243,4.243,0,0,0-.41,1q0,.234.313.234a3.438,3.438,0,0,0,1.211-.273q.7-.273,1.875-.82,1.094-.547,1.816-.82a3.593,3.593,0,0,1,1.23-.273.552.552,0,0,1,.625.625,1.293,1.293,0,0,1-.684,1.133,8.948,8.948,0,0,1-1.816.82,3.506,3.506,0,0,0-.9.391.035.035,0,0,0-.039.039,1.9,1.9,0,0,0,.313.371,1.406,1.406,0,0,1,.313,1,16.24,16.24,0,0,1-.352,2.949,8.25,8.25,0,0,1-.859,2.637,21.149,21.149,0,0,1-2.266,2.852q2.773-.234,6.953-.234,6.836,0,6.836,2.07,0,1.484-2.031,1.484H99.258q-2.07,0-4.062.117-.7.039-1.719.078t-2.383.039Q89.727-4.1,87.07-4.219A14.415,14.415,0,0,1,84.3-4.453a.851.851,0,0,1-.312-.664,1.108,1.108,0,0,1,.957-1.094A13.758,13.758,0,0,1,87.656-6.6a15.379,15.379,0,0,0,1.914-.254q.586-.137.586-.527a6.366,6.366,0,0,0-.078-.82,3.118,3.118,0,0,1-.117-.82,24.867,24.867,0,0,1,.234-2.812q.039-.312.117-1.191t.078-1.582q0-.469-.352-.469a3.13,3.13,0,0,0-1.055.2q-.547.2-.7.234a4.775,4.775,0,0,1-1.758.469,1.4,1.4,0,0,1-.723-.2.606.606,0,0,1-.332-.547q0-.352.762-.723a23.26,23.26,0,0,1,2.168-.879q1.328-.508,1.953-.781a2.547,2.547,0,0,0,.9-.586,2.835,2.835,0,0,0,.586-1.875A2.042,2.042,0,0,0,91.6-20.82a3.538,3.538,0,0,0-.664-.781,3.448,3.448,0,0,1-.352-.41A.753.753,0,0,1,90.43-22.461ZM78.984-20.273a.75.75,0,0,0,.605-.254,2.955,2.955,0,0,0,.41-.684,3.32,3.32,0,0,1,.371-.605.555.555,0,0,1,.449-.215q.391,0,.41.527a2.352,2.352,0,0,0,.156.84q.137.313.84.313a4.829,4.829,0,0,1,1.582.2q.527.2.527,1.055a.67.67,0,0,1-.43.684,4.507,4.507,0,0,1-1.211.254,5.786,5.786,0,0,0-1.133.254.546.546,0,0,0-.352.566q.039.508.176,1.445a4.684,4.684,0,0,0,.215,1.055.5.5,0,0,0,.41.2h.332a1.933,1.933,0,0,1,.977.176q.273.176.273.879a.968.968,0,0,1-.234.684,2.439,2.439,0,0,1-.7.488,3.052,3.052,0,0,0-.859.625,1.389,1.389,0,0,0-.273.938q0,2.187-.137,3.535a7.819,7.819,0,0,1-.762,2.637,5.952,5.952,0,0,1-.781,1.152,3.145,3.145,0,0,1-.937.879,2.184,2.184,0,0,1-.82.2,2.719,2.719,0,0,1-1.055-.2.7.7,0,0,1-.469-.7q0-.234.41-.371a3.252,3.252,0,0,0,.742-.352,1.864,1.864,0,0,0,.605-.84,6.85,6.85,0,0,0,.332-1.641,17.014,17.014,0,0,0,.137-1.875q0-.859-.469-.859a1.944,1.944,0,0,0-.9.313,1.647,1.647,0,0,1-.9.352,1.169,1.169,0,0,1-.8-.293.968.968,0,0,1-.332-.762,1.47,1.47,0,0,1,.41-1.055,6.348,6.348,0,0,1,1.23-.937A7.777,7.777,0,0,0,78.5-12.891a2.292,2.292,0,0,0,.566-1.484q0-.43.078-1.289a13.3,13.3,0,0,0,.117-1.719.877.877,0,0,0-.391-.82,3.81,3.81,0,0,0-1.172-.391,3.8,3.8,0,0,1-.977-.273.593.593,0,0,1-.312-.586.79.79,0,0,1,.527-.723,2.375,2.375,0,0,1,1.035-.254,2.4,2.4,0,0,1,.488.078A2.443,2.443,0,0,0,78.984-20.273ZM92.539-9.531q.313-.039.938-1.348a26.518,26.518,0,0,0,1.152-2.852,8.6,8.6,0,0,0,.527-1.973q0-.391-.2-.391a3.706,3.706,0,0,0-1.367.508,2.841,2.841,0,0,0-1.133.82,11.136,11.136,0,0,0-.117,2.266v1.875Q92.344-9.687,92.539-9.531Zm19.844-5.234q0-.547.078-1.719l.039-1.68v-2.344l-.039-1.523a7.065,7.065,0,0,1,.527-2.988,2.153,2.153,0,0,1,2.168-1.113,2.372,2.372,0,0,1,2.148.9,4.637,4.637,0,0,1,.586,2.539,8.855,8.855,0,0,1-.312,2.617l-.234.742q-2.07,6.992-2.578,7.383a.986.986,0,0,1-.664.234,1.327,1.327,0,0,1-1.426-.84A6.853,6.853,0,0,1,112.383-14.766Zm-.859,10.82a7.778,7.778,0,0,1,.313-2.441,1.415,1.415,0,0,1,1.523-.918,1.4,1.4,0,0,1,1.309.7,3.277,3.277,0,0,1,.41,1.68,5.161,5.161,0,0,1-.488,2.266,1.643,1.643,0,0,1-1.582,1.016,1.181,1.181,0,0,1-1.191-.625A4.009,4.009,0,0,1,111.523-3.945Z" transform="translate(1361 957.422)" fill="#de6e46"/>
    <g id="Group_166" data-name="Group 166" transform="translate(1308 925.422)">
      <g id="Group_165" data-name="Group 165" transform="translate(0 0)" clip-path="url(#clip-path)">
        <path id="Path_1480" data-name="Path 1480" d="M.618,2.531c.4-.136.836.159,1.262.478s.847.671,1.262.626c.87-.569.353-1.5.938-1.621.438-.364-.916-.586-.478-.955C4.116.682,3.934.364,4.246,0c.37.171.751.478,1.12.66A.873.873,0,0,0,6.447.6a4.6,4.6,0,0,0,2.5,1.28,23.482,23.482,0,0,0,2.315,2.65A19.76,19.76,0,0,1,13.6,7.285a5.679,5.679,0,0,0,1.621.99c1.814,2.519,4.5,4.987,6.4,8.2a5.429,5.429,0,0,0,1.513,1.541c.984,2.559,3.571,4.4,3.969,6.836,1.717,1.376,3.378,3.2,5.158,4.112a29.4,29.4,0,0,0,5.806,6.858c.517,1.314,1.513,2.667,1.353,3.924a11.234,11.234,0,0,1,1.035,1.928,10.647,10.647,0,0,0,2.371,4.862c-.08.8.842,1.672.682,2.462a13.956,13.956,0,0,1,1.007,2.2,1.689,1.689,0,0,1-2.144-1.029c-.574.279.034.665-.54.944.131-.6-.677-1.285-.756-1.905a24.211,24.211,0,0,1-4.123-4.447,30.345,30.345,0,0,1-5.545-5.556c-2.32-1.894-4.555-4.424-6.881-6.238A19.831,19.831,0,0,0,20.2,27.934c-.972-2.053-2.843-3.611-3.952-5.846a32.7,32.7,0,0,1-3.64-4.237,25.694,25.694,0,0,0-3.662-4.112A21.671,21.671,0,0,0,5.776,9.958,33.773,33.773,0,0,1,2.432,6.3,11.132,11.132,0,0,0,.163,5.329c-.591-.364.648-1,.245-1.388a9.725,9.725,0,0,1,.21-1.41" transform="translate(0.002 0.002)" fill="#de6e46" fill-rule="evenodd"/>
        <path id="Path_1481" data-name="Path 1481" d="M32.43,0c.478.694-.688,1.882-.341,2.622.808.66,1.518-.045,1.808.461.472.313.279-.972.756-.66.506.387.751.148,1.183.353-.1.739-.677,1.632.125,2.11a3.672,3.672,0,0,0-.33,2.519,17.109,17.109,0,0,0-1.57,2.775,18.415,18.415,0,0,1-1.6,2.895,4.97,4.97,0,0,0-.262,1.752c-1.553,2.411-2.8,5.681-5.061,8.405a4.884,4.884,0,0,0-.893,1.843,8.313,8.313,0,0,0-1.319,1.433c-.392.517-.756,1.063-1.115,1.592a12.83,12.83,0,0,1-1.137,1.49,4.7,4.7,0,0,1-1.4,1.069c-.364.978-.819,1.979-1.251,2.957a12.54,12.54,0,0,0-.955,2.9,25.993,25.993,0,0,0-2.758,3.532A24.357,24.357,0,0,0,14.3,43.585c-1.115.768-2.138,2-3.367,2.1a9.747,9.747,0,0,1-1.57,1.353,8.169,8.169,0,0,0-2.076,1.189A16,16,0,0,0,5.3,50.159c-.762.063-1.4,1.063-2.189,1.035-.893.54-.972.881-1.882,1.268a1.556,1.556,0,0,1,.529-2.184c-.392-.506-.62.125-1.007-.381.591.04,1.063-.813,1.632-.978a23.276,23.276,0,0,1,3.19-4.612,14.648,14.648,0,0,1,.751-1.626c.267-.529.557-1.041.87-1.547.62-1.007,1.325-1.985,2.07-3.06.273-.637.586-1.274.91-1.911s.665-1.291,1-1.939.665-1.291.972-1.934.574-1.3.808-1.934a15.628,15.628,0,0,0,3.185-5.192,12.755,12.755,0,0,0,1.939-2.491,15.559,15.559,0,0,1,1.99-2.656,20.661,20.661,0,0,1,1.115-2.252c.427-.745.9-1.49,1.359-2.235a21.026,21.026,0,0,0,2.28-4.549A14.39,14.39,0,0,0,26.038,9.06c.364-.694.694-1.427,1.035-2.161a24.021,24.021,0,0,1,2.28-4.2A13.592,13.592,0,0,0,29.615.263C29.8-.4,30.747.621,31.02.137A9.409,9.409,0,0,1,32.43,0" transform="translate(3.51 0.006)" fill="#de6e46" fill-rule="evenodd"/>
      </g>
    </g>
  </g>
</svg>
