<svg xmlns="http://www.w3.org/2000/svg" xmlns:xlink="http://www.w3.org/1999/xlink" width="61.154" height="64.485" viewBox="0 0 61.154 64.485">
  <defs>
    <clipPath id="clip-path">
      <rect id="Rectangle_61" data-name="Rectangle 61" width="33.4" height="55.929" fill="none"/>
    </clipPath>
    <clipPath id="clip-path-3">
      <rect id="Rectangle_59" data-name="Rectangle 59" width="11.674" height="55.551" fill="none"/>
    </clipPath>
  </defs>
  <g id="paw" transform="translate(0 21.019) rotate(-39)">
    <g id="Group_98" data-name="Group 98" clip-path="url(#clip-path)">
      <g id="Group_97" data-name="Group 97">
        <g id="Group_96" data-name="Group 96" clip-path="url(#clip-path)">
          <path id="Path_554" data-name="Path 554" d="M31.735,17.776a9.7,9.7,0,0,1-5.655,2.8c.122.456.236.927.357,1.406q.274,1.163.547,2.417c.463,2.12.9,4.4,1.3,6.757.3,1.695.562,3.435.806,5.183.031.228.061.448.091.676.319,2.288.593,4.583.813,6.833.433,4.271.677,8.368.684,11.887l-7.4.053L3.636,55.93c-.023-1.292-.015-2.683.03-4.15.008-.137.008-.274.015-.41.068-1.991.205-4.119.38-6.3.182-2.227.41-4.522.677-6.8.182-1.627.388-3.253.608-4.849.433-3.177.92-6.225,1.414-8.938.167-.958.342-1.87.517-2.729-2.972.289-5.487-2.326-6.6-5.1a7.479,7.479,0,0,1-.631-3.694A5.285,5.285,0,0,1,7.3,9.1,7.6,7.6,0,0,1,8.523,2.134,4.879,4.879,0,0,1,12.529.067c2.668.19,4.188,3.169,4.629,5.807A8.059,8.059,0,0,1,21.2.569,5.812,5.812,0,0,1,25.366.242,4.624,4.624,0,0,1,27.532,1.6c1.8,2.029,1.429,5.214.312,7.684a4.293,4.293,0,0,1,5.221,2.531,5.9,5.9,0,0,1-1.33,5.959" transform="translate(0 0)" fill="#ffb464"/>
          <path id="Path_555" data-name="Path 555" d="M15.833,67.56a3.1,3.1,0,0,1-.357,1.421,3.373,3.373,0,0,1-.935,1.155,2.8,2.8,0,0,1-2.143.509,3.028,3.028,0,0,1-1.885-1.163,1.652,1.652,0,0,1-.16-.243,2.626,2.626,0,0,1,.813-3.413,3.285,3.285,0,0,1,2.827-.562,2.58,2.58,0,0,1,1.832,2.143.969.969,0,0,1,.008.152" transform="translate(-8.214 -53.379)" fill="#fce5cb"/>
          <path id="Path_556" data-name="Path 556" d="M17.321,78.492a3.1,3.1,0,0,1-.357,1.421,3.373,3.373,0,0,1-.935,1.155,2.8,2.8,0,0,1-2.143.509A3.028,3.028,0,0,1,12,80.415a1.652,1.652,0,0,1-.16-.243,5.621,5.621,0,0,0,4.347-.517,2.829,2.829,0,0,0,1.132-1.163" transform="translate(-9.702 -64.311)" fill="#fbd1a8"/>
          <path id="Path_557" data-name="Path 557" d="M65.85,67.124A6.253,6.253,0,0,1,63.714,68.3a11.506,11.506,0,0,1-1.1.334,13.356,13.356,0,0,1-6.1.144c-1.611-.342-2.9-1.262-2.957-2.835a3.012,3.012,0,0,1,.068-.806c.3-1.444,1.467-2.858,2.934-2.82A4.143,4.143,0,0,1,57.976,58.5a3.78,3.78,0,0,1,3.869-.524.824.824,0,0,1,.144.061,3.511,3.511,0,0,1,1.855,3.542,3.5,3.5,0,0,1,2.827.76,1.869,1.869,0,0,1,.334.57,2.807,2.807,0,0,1,.19.866,4.151,4.151,0,0,1-1.345,3.352" transform="translate(-43.874 -47.243)" fill="#fce5cb"/>
          <path id="Path_558" data-name="Path 558" d="M65.87,90.913a6.252,6.252,0,0,1-2.136,1.178,11.5,11.5,0,0,1-1.1.334,13.356,13.356,0,0,1-6.1.144c-1.611-.342-2.9-1.262-2.957-2.835A15.319,15.319,0,0,0,55,90.617a10.6,10.6,0,0,0,8.262-.144,8.164,8.164,0,0,0,3.762-3.777,2.807,2.807,0,0,1,.19.866,4.151,4.151,0,0,1-1.345,3.352" transform="translate(-43.894 -71.032)" fill="#fbd1a8"/>
          <path id="Path_559" data-name="Path 559" d="M57.886,21.132a3.006,3.006,0,0,1-.35,1.573,3.375,3.375,0,0,1-.935,1.155,2.8,2.8,0,0,1-2.143.509,3.029,3.029,0,0,1-1.885-1.163,2.278,2.278,0,0,1-.319-.578,2.642,2.642,0,0,1,.973-3.078,3.285,3.285,0,0,1,2.827-.562,2.7,2.7,0,0,1,1.52,1.193,2.3,2.3,0,0,1,.312.95" transform="translate(-42.674 -15.464)" fill="#fce5cb"/>
          <path id="Path_560" data-name="Path 560" d="M58.658,27.066a3.006,3.006,0,0,1-.35,1.573,3.375,3.375,0,0,1-.935,1.155,2.8,2.8,0,0,1-2.143.509,3.029,3.029,0,0,1-1.885-1.163,2.278,2.278,0,0,1-.319-.578,5.392,5.392,0,0,0,1.269.509,3.717,3.717,0,0,0,2.136-.4,3.85,3.85,0,0,0,1.915-2.561,2.3,2.3,0,0,1,.312.95" transform="translate(-43.446 -21.398)" fill="#fbd1a8"/>
          <path id="Path_561" data-name="Path 561" d="M116.814,16.925a2.656,2.656,0,0,1-.084.882,4.467,4.467,0,0,1-.266.692,3.375,3.375,0,0,1-.935,1.155,2.8,2.8,0,0,1-2.143.509A3.029,3.029,0,0,1,111.5,19a2.406,2.406,0,0,1-.479-1.361,2.707,2.707,0,0,1,1.132-2.3,3.284,3.284,0,0,1,2.827-.562,2.58,2.58,0,0,1,1.832,2.143" transform="translate(-90.962 -12.017)" fill="#fce5cb"/>
          <path id="Path_562" data-name="Path 562" d="M116.746,31.289a4.481,4.481,0,0,1-.266.692,3.374,3.374,0,0,1-.935,1.156,2.8,2.8,0,0,1-2.143.509,3.03,3.03,0,0,1-1.885-1.163,2.408,2.408,0,0,1-.479-1.361,3.558,3.558,0,0,0,1.566,1.269,3.883,3.883,0,0,0,3.162-.334,4.758,4.758,0,0,0,.98-.768" transform="translate(-90.977 -25.499)" fill="#fbd1a8"/>
          <path id="Path_563" data-name="Path 563" d="M146.248,63.2a3.006,3.006,0,0,1-.35,1.573,3.375,3.375,0,0,1-.935,1.155,2.8,2.8,0,0,1-2.143.509,3.029,3.029,0,0,1-1.885-1.163.75.75,0,0,1-.083-.129,2.608,2.608,0,0,1,.737-3.527,3.284,3.284,0,0,1,2.827-.562,2.676,2.676,0,0,1,1.672,1.5,2.313,2.313,0,0,1,.16.638" transform="translate(-115.076 -49.932)" fill="#fce5cb"/>
          <path id="Path_564" data-name="Path 564" d="M148.07,70.548a3.006,3.006,0,0,1-.35,1.573,3.375,3.375,0,0,1-.935,1.155,2.8,2.8,0,0,1-2.143.509,3.029,3.029,0,0,1-1.885-1.163.748.748,0,0,1-.083-.129,3.95,3.95,0,0,0,1.946.334,4.306,4.306,0,0,0,2.637-1.756,6.246,6.246,0,0,0,.653-1.163,2.312,2.312,0,0,1,.16.638" transform="translate(-116.898 -57.28)" fill="#fbd1a8"/>
          <path id="Path_565" data-name="Path 565" d="M37.178,158.075a5.105,5.105,0,0,1-4.264,1.543c-1.315-.16-2.539-.844-3.869-.9-2.128-.1-3.96,1.353-5.761,2.47a8.771,8.771,0,0,1-2.9,1.2c.068-1.991.205-4.119.38-6.3.182-2.227.41-4.522.676-6.8.182-1.627.388-3.253.608-4.849.433-3.177.92-6.225,1.414-8.938a12.336,12.336,0,0,1,2.721,2.82c.775,1.117,1.254,2.425,1.961,3.587,1.976,3.283,5.525,5.244,8.14,8.033a7.916,7.916,0,0,1,2.174,3.785,5.135,5.135,0,0,1-1.277,4.355" transform="translate(-16.699 -111.015)" fill="#ff7d3e"/>
          <path id="Path_566" data-name="Path 566" d="M102.1,136.73a7.455,7.455,0,0,1-3.359.464,3.215,3.215,0,0,1-2.615-.874,6.109,6.109,0,0,1-.593-1.474c-.616-1.528-2.273-2.333-3.823-2.865-1.011-.342-2.151-.745-2.569-1.718-.532-1.277.5-2.637,1.535-3.557a24.579,24.579,0,0,1,6.688-4.188c.555-.236,1.246-.547,1.991-.821q.274,1.163.547,2.417c.464,2.12.9,4.4,1.3,6.757.3,1.7.562,3.435.806,5.183.03.228.061.448.091.676" transform="translate(-72.916 -99.71)" fill="#ff7d3e"/>
          <g id="Group_95" data-name="Group 95" transform="translate(21.725 0.242)" opacity="0.13">
            <g id="Group_94" data-name="Group 94">
              <g id="Group_93" data-name="Group 93" clip-path="url(#clip-path-3)">
                <path id="Path_567" data-name="Path 567" d="M130.262,18.872a9.7,9.7,0,0,1-5.655,2.8c.122.456.236.927.357,1.406q.274,1.163.547,2.417c.463,2.12.9,4.4,1.3,6.757.3,1.695.562,3.435.806,5.183.031.228.061.448.091.676.319,2.288.593,4.583.813,6.833.433,4.271.677,8.368.684,11.887l-7.4.053a52.055,52.055,0,0,0-1.55-31.587,6.034,6.034,0,0,0,1.816-9.843c2.645-1.186,3.512-4.514,3.534-7.41a11.484,11.484,0,0,0-1.71-6.711A4.624,4.624,0,0,1,126.058,2.7c1.8,2.029,1.429,5.214.312,7.684a4.293,4.293,0,0,1,5.221,2.531,5.9,5.9,0,0,1-1.33,5.959" transform="translate(-120.252 -1.338)" fill="#df6636"/>
              </g>
            </g>
          </g>
        </g>
      </g>
    </g>
  </g>
</svg>
