<svg id="paw_print" xmlns="http://www.w3.org/2000/svg" width="25.132" height="19.703" viewBox="0 0 25.132 19.703">
  <path id="Path_8" data-name="Path 8" d="M397.4,59.566c3.988-1.769,5.1,2.389,7.819,4.265a17.707,17.707,0,0,1,1.986,1.361c2.36,2.151.09,4.7-2.084,5.671a17.717,17.717,0,0,1-9.566,1.389,8.028,8.028,0,0,1-3.439-1.147,3.649,3.649,0,0,1-1.753-3.663c.35-1.343,1.7-1.879,2.5-2.886,1.339-1.679,2.06-3.7,4.066-4.761q.243-.128.472-.23" transform="translate(-386.274 -52.706)" fill="#2f454f"/>
  <path id="Path_9" data-name="Path 9" d="M386.938,58.347a2.153,2.153,0,0,1,2.042.977,3.017,3.017,0,0,1,.358,2.3,5.122,5.122,0,0,1-1.1,2.1,3.483,3.483,0,0,1-2.668,1.49,2.708,2.708,0,0,1-2.367-2.607,4.422,4.422,0,0,1,3.732-4.26" transform="translate(-383.202 -52.355)" fill="#2f454f"/>
  <path id="Path_10" data-name="Path 10" d="M396.9,47.9a1.99,1.99,0,0,1,1.392,1.564,2.786,2.786,0,0,1-.517,2.089,4.738,4.738,0,0,1-1.685,1.4,3.222,3.222,0,0,1-2.809.318,2.506,2.506,0,0,1-1.088-3.071,4.091,4.091,0,0,1,4.706-2.3" transform="translate(-387.035 -47.783)" fill="#2f454f"/>
  <path id="Path_11" data-name="Path 11" d="M411.56,50a1.99,1.99,0,0,1-.183,2.086,2.788,2.788,0,0,1-1.875,1.058,4.753,4.753,0,0,1-2.174-.267,3.222,3.222,0,0,1-2.158-1.827,2.5,2.5,0,0,1,1.489-2.9A4.091,4.091,0,0,1,411.56,50" transform="translate(-392.686 -47.832)" fill="#2f454f"/>
  <path id="Path_12" data-name="Path 12" d="M422.267,59.89a2.083,2.083,0,0,1-.793,2.054,2.988,2.988,0,0,1-2.219.532,5.044,5.044,0,0,1-2.139-.891,3.371,3.371,0,0,1-1.67-2.461,2.646,2.646,0,0,1,2.361-2.5,4.322,4.322,0,0,1,4.461,3.267" transform="translate(-397.182 -51.604)" fill="#2f454f"/>
</svg>
