<svg xmlns="http://www.w3.org/2000/svg" width="152" height="152" viewBox="0 0 152 152">
  <g id="point20" transform="translate(-1285 -485)">
    <circle id="Ellipse_20" data-name="Ellipse 20" cx="76" cy="76" r="76" transform="translate(1285 485)" fill="#acd271"/>
    <path id="Path_763" data-name="Path 763" d="M10.811-31.113q0-2.988,4.834-4.351a33.2,33.2,0,0,1,8.965-1.362q6.24,0,6.24,5.625a14.225,14.225,0,0,1-1.582,5.977,31.462,31.462,0,0,1-4,6.328,24.886,24.886,0,0,1-4.614,4.57q-.615.439-.615.7.615.352,4.395.352h11.03a8.622,8.622,0,0,0,3.032-.352q.264-.088,1.055-.439a3.687,3.687,0,0,1,1.494-.352A2.7,2.7,0,0,1,43.154-13.4a3.336,3.336,0,0,1,.879,2.241q0,2.021-2.725,2.725A91.631,91.631,0,0,1,27.422-6.46q-7.207.483-16.348.483A12.423,12.423,0,0,1,6.24-6.768Q4.395-7.559,4.395-10.2A3.54,3.54,0,0,1,5.669-12.92a19.6,19.6,0,0,1,3.472-2.373A40.432,40.432,0,0,0,22.588-27.861a4.944,4.944,0,0,0,1.143-2.285q0-.7-1.055-.7a16.745,16.745,0,0,0-3.032.4,6.268,6.268,0,0,0-2.593.923,7.921,7.921,0,0,0-1.011,1.011,1.919,1.919,0,0,1-1.45.747,3.962,3.962,0,0,1-2.5-1.055A2.985,2.985,0,0,1,10.811-31.113ZM61.787-2.9A7.675,7.675,0,0,1,56.25-5.01,12.733,12.733,0,0,1,53-10.327,20.308,20.308,0,0,1,51.943-16.7a88.721,88.721,0,0,1,.879-10.9q.879-6.768,2.373-8.525a3.006,3.006,0,0,1,1.1-.967,3.469,3.469,0,0,1,1.45-.264,2.127,2.127,0,0,1,1.23.264l.352.088a4.94,4.94,0,0,0,1.274-.176q.659-.176.923-.264a5.914,5.914,0,0,1,2.109-.439,12.46,12.46,0,0,1,5.933,1.143A6.874,6.874,0,0,1,72.6-33.4a25.608,25.608,0,0,1,1.582,6.152,16.866,16.866,0,0,1,.176,2.813,29.516,29.516,0,0,1-.527,6.064,35.131,35.131,0,0,1-2.285,6.812,20.477,20.477,0,0,1-4.087,6.108A7.76,7.76,0,0,1,61.787-2.9Zm-.615-6.855q1.934,0,3.428-2.681a24.128,24.128,0,0,0,2.329-6.2,25.554,25.554,0,0,0,.835-5.537,12.975,12.975,0,0,0-.615-4.395q-.615-1.67-2.9-1.67a8.3,8.3,0,0,0-2.637.439q-2.021.7-2.988,5.405A42.174,42.174,0,0,0,57.656-16a10.694,10.694,0,0,0,.879,4.131A2.852,2.852,0,0,0,61.172-9.756Z" transform="translate(1321 585)" fill="#2f454f"/>
  </g>
</svg>
