<svg xmlns="http://www.w3.org/2000/svg" width="939.624" height="271.863" viewBox="0 0 939.624 271.863">
  <g id="title" transform="translate(-568.758 -119.688)">
    <path id="Path_2334" data-name="Path 2334" d="M18.867-33.867A1.354,1.354,0,0,1,17.4-35.1a17.861,17.861,0,0,1-.234-3.223,4.259,4.259,0,0,1,.176-1.23,13.477,13.477,0,0,0,.234-1.992,21.918,21.918,0,0,1,.469-3.34q.293-1.172,1.055-1.172a1.864,1.864,0,0,1,1.23.439,1.417,1.417,0,0,1,.527,1.143l-.059,1q0,1.172.645,1.172a6.334,6.334,0,0,0,1.934-.469q.176-.059.791-.234a4.177,4.177,0,0,1,1.143-.176,2.272,2.272,0,0,1,1.289.352,1.183,1.183,0,0,1,.527,1.055,1.584,1.584,0,0,1-.908,1.406,12.941,12.941,0,0,1-2.666,1.055A16.059,16.059,0,0,0,22-38.789a3.144,3.144,0,0,0-1.025.586,3.96,3.96,0,0,0-.645,1.992,7.085,7.085,0,0,1-.439,1.758A1.014,1.014,0,0,1,18.867-33.867Zm-7.324-.176a.883.883,0,0,1-.762-.439,5.937,5.937,0,0,1-.586-1.26q-.176-.41-.322-.732T9.551-36.8a6.366,6.366,0,0,0-1.992.469,7.43,7.43,0,0,1-2.051.469,2.309,2.309,0,0,1-1.26-.352,1.165,1.165,0,0,1-.557-1.055q0-1.23,1.963-2.051a21.475,21.475,0,0,1,3.955-1.23q.82-2.7,1.816-2.7a1.622,1.622,0,0,1,1,.234,2.946,2.946,0,0,1,.615.762,1.666,1.666,0,0,0,.732.7q.117.059.469.205a1.7,1.7,0,0,1,.557.352.678.678,0,0,1,.205.5,1.2,1.2,0,0,1-.41.908q-.41.381-.469.439-.293.293-.557.615a1.052,1.052,0,0,0-.264.674,7.57,7.57,0,0,1-.5,2.373Q12.3-34.043,11.543-34.043ZM42.6-19.629a2.08,2.08,0,0,1-.967-.176q-.322-.176-.322-.762A5.464,5.464,0,0,1,41.66-22.5a25.453,25.453,0,0,1,1.055-2.344q.117-.176.674-1.436a8,8,0,0,0,.674-2.432l-.176-.117a4.578,4.578,0,0,0-2.93,1.084A22.887,22.887,0,0,0,38.086-24.9a9.348,9.348,0,0,1-.937,1.113,1.281,1.281,0,0,1-.762.469.811.811,0,0,1-.879-.586,5.18,5.18,0,0,1-.176-1.465,18.554,18.554,0,0,1,.791-3.955,34.451,34.451,0,0,1,1.846-5.215q1.055-2.314,1.992-2.314a1.169,1.169,0,0,1,.967.5,1.747,1.747,0,0,1,.381,1.084,5.579,5.579,0,0,1-.352,1.582,5.621,5.621,0,0,0-.352,1.641q0,.527.293.527.176-.059,1.611-.645a7.344,7.344,0,0,1,2.783-.586q2.93,0,2.93,2.988a12.138,12.138,0,0,1-.937,3.691,22.311,22.311,0,0,1-2.227,4.482Q43.77-19.629,42.6-19.629ZM22.441-22.734a4.646,4.646,0,0,1-3.193-1.23,3.923,3.923,0,0,1-1.377-3.047,27,27,0,0,1,.146-3.34,2.372,2.372,0,0,1,.469-1.348,1.931,1.931,0,0,1,.967-.41q.645-.176,1.113-.352a3.513,3.513,0,0,0,1.055-.7,5.554,5.554,0,0,1,1.025-.732,3.073,3.073,0,0,1,1.143-.146,2.2,2.2,0,0,1,2.168,1.025,6.3,6.3,0,0,1,.527,2.842,8.384,8.384,0,0,1-.293,1.523,5.579,5.579,0,0,0-.352,1.582.475.475,0,0,0,.352.439,3.615,3.615,0,0,1,.615.322.718.718,0,0,1,.264.645q0,.586-.879,1.26a9.628,9.628,0,0,1-2.021,1.172A4.856,4.856,0,0,1,22.441-22.734Zm-.293-3.984q.41,0,.967-.908A3.052,3.052,0,0,0,23.672-29a.78.78,0,0,0-.205-.527.638.638,0,0,0-.5-.234,1.113,1.113,0,0,0-1.084.674,3.418,3.418,0,0,0-.322,1.494Q21.563-26.719,22.148-26.719ZM8.438-18.809A1.886,1.886,0,0,1,6.8-19.98a4.728,4.728,0,0,1-.645-2.285,9.606,9.606,0,0,1,.791-3.545q.791-1.963,2.08-1.963a5.045,5.045,0,0,0,1.992-.527,5.471,5.471,0,0,1,1.934-.469,2.138,2.138,0,0,1,1.582.586,2.138,2.138,0,0,1,.586,1.582,14.918,14.918,0,0,1-.645,2.93,8.653,8.653,0,0,1-1,2.637A8.6,8.6,0,0,1,11.1-19.6,7.094,7.094,0,0,1,8.438-18.809Zm1.348-3.457q.82,0,1.787-1.23a3.657,3.657,0,0,0,.967-2.051q0-.469-.586-.7-.879,0-1.787,1.318a4.228,4.228,0,0,0-.908,2.256Q9.492-22.266,9.785-22.266Zm47.4,24.434q-1.172-.645-7.5-5.156Q44-6.973,41.133-8.906T37.5-10.84q-.176,0-.469.557t-.645,1.318a34.965,34.965,0,0,1-2.607,4.424,3.381,3.381,0,0,1-2.725,1.67,1.544,1.544,0,0,1-1.025-.439,1.279,1.279,0,0,1-.5-.967,6.341,6.341,0,0,1,.762-2.578,17.509,17.509,0,0,1,1.523-2.637A42.541,42.541,0,0,0,35.1-15.5a36.313,36.313,0,0,0,2.52-6.3,6.966,6.966,0,0,1,.557-1.611,1.079,1.079,0,0,1,1.025-.615,1.149,1.149,0,0,1,1.025.762,2.745,2.745,0,0,1,.322,1.465l.117-.117a10.533,10.533,0,0,1-.879,3.691q-.059.176-.469,1.377a7.311,7.311,0,0,0-.41,2.373l.059.352a2.515,2.515,0,0,0,.674.381q.381.146.5.205a65.267,65.267,0,0,1,8.7,5.566Q55.371-3.34,57.6-1.348a6.933,6.933,0,0,1,.879.908,1.641,1.641,0,0,1,.234.967,1.521,1.521,0,0,1-.469,1.113A1.709,1.709,0,0,1,57.188,2.168ZM28.945-.352a1.478,1.478,0,0,1-.5,1.113,5.935,5.935,0,0,1-1.26.879q-.234.117-.5.264t-.615.322a37.989,37.989,0,0,1-4.365,2.139,12.413,12.413,0,0,1-3.9.85l-1.172.059q-1.465,0-1.465-1.289a.638.638,0,0,1,.381-.674,6.133,6.133,0,0,1,1.26-.264,6.051,6.051,0,0,0,1.113-.176.9.9,0,0,0,.586-.469,7.275,7.275,0,0,0,.293-2.637q0-.879-.586-.879a1.059,1.059,0,0,0-.732.293,6.446,6.446,0,0,0-.615.645q-.527.762-1,.762a.866.866,0,0,1-.674-.293,1.015,1.015,0,0,1-.264-.7A2.538,2.538,0,0,1,15.469-2.2a5.68,5.68,0,0,1,1.582-1.084,6.137,6.137,0,0,0,2.139-1.641,4.99,4.99,0,0,0,.732-3.047,5.878,5.878,0,0,0-1.641.527,4.212,4.212,0,0,1-1.816.527,1.176,1.176,0,0,1-.82-.322.972.972,0,0,1-.352-.732,1.431,1.431,0,0,1,.645-1.143,15.314,15.314,0,0,1,1.934-1.2,15.538,15.538,0,0,0,2.549-1.67,2.4,2.4,0,0,0,.85-1.9q0-.41-.352-.41a6.479,6.479,0,0,0-1.465.234,8.021,8.021,0,0,1-1.523.234,2.258,2.258,0,0,1-1.377-.41A1.368,1.368,0,0,1,16-15.41a1.276,1.276,0,0,1,.791-1.172,12.323,12.323,0,0,1,2.256-.82,12.778,12.778,0,0,0,1.523-.586q.469-.234.469-.527a1.908,1.908,0,0,0-.381-.937,1.908,1.908,0,0,1-.381-.937.926.926,0,0,1,.557-.791,2.159,2.159,0,0,1,1.084-.322,1.033,1.033,0,0,1,.879.527,6.058,6.058,0,0,1,.586,1.113q.234.586.352.82a10.664,10.664,0,0,1,2.813.352,1.473,1.473,0,0,1,1.289,1.465,1.032,1.032,0,0,1-.645.967,11.426,11.426,0,0,1-1.875.674,15.024,15.024,0,0,0-2.021.791,1.079,1.079,0,0,0-.615,1.025,1.672,1.672,0,0,0,.117.557q.117.322.352.322a1.786,1.786,0,0,0,.557-.146,1.82,1.82,0,0,1,.615-.146,1.049,1.049,0,0,1,.645.293.8.8,0,0,1,.352.586.828.828,0,0,1-.234.557,2.256,2.256,0,0,1-.527.439,5.355,5.355,0,0,0-1.406,1.494,5.2,5.2,0,0,0-.527,2.666,3.019,3.019,0,0,0,.41,1.846,3.25,3.25,0,0,0,1.172.85,2.667,2.667,0,0,1,1.025.674,1.951,1.951,0,0,1,.322,1.26.84.84,0,0,1-.439.85,3.7,3.7,0,0,1-1.26.264,3.079,3.079,0,0,0-1.172.176.738.738,0,0,0-.41.762,2.053,2.053,0,0,0,.117.645q.117.352.41.352a5.571,5.571,0,0,0,2.4-1,5.571,5.571,0,0,1,2.4-1Q28.945-1.465,28.945-.352ZM14,.352q-.586,9.2-2.812,9.2a1.064,1.064,0,0,1-1.055-.791,4.94,4.94,0,0,1-.293-1.729q0-1.055.117-2.373t.176-1.787a34.338,34.338,0,0,0,.293-4.219A12.38,12.38,0,0,1,10.547-2.7a9.689,9.689,0,0,0,.117-1.289l-.059-.293A5.739,5.739,0,0,0,9.434-2.52,28.319,28.319,0,0,1,7.412.674a2.455,2.455,0,0,1-1.846,1.2,1.262,1.262,0,0,1-.967-.41A1.489,1.489,0,0,1,4.219.41,12.954,12.954,0,0,1,5.83-4.014q1.611-3.252,4.131-7.881l1.348-2.52a2.683,2.683,0,0,1,.205-1.172,2.462,2.462,0,0,1,.615-.762,4.982,4.982,0,0,0,.645-.645,5.213,5.213,0,0,0,.82-1.289,6.077,6.077,0,0,1,.938-1.436,1.685,1.685,0,0,1,1.289-.5q1.113,0,1.113.879a11.268,11.268,0,0,1-1,2.285q-1,1.992-1.523,3.252a5.836,5.836,0,0,0-.527,2.2q0,1.172.117,3.281.117,2.227.117,3.34,0,.938-.117,2.578Q13.887-.645,13.887.234l.059.234ZM76.875-30.41q0-1.348,1.875-3.545a22.013,22.013,0,0,1,4.307-3.867,7.665,7.665,0,0,1,3.779-1.67,4.052,4.052,0,0,1,1.816.469,1.4,1.4,0,0,1,.938,1.23q0,1-2.52,2.578a6.211,6.211,0,0,0-1.055.762,21.484,21.484,0,0,0-2.988,3.164q0,2.285.176,6.416t.527,4.482a8.244,8.244,0,0,0,1.67-1.523q.732-.879,1.377-1.787t.938-1.318l2.109-3.047a38.041,38.041,0,0,1,2.988-4.1,9.007,9.007,0,0,1,3.252-2.285,13.278,13.278,0,0,1,5.244-.879,4.775,4.775,0,0,1,4.1,1.816,7.664,7.664,0,0,1,1.348,4.688,5.186,5.186,0,0,1-2.051,4.189,7.138,7.138,0,0,1-4.629,1.67,2.494,2.494,0,0,1-1.113-.293,2.282,2.282,0,0,0-.82-.293q-.645,0-.645,3.105a59.382,59.382,0,0,1-.586,6.973,62.168,62.168,0,0,0-.586,7.031q0,.527.234.674a1.651,1.651,0,0,0,.82.146,25.948,25.948,0,0,0,3.545-.264q1.9-.264,3.721-.557.469-.059,2.783-.41a29.485,29.485,0,0,1,4.424-.352,4.384,4.384,0,0,1,2.168.439,1.823,1.823,0,0,1,.762,1.729,3.128,3.128,0,0,1-.381,1.7,2.354,2.354,0,0,1-1.377.879,29.608,29.608,0,0,1-4.951,1q-2.256.234-5.537.352Q99.023-1,97.031-.82q-.117,0-.615.059a1.675,1.675,0,0,0-.908.41,3.283,3.283,0,0,0-.527,1.641,6.812,6.812,0,0,1-.674,2.49,2.034,2.034,0,0,1-1.963.908,1.518,1.518,0,0,1-1.582-.85,7.726,7.726,0,0,1-.41-2.549,5.028,5.028,0,0,0-.293-2.051A26.759,26.759,0,0,0,86.309-1H72.832q-1.348,0-3.018.117T67.5-.7q-3.633.352-5.391.352a4.151,4.151,0,0,1-2.08-.586A1.733,1.733,0,0,1,59-2.461q0-.352.732-1A2.114,2.114,0,0,1,60.82-4.1q5.859,0,5.859-1.289a6.922,6.922,0,0,0-.352-1.875,5.628,5.628,0,0,1-.41-1.875,7.32,7.32,0,0,1,.85-2.432,22.516,22.516,0,0,1,1.875-3.252q1.025-1.465,1.611-1.465t.586.7a4.111,4.111,0,0,1-.469,1.172q-.7,1.7-1.055,2.725a6.048,6.048,0,0,0-.352,1.963,12.736,12.736,0,0,0,.586,3.018q.586,2.08,1.23,2.08t2.051-.117a13.538,13.538,0,0,1,2.227-.176l3.281.059a14.863,14.863,0,0,0,3.223-.293,21.427,21.427,0,0,1,4.688-.41H88.1a21.981,21.981,0,0,0,2.842-.176,2.769,2.769,0,0,0,.7-1.523q.234-1.113.293-1.289,1.289-5.918,1.992-10.518a60.225,60.225,0,0,0,.7-9.111v-.586a.456.456,0,0,0-.176-.41,40.167,40.167,0,0,0-3.047,4.57,62.3,62.3,0,0,1-4.512,6.563q-1.875,2.285-3.867,2.285A2.607,2.607,0,0,1,80.654-16.9a5.165,5.165,0,0,1-.732-2.842,31.4,31.4,0,0,1,.352-3.867q.059-.469.176-1.7t.117-2.168a.709.709,0,0,0-.352-.7,3.186,3.186,0,0,0-1.113-.234,3.789,3.789,0,0,1-1.641-.5A1.656,1.656,0,0,1,76.875-30.41Zm25.2.234a1.514,1.514,0,0,0-.615-1.318,2.605,2.605,0,0,0-1.553-.439,2.591,2.591,0,0,0-1.348.264q-.41.264-.41,1.2a6.122,6.122,0,0,0,.381,2.021q.381,1.084,1.084,1.084a2.169,2.169,0,0,0,1.729-.908A2.994,2.994,0,0,0,102.07-30.176ZM66.563-24.9a2.058,2.058,0,0,1,.469-1.172,1.282,1.282,0,0,1,1-.645,4.231,4.231,0,0,1,3.779,2.051,8.478,8.478,0,0,1,1.318,4.688.88.88,0,0,1-1,1q-.7,0-1.348-1.172a10.418,10.418,0,0,0-1.465-2.051,8.775,8.775,0,0,0-1.172-.762,5.751,5.751,0,0,1-1.172-.791A1.485,1.485,0,0,1,66.563-24.9Zm55.2,26.309h-1.172a2,2,0,0,1-1.465-.469,2,2,0,0,1-.469-1.465,4.484,4.484,0,0,1,.557-2.109,24.692,24.692,0,0,1,1.436-2.344,131.767,131.767,0,0,0,9.727-15.7q.176-.352.615-1.113a4.4,4.4,0,0,0,.557-1.465,4.062,4.062,0,0,0-.7-.645,7.279,7.279,0,0,1-.879-.791,1.161,1.161,0,0,1-.352-.791,2.051,2.051,0,0,1,1-1.523,19.08,19.08,0,0,1,2.52-1.582,2.134,2.134,0,0,0,.85-.908A10.2,10.2,0,0,0,134.59-31a7.391,7.391,0,0,1,.762-1.611,1.147,1.147,0,0,1,1-.5,1.433,1.433,0,0,1,1.377.586,4.622,4.622,0,0,1,.439,1.7q.117,1,.352,1.172a2.668,2.668,0,0,0,.82.41q.527.176.762.234a5.339,5.339,0,0,1,2.871,2.549,8.507,8.507,0,0,1,.938,4.014,17.543,17.543,0,0,1-1.377,6.855,8.24,8.24,0,0,1-4.248,4.57,3.359,3.359,0,0,1-1.523.352,3.421,3.421,0,0,1-2.256-.557,3.536,3.536,0,0,1-.937-1.436,3.5,3.5,0,0,0-.557-1.113,2,2,0,0,0-.82.938q-.41.762-.469.879A57.823,57.823,0,0,1,121.758,1.406Zm43.066-18.4q0,1.055-1.348,1.406a14.247,14.247,0,0,1-2.549.439q-1.2.088-1.494.088a20.764,20.764,0,0,0-2.988.645q-.293.059-1.523.352a10.354,10.354,0,0,1-2.4.293,6.824,6.824,0,0,1-1.377-.117,1.487,1.487,0,0,1-.908-.586,9.632,9.632,0,0,1-.586-3.223q-.234-2.7-.234-4.277,0-1.523.176-3.721t.527-2.432a2.054,2.054,0,0,1,1.113-.234,1.976,1.976,0,0,1,.879.234,1.843,1.843,0,0,0,.645.234,5.326,5.326,0,0,0,1.758-.469,6.331,6.331,0,0,1,1.875-.469,4.846,4.846,0,0,1,3.428,1.494,4.573,4.573,0,0,1,1.553,3.369,10.954,10.954,0,0,1-.205,1.846,7.854,7.854,0,0,1-.439,1.67,3.254,3.254,0,0,0-.469,1.23,2.472,2.472,0,0,0,1.025.176,9.224,9.224,0,0,1,1.787.293,3.657,3.657,0,0,1,1.641,1A3.293,3.293,0,0,1,164.824-16.992Zm-30.293.059q0,.176.82,1t1,.82q.41,0,1.113-.7a6.153,6.153,0,0,0,1.523-2.93,15.645,15.645,0,0,0,.469-3.809q0-2.637-1.406-2.637-.41,0-1.963,3.691A18.478,18.478,0,0,0,134.531-16.934Zm18.4-.293a3.463,3.463,0,0,0,1.172-.234,2.151,2.151,0,0,0,.938-.586,6.979,6.979,0,0,0,.762-2.432,16.888,16.888,0,0,0,.41-2.783,2.016,2.016,0,0,0-.264-1.143,1.1,1.1,0,0,0-.967-.381,1.29,1.29,0,0,0-.937.41,9.649,9.649,0,0,0-.762,2.988,26.912,26.912,0,0,0-.469,3.516A1.249,1.249,0,0,0,152.93-17.227Zm59.3,10.078a1.531,1.531,0,0,1-.615,1.289,2.3,2.3,0,0,1-1.436.469,8.628,8.628,0,0,1-1.2-.264q-.732-.205-1.2-.381A23.851,23.851,0,0,1,200.6-9.99a30.491,30.491,0,0,1-5.889-6.182q-.41-.645-.645-.645a3.561,3.561,0,0,0-1.318.762q-1.025.762-2.256,1.816A86.005,86.005,0,0,1,181.9-7.881a13.725,13.725,0,0,1-7.295,2.432,1.246,1.246,0,0,1-1.025-.645,2.2,2.2,0,0,1-.439-1.23,1.339,1.339,0,0,1,.293-.762,15.441,15.441,0,0,1,2.607-1.963Q178.359-11.6,179-12.012L181.934-14a69.826,69.826,0,0,0,9.023-7.5A46.291,46.291,0,0,1,187-28.389a16,16,0,0,1-1.846-6.533q0-1.406,1-1.406.527,0,1.553,1.348t1.846,2.637q.82,1.289,1.113,1.7a115.66,115.66,0,0,0,9.4,12.07,59.234,59.234,0,0,0,10.459,9.141,6.64,6.64,0,0,1,1.289,1.055A1.8,1.8,0,0,1,212.227-7.148ZM225.41-27.832a5.012,5.012,0,0,1,.557-2.2q.557-1.143,1.553-2.783a2.3,2.3,0,0,0,.264-.732,5.878,5.878,0,0,1,.146-.615,2.492,2.492,0,0,1,.41-1.23,1.172,1.172,0,0,1,1-.469q.938,0,1.172.381a2.821,2.821,0,0,1,.293,1.23q.059.85.645.85a22.013,22.013,0,0,0,2.7-.234q.41-.059,1.084-.117t1.611-.059q.938,0,.938.82a1.388,1.388,0,0,1-.234.879q-.352.41-4.512.938-.469.059-1.494.205a9.478,9.478,0,0,0-1.377.264,1.3,1.3,0,0,0-.7.527,11.423,11.423,0,0,0-.7,1.172,8.09,8.09,0,0,1-1.113,1.611,1.775,1.775,0,0,1-1.348.557Q225.41-26.836,225.41-27.832Zm19.863,4.746a1.475,1.475,0,0,1,.146-.791.979.979,0,0,1,.527-.322,1.23,1.23,0,0,0,.615-.41,5.785,5.785,0,0,0,.527-2.578,12.535,12.535,0,0,1,.586-3.105,1.519,1.519,0,0,1,1.523-1.113,2.224,2.224,0,0,1,1.318.322,1.4,1.4,0,0,1,.439,1.2,4.62,4.62,0,0,1-.088.908,4.62,4.62,0,0,0-.088.908,1.632,1.632,0,0,0,.117.7q.117.234.586.234a5.628,5.628,0,0,0,1.875-.41,6.845,6.845,0,0,1,1.816-.352,1.641,1.641,0,0,1,.82.234.716.716,0,0,1,.41.645.664.664,0,0,1-.176.439q-.176.205-.234.264a4.751,4.751,0,0,0-1.025,1.816,16.445,16.445,0,0,0-.439,2.578,7.673,7.673,0,0,1-.557,2.109q-.439,1.055-.557,1.289a13.361,13.361,0,0,0-1,2.52l1.055,1a24.529,24.529,0,0,0,2.256,1.992q1.2.938,1.553,1.23a42.394,42.394,0,0,1,3.428,2.813,15.069,15.069,0,0,1,2.549,3.281,5.68,5.68,0,0,1,1.055,2.7,1.339,1.339,0,0,1-.381.938,1.2,1.2,0,0,1-.908.41q-1.289,0-3.779-2.08t-6.064-5.537a21.953,21.953,0,0,0-3.105-2.754,1.766,1.766,0,0,0-.908.557,13.783,13.783,0,0,0-1.26,1.318,29.233,29.233,0,0,1-2.549,2.4,3.306,3.306,0,0,1-2.021.879,12.057,12.057,0,0,0-1.641.293,5.621,5.621,0,0,1-1.641.352,5.793,5.793,0,0,1-.82-.059,5.793,5.793,0,0,0-.82-.059q-.293,0-.645.527a11.492,11.492,0,0,0-.7,1.23,17,17,0,0,1-2.227,3.281,3.7,3.7,0,0,1-2.871,1.23A1.955,1.955,0,0,1,230.8-.439a1.2,1.2,0,0,1-.527-1.025,2.417,2.417,0,0,1,.352-1.113,11.814,11.814,0,0,1,.82-1.289,13.654,13.654,0,0,0,.938-1.523,2.494,2.494,0,0,0,.293-1.113v-.234a1.326,1.326,0,0,0-.557.264.787.787,0,0,1-.439.205.7.7,0,0,1-.557-.176,2.109,2.109,0,0,1-.293-.732,1.213,1.213,0,0,0-.557-.791,12.238,12.238,0,0,0-2.988-.7,17.314,17.314,0,0,1-4.189-.967,2.168,2.168,0,0,1-1.494-2.139,2.258,2.258,0,0,0-.205-.967,6,6,0,0,0-.439-.791,1.981,1.981,0,0,1-.527-1.23,1.416,1.416,0,0,1,.557-1.26,5.532,5.532,0,0,1,1.67-.674,3.09,3.09,0,0,0,1.465-.586,6.038,6.038,0,0,0,1.025-1.7q.557-1.23.674-1.465a27.918,27.918,0,0,1,2.754-4.541,7.4,7.4,0,0,1,3.281-2.842,10.308,10.308,0,0,1,3.281-.527,4.319,4.319,0,0,1,3.105.967,4.392,4.392,0,0,1,1.26,2.461,22.8,22.8,0,0,1,.264,3.838A6.243,6.243,0,0,0,240-18.75q.234.293,1.406.293a6.4,6.4,0,0,1,2.314.439,1.632,1.632,0,0,1,.85,1.67,1.552,1.552,0,0,1-.879,1.465,10.008,10.008,0,0,1-2.4.82,3.937,3.937,0,0,0-1.7.645,6.5,6.5,0,0,0-.439,1.494,9.294,9.294,0,0,0-.264,1.67q0,.879,1.084,1.26a6.586,6.586,0,0,0,2.2.381q.645-.879.762-1,1.934-2.52,3.076-4.072a4.967,4.967,0,0,0,1.143-2.139,9.33,9.33,0,0,0-.879-3.281q-.527-1.348-.762-2.2A6.691,6.691,0,0,1,245.273-23.086ZM236.836-19.8q0-5.742-1.934-6.094a12.589,12.589,0,0,0-1.465-.117,3.3,3.3,0,0,0-1,.117q-.586.234-2.666,3.75a19.725,19.725,0,0,0-2.2,4.336,7.737,7.737,0,0,0,2.285.293q1.113,0,1.113-.645a3.443,3.443,0,0,0-.117-.82l-.176-.7a4.525,4.525,0,0,1-.352-1.465,2.063,2.063,0,0,1,.527-1.377,1.636,1.636,0,0,1,1.289-.615q1,0,1.26.586a6.121,6.121,0,0,1,.381,1.816,5.5,5.5,0,0,0,.439,1.875,1.386,1.386,0,0,0,1.377.645,1.088,1.088,0,0,0,1-.381A2.365,2.365,0,0,0,236.836-19.8Zm15.234-3.809q0-.352-.586-.352a2.146,2.146,0,0,0-1.348.586,2.031,2.031,0,0,1-1.113.586,1.8,1.8,0,0,1-.234-.029q-.176-.029-.176.205a3.851,3.851,0,0,0,.5,1.582,9.036,9.036,0,0,0,.967,1.582q.293-.059,1.143-1.9A8.928,8.928,0,0,0,252.07-23.613Zm-21.211,11.6q0-1.406-.732-1.787a5.275,5.275,0,0,0-2.314-.381,3.037,3.037,0,0,0-1.934.645,2.056,2.056,0,0,0-.82,1.7q0,.469,1.113.615t1.172.146l3.047.41Q230.859-10.605,230.859-12.012Zm4.8-1.23q0-.469-.762-.469a.7.7,0,0,0-.557.234.858.858,0,0,0-.205.586,10.261,10.261,0,0,0,.176,1.758q.176,1,.586,1,.293,0,.527-1.26A11.331,11.331,0,0,0,235.664-13.242ZM307.207,3.75a8.759,8.759,0,0,1-2.842-.469q-1.377-.469-3.428-1.406Q298.711.938,297.422.5a8.3,8.3,0,0,0-2.7-.439q-.293,0-.439.645a3.867,3.867,0,0,1-.381,1.055,1.052,1.052,0,0,1-1,.41,1.278,1.278,0,0,1-1.055-.527,1.863,1.863,0,0,1-.41-1.172l.059-.82q-.234-.527-2.168-.967a14.42,14.42,0,0,0-2.871-.439.8.8,0,0,0-.762.439A5.027,5.027,0,0,0,285.293,0a5.715,5.715,0,0,1-.586,1.758,1.441,1.441,0,0,1-1.348.586,1.182,1.182,0,0,1-1.23-.762,5.445,5.445,0,0,1-.293-1.934,21.2,21.2,0,0,1,.791-4.541,29.615,29.615,0,0,1,1.992-5.625q1.2-2.49,2.49-2.49l.41.059a.572.572,0,0,1,.117.41,3.169,3.169,0,0,1-.264,1.084q-.264.674-.381.908a14.622,14.622,0,0,0-.615,2.373,20.02,20.02,0,0,0-.264,2.344q-.059,1.143-.117,1.611,4.336,0,4.8-.352a1.445,1.445,0,0,0,.469-1.23q0-3.809.293-8.5a9.126,9.126,0,0,1,.059-1.113q.059-.469.117-.82a16.5,16.5,0,0,0,.234-2.285,2.207,2.207,0,0,0-.879-.176l-.937.059q-1.172,0-1.172-.527,0-.176.5-.5a11.282,11.282,0,0,1,1.084-.615q1.465-.762,1.465-1.055a.5.5,0,0,0-.117-.322.318.318,0,0,0-.234-.146,2.257,2.257,0,0,0-1.055.469,2.254,2.254,0,0,1-1.113.469q-.176,0-.322-.352a1.594,1.594,0,0,1-.146-.586,3.2,3.2,0,0,1,.938-2.021,14.974,14.974,0,0,1,2.051-1.963q0-.352-.41-.352a1.382,1.382,0,0,0-.586.176,4.518,4.518,0,0,1-.527.234,3.329,3.329,0,0,1-1.465.527q-.293,0-.5-.5a2.309,2.309,0,0,1-.205-.85,1.947,1.947,0,0,1,.439-1.289A8.456,8.456,0,0,1,290.039-29a8.114,8.114,0,0,0,1.23-1.143,1.916,1.916,0,0,0,.41-1.26q0-1.23-.586-1.23a.832.832,0,0,0-.674.322,3.5,3.5,0,0,0-.5.908,4.53,4.53,0,0,1-.439.879.7.7,0,0,1-.615.293,1.142,1.142,0,0,1-1.055-.85,4.347,4.347,0,0,1-.352-1.67,2.578,2.578,0,0,1,.557-1.787,7.71,7.71,0,0,1,1.729-1.318,5.664,5.664,0,0,0,2.109-1.875,16.8,16.8,0,0,1,.791-1.523,1.01,1.01,0,0,1,.908-.527.716.716,0,0,1,.527.176q0,.234.059.967a2.059,2.059,0,0,0,.234.967,1.548,1.548,0,0,0,.791.352,4.51,4.51,0,0,1,1.084.41.81.81,0,0,1,.41.762,1.5,1.5,0,0,1-.264.967,3.106,3.106,0,0,1-.908.674,3.342,3.342,0,0,0-1.055.762,2.178,2.178,0,0,0-.352,1.406,1.918,1.918,0,0,0,.234,1.055q.176.234,1.172.234a5.093,5.093,0,0,1,2.988.82q1.172.82,1.172,3.75a18.215,18.215,0,0,1-.586,3.9q-.586,2.49-1.348,2.9a2.609,2.609,0,0,1-1.172.234,2.2,2.2,0,0,0-1.172.234,3.491,3.491,0,0,0-.059.762,32.918,32.918,0,0,0,.352,5.273l.234.117a3.59,3.59,0,0,0,.938-.352l.82-.41a8.71,8.71,0,0,1,4.277-1.406,1.333,1.333,0,0,1,1.084.557,1.9,1.9,0,0,1,.439,1.2,1.669,1.669,0,0,1-1.025,1.406,28.6,28.6,0,0,1-3.193,1.465q-1.641.645-2.4,1a3.455,3.455,0,0,0-1.172.82,4.418,4.418,0,0,0-.381,1.758q-.146,1.465-.146,2.344a.527.527,0,0,0,.176.469,1.379,1.379,0,0,0,.527.176Q308.848-1.289,308.848,2.7,308.848,3.75,307.207,3.75ZM274.16-1.406a1.48,1.48,0,0,1-1.26-.586,2.373,2.373,0,0,1-.439-1.465,2.011,2.011,0,0,1,.117-.82,1.326,1.326,0,0,1,.469-.469,1.432,1.432,0,0,0,.527-.645,10.364,10.364,0,0,0,.176-2.08q.059-1.787.059-2.783,0-1.289-.234-1.289a4.6,4.6,0,0,0-1.406.469,5.8,5.8,0,0,1-1.992.645q-1.289,0-1.289-1.7a2.925,2.925,0,0,1,1.23-2.021q1.23-1.084,3.281-2.549a3.681,3.681,0,0,0,.615-.381q.264-.205.439-.322a15.7,15.7,0,0,1,.117-1.582q.117-1.523.117-2.344a2.666,2.666,0,0,0-.088-.791,1.1,1.1,0,0,0-.381-.5,4.422,4.422,0,0,0-.82-.059,4.515,4.515,0,0,0-.791.059q-.322.059-.557.117a5.126,5.126,0,0,1-1.348.234q-2.812,0-2.812-1.406a1.391,1.391,0,0,1,.908-1.348,13.03,13.03,0,0,1,2.725-.762q.234-.059.938-.205a8.116,8.116,0,0,0,1.172-.322,1.963,1.963,0,0,0,.7-.41,1.611,1.611,0,0,0,.352-.82,5.847,5.847,0,0,0,.117-.7,5.855,5.855,0,0,1,.5-1.787,1.231,1.231,0,0,1,1.2-.615q.7,0,.7.527a2.433,2.433,0,0,1-.234.85,2.433,2.433,0,0,0-.234.85.955.955,0,0,0,.234.7,13.894,13.894,0,0,0,2.168-.176q1.406-.117,2.109-.117.234,0,.469.41a1.442,1.442,0,0,1,.234.645,1.8,1.8,0,0,1-.937,1.465,16.034,16.034,0,0,1-2.52,1.348q-.234.117-.791.381t-.615.439a2.5,2.5,0,0,0-.117.879,5.111,5.111,0,0,0,.352,2.432,1.581,1.581,0,0,0,1.113.615,2.614,2.614,0,0,1,.879.234,1.617,1.617,0,0,1,.645.762,1.56,1.56,0,0,1,.176.7,1.9,1.9,0,0,1-.439,1.2,11.377,11.377,0,0,1-.879,1l-.615.615q0,.41-.029,4.072a19.833,19.833,0,0,1-1.055,6.533Q276.094-1.406,274.16-1.406Zm20.684-25.137a5.414,5.414,0,0,0,1.26-.205.677.677,0,0,0,.439-.732q0-.352-.586-.352a1.553,1.553,0,0,0-.762.234,1.137,1.137,0,0,0-.527.527Zm.586,3.809a2.066,2.066,0,0,0,.645-.146q.41-.146.41-.322a.284.284,0,0,0-.205-.264.973.973,0,0,0-.381-.088,1.928,1.928,0,0,0-.586.117q-.352.117-.352.293a.361.361,0,0,0,.146.293A.5.5,0,0,0,295.43-22.734Zm42.539-13.359a2.08,2.08,0,0,1,.176-.967q.176-.322.762-.322.527,0,.879.82a3.69,3.69,0,0,1,.352,1.406,2.3,2.3,0,0,1-.059.5,2.3,2.3,0,0,0-.059.5.959.959,0,0,0,.293.7,3.717,3.717,0,0,0,1.992.293,15.24,15.24,0,0,1,3.6.527,1.7,1.7,0,0,1,1.318,1.758q0,.762-1.113,1.084a20.259,20.259,0,0,1-3.105.557q-.293.059-1.23.205a4.969,4.969,0,0,0-1.289.322,4.233,4.233,0,0,0-.527,1.992q-.293,1.465-.469,2.256a2.394,2.394,0,0,1-.586,1.2,2.781,2.781,0,0,1-.645.059l-.762-.059a35.946,35.946,0,0,0-.293-4.98,4.112,4.112,0,0,0-1.172-.117,8.746,8.746,0,0,0-2.93.234q-.117.059-.176,1.2a6.578,6.578,0,0,1-.352,1.934,1.139,1.139,0,0,1-1.172.791,1.435,1.435,0,0,1-1.055-.645,1.981,1.981,0,0,1-.527-1.23v-.732a3.873,3.873,0,0,0-.117-1,1.594,1.594,0,0,0-.41-.732,2.168,2.168,0,0,0-1.025-.41,16.013,16.013,0,0,0-1.846-.176,12.005,12.005,0,0,1-2.549-.381,1.1,1.1,0,0,1-.85-1.143,1.078,1.078,0,0,1,.527-.937,2.067,2.067,0,0,1,1.172-.352q1.289,0,1.934.059l1.875.059a5.31,5.31,0,0,0,.938-.059.849.849,0,0,0,.527-.469,6.048,6.048,0,0,0,.41-.879,8.266,8.266,0,0,1,1.055-1.816,1.924,1.924,0,0,1,1.582-.645,1.327,1.327,0,0,1,.732.146q.205.146.205.674a2,2,0,0,1-.381,1.143,1.767,1.767,0,0,0-.381.908.557.557,0,0,0,.234.469,21.429,21.429,0,0,0,2.725-.117,1.872,1.872,0,0,0,1.289-.82,4.316,4.316,0,0,0,.5-2.4ZM314.355-17.578l-.059-2.051q0-4.687,2.109-4.687a1.015,1.015,0,0,1,.7.264,5.163,5.163,0,0,1,.645.732,5.126,5.126,0,0,0,.557.586,1,1,0,0,0,.674.293,11.891,11.891,0,0,1,2.344.176,1.922,1.922,0,0,1,1.26.85,4.02,4.02,0,0,1,.439,2.139,7.281,7.281,0,0,1-.586,2.461,8.2,8.2,0,0,0-.586,2.344.983.983,0,0,0,.322.586,1.05,1.05,0,0,1,.322.7q0,.7-1.318,1.846a19.2,19.2,0,0,1-2.93,2.08,5.642,5.642,0,0,1-2.314.938q-1.641,0-1.641-4.395Zm6.211-1.113a.829.829,0,0,0-.937-.937q-1.816,0-1.816,2.227l-.059,4.629q0,.762.176.762.41,0,1.523-2.959A15.653,15.653,0,0,0,320.566-18.691Zm9.258,7.617q0-1.172-.059-1.816l-.059-1.758a7.227,7.227,0,0,1,.352-1.9A8.027,8.027,0,0,1,331-18.662a1.612,1.612,0,0,1,1.289-.908,2.007,2.007,0,0,1,.967.322,1.936,1.936,0,0,0,.85.322,10.264,10.264,0,0,0,2.227-.293,14.2,14.2,0,0,1,2.168-.234q3.691,0,5.039,1.553t1.348,5.3a21.713,21.713,0,0,1-.469,3.691,16.779,16.779,0,0,0-.527,3.75.593.593,0,0,0,.439.615,5.887,5.887,0,0,0,1.377.205,5.922,5.922,0,0,1,1.875.322,1.149,1.149,0,0,1,.645,1.2,1.009,1.009,0,0,1-.615,1.025A4.88,4.88,0,0,1,346-1.465a12.6,12.6,0,0,0-2.578.41q-1.348.352-1.641.41-1.172.293-2.4.557a11.194,11.194,0,0,1-2.344.264q-.762,0-2.168-.117-1.523-.117-2.227-.117a2.359,2.359,0,0,0-1.436.41,1.871,1.871,0,0,1-.732.41q-.82,0-.82-1.582,0-1.641.117-5.156ZM341.6-14.121a1.508,1.508,0,0,0-.586-1.113,1.766,1.766,0,0,0-1.172-.527q-.469,0-.469,1.289,0,1.523,1.172,1.523a.945.945,0,0,0,.732-.381A1.214,1.214,0,0,0,341.6-14.121Zm-8.379,3.457a2.424,2.424,0,0,0,2.168-1.055,4.543,4.543,0,0,0,.7-2.578q0-1-.469-1a2.07,2.07,0,0,0-2.109,1.025,7.169,7.169,0,0,0-.469,2.9A1.018,1.018,0,0,0,333.223-10.664Zm5.684,6.973a2.132,2.132,0,0,0,2.285-1.641,14.668,14.668,0,0,0,.469-3.984,1.73,1.73,0,0,0-.088-.469q-.088-.293-.264-.293-1.582,0-2.109,1.875a14.654,14.654,0,0,0-.527,3.984,1.524,1.524,0,0,0,.059.469Zm-5.977-3.4q-.41.176-.674,1.377a9.559,9.559,0,0,0-.264,1.963q0,.41.176.527a1.1,1.1,0,0,0,.586.117,9.5,9.5,0,0,0,2.4-.264,1.2,1.2,0,0,0,1-1.26,3.921,3.921,0,0,0-.293-1.523,9.378,9.378,0,0,0-.937-1.641Zm45.762-29a2.08,2.08,0,0,1,.176-.967q.176-.322.762-.322.527,0,.879.82a3.69,3.69,0,0,1,.352,1.406,2.3,2.3,0,0,1-.059.5,2.3,2.3,0,0,0-.059.5.959.959,0,0,0,.293.7,3.717,3.717,0,0,0,1.992.293,15.24,15.24,0,0,1,3.6.527,1.7,1.7,0,0,1,1.318,1.758q0,.762-1.113,1.084a20.259,20.259,0,0,1-3.105.557q-.293.059-1.23.205a4.969,4.969,0,0,0-1.289.322,4.233,4.233,0,0,0-.527,1.992q-.293,1.465-.469,2.256a2.394,2.394,0,0,1-.586,1.2,2.781,2.781,0,0,1-.645.059l-.762-.059a35.946,35.946,0,0,0-.293-4.98,4.112,4.112,0,0,0-1.172-.117,8.746,8.746,0,0,0-2.93.234q-.117.059-.176,1.2a6.578,6.578,0,0,1-.352,1.934,1.139,1.139,0,0,1-1.172.791,1.435,1.435,0,0,1-1.055-.645,1.981,1.981,0,0,1-.527-1.23v-.732a3.873,3.873,0,0,0-.117-1,1.594,1.594,0,0,0-.41-.732,2.168,2.168,0,0,0-1.025-.41,16.013,16.013,0,0,0-1.846-.176A12.005,12.005,0,0,1,364.6-29.5a1.1,1.1,0,0,1-.85-1.143,1.078,1.078,0,0,1,.527-.937,2.067,2.067,0,0,1,1.172-.352q1.289,0,1.934.059l1.875.059a5.31,5.31,0,0,0,.938-.059.849.849,0,0,0,.527-.469,6.048,6.048,0,0,0,.41-.879,8.266,8.266,0,0,1,1.055-1.816,1.924,1.924,0,0,1,1.582-.645,1.327,1.327,0,0,1,.732.146q.205.146.205.674a2,2,0,0,1-.381,1.143,1.767,1.767,0,0,0-.381.908.557.557,0,0,0,.234.469,21.429,21.429,0,0,0,2.725-.117,1.872,1.872,0,0,0,1.289-.82,4.316,4.316,0,0,0,.5-2.4ZM355.078-17.578l-.059-2.051q0-4.687,2.109-4.687a1.015,1.015,0,0,1,.7.264,5.163,5.163,0,0,1,.645.732,5.126,5.126,0,0,0,.557.586,1,1,0,0,0,.674.293,11.891,11.891,0,0,1,2.344.176,1.922,1.922,0,0,1,1.26.85,4.02,4.02,0,0,1,.439,2.139,7.281,7.281,0,0,1-.586,2.461,8.2,8.2,0,0,0-.586,2.344.983.983,0,0,0,.322.586,1.05,1.05,0,0,1,.322.7q0,.7-1.318,1.846a19.2,19.2,0,0,1-2.93,2.08,5.642,5.642,0,0,1-2.314.938q-1.641,0-1.641-4.395Zm6.211-1.113a.829.829,0,0,0-.937-.937q-1.816,0-1.816,2.227l-.059,4.629q0,.762.176.762.41,0,1.523-2.959A15.653,15.653,0,0,0,361.289-18.691Zm9.258,7.617q0-1.172-.059-1.816l-.059-1.758a7.227,7.227,0,0,1,.352-1.9,8.027,8.027,0,0,1,.938-2.109,1.612,1.612,0,0,1,1.289-.908,2.007,2.007,0,0,1,.967.322,1.936,1.936,0,0,0,.85.322,10.264,10.264,0,0,0,2.227-.293,14.2,14.2,0,0,1,2.168-.234q3.691,0,5.039,1.553t1.348,5.3a21.713,21.713,0,0,1-.469,3.691,16.779,16.779,0,0,0-.527,3.75.593.593,0,0,0,.439.615,5.887,5.887,0,0,0,1.377.205,5.922,5.922,0,0,1,1.875.322,1.149,1.149,0,0,1,.645,1.2,1.009,1.009,0,0,1-.615,1.025,4.88,4.88,0,0,1-1.611.322,12.6,12.6,0,0,0-2.578.41q-1.348.352-1.641.41-1.172.293-2.4.557a11.194,11.194,0,0,1-2.344.264q-.762,0-2.168-.117-1.523-.117-2.227-.117a2.359,2.359,0,0,0-1.436.41,1.871,1.871,0,0,1-.732.41q-.82,0-.82-1.582,0-1.641.117-5.156Zm11.777-3.047a1.508,1.508,0,0,0-.586-1.113,1.766,1.766,0,0,0-1.172-.527q-.469,0-.469,1.289,0,1.523,1.172,1.523A.945.945,0,0,0,382-13.33,1.214,1.214,0,0,0,382.324-14.121Zm-8.379,3.457a2.424,2.424,0,0,0,2.168-1.055,4.543,4.543,0,0,0,.7-2.578q0-1-.469-1a2.07,2.07,0,0,0-2.109,1.025,7.169,7.169,0,0,0-.469,2.9A1.018,1.018,0,0,0,373.945-10.664Zm5.684,6.973a2.132,2.132,0,0,0,2.285-1.641,14.668,14.668,0,0,0,.469-3.984,1.73,1.73,0,0,0-.088-.469q-.088-.293-.264-.293-1.582,0-2.109,1.875a14.654,14.654,0,0,0-.527,3.984,1.524,1.524,0,0,0,.059.469Zm-5.977-3.4q-.41.176-.674,1.377a9.559,9.559,0,0,0-.264,1.963q0,.41.176.527a1.1,1.1,0,0,0,.586.117,9.5,9.5,0,0,0,2.4-.264,1.2,1.2,0,0,0,1-1.26,3.921,3.921,0,0,0-.293-1.523,9.378,9.378,0,0,0-.937-1.641Zm52.266-20.977q.117-.41.293-1.436a7.025,7.025,0,0,1,.5-1.729,1,1,0,0,1,.908-.7.909.909,0,0,1,.645.176,5.711,5.711,0,0,1,.146,1.113,3.059,3.059,0,0,0,.205,1.055l.059-.059q.41-.117,1.172-.322a5.109,5.109,0,0,1,1.289-.205q1.465,0,1.465,1.113a1.87,1.87,0,0,1-.557,1.377,12.111,12.111,0,0,1-1.67,1.318,10.248,10.248,0,0,0-1.113.762.887.887,0,0,0-.352.7,6.594,6.594,0,0,0,.527,2.344,4.24,4.24,0,0,0,.176.615,3.791,3.791,0,0,1,.176.674,46.281,46.281,0,0,1,.908,6.826q.205,3.486.205,8.291a11.922,11.922,0,0,1-.967,4.688A3.225,3.225,0,0,1,426.855.82a2.439,2.439,0,0,1-1.729-.879,2.566,2.566,0,0,1-.85-1.758,1.139,1.139,0,0,1,.234-.586q.176-.059,1.406-.293a1.627,1.627,0,0,0,.732-.264,1.159,1.159,0,0,0,.146-.732L426.738-5.8q0-8.789-.352-9.082a6.225,6.225,0,0,0-2.344-.527,13.54,13.54,0,0,1-3.193-.674,1.572,1.572,0,0,1-1.143-1.553.619.619,0,0,1,.293-.615,1.868,1.868,0,0,1,.82-.146q.352,0,1.172.059t2.109.059q1.992,0,2.109-.293a2.08,2.08,0,0,0,.117-.762v-.586q0-3.867-1-3.867a2,2,0,0,0-.879.352,3.715,3.715,0,0,1-1.494.293q-1.084.059-1.846.059a12.216,12.216,0,0,1-2.549-.205,1.168,1.168,0,0,1-.908-1.318,1.871,1.871,0,0,1,.381-1.113A1.15,1.15,0,0,1,419-26.25a1.547,1.547,0,0,1,.527.146,1.547,1.547,0,0,0,.527.146,10.377,10.377,0,0,0,3.135-.7A7.571,7.571,0,0,0,425.918-28.066ZM396.5-24.023q0-1,1.318-1.494a21.058,21.058,0,0,1,3.779-.908q1.523-.234,2.373-.439a2.137,2.137,0,0,0,1.143-.557,6.207,6.207,0,0,0,.527-1.406,8.054,8.054,0,0,1,.469-1.494.751.751,0,0,1,.7-.5q.762,0,.762,1.055l-.059,1.113q0,.469.322.586a3,3,0,0,0,.967.117,2.89,2.89,0,0,1,1.2.205.9.9,0,0,1,.439.908,1.14,1.14,0,0,1-.439.938,5.911,5.911,0,0,1-1.2.7,3.754,3.754,0,0,0-.732.41.628.628,0,0,0-.322.469,10.253,10.253,0,0,0,.234,2.109q.234,1.113.293,1.406.176.645.41,1.934a1.249,1.249,0,0,0,.645.117,9.543,9.543,0,0,0,1.055-.059,9.543,9.543,0,0,1,1.055-.059,2.649,2.649,0,0,1,1.436.322,1.256,1.256,0,0,1,.5,1.143,1.688,1.688,0,0,1-.85,1.729,6.759,6.759,0,0,1-2.432.439l-1.23.117-.059,1.934a61.243,61.243,0,0,1-.645,8.936q-.586,3.6-2.637,3.6-1,0-1.289-2.109a31.056,31.056,0,0,1-.293-4.277V-9.785q0-3.926-.234-4.16a2.195,2.195,0,0,0-.645.732,3.885,3.885,0,0,1-.41.615,7.687,7.687,0,0,1-.879,1.2,1.252,1.252,0,0,1-.937.439,1.29,1.29,0,0,1-.937-.41,1.29,1.29,0,0,1-.41-.937,7.747,7.747,0,0,1,1.025-3.4q1.025-1.992,2.725-4.687.176-.293.762-1.289a4.092,4.092,0,0,0,.586-1.23.63.63,0,0,0-.117-.352.394.394,0,0,0-.352-.176,1.3,1.3,0,0,0-.41.059,2.273,2.273,0,0,0-.293.117,18.883,18.883,0,0,1-5.039.527A2.975,2.975,0,0,1,397-23,1.051,1.051,0,0,1,396.5-24.023ZM499.16-18.809a3.178,3.178,0,0,1-1.025,2.637,6.1,6.1,0,0,1-2.9,1.113,48.983,48.983,0,0,1-5.156.557q-2.637.146-6.152.146h-4.512a29.5,29.5,0,0,1-6.475-.7q-3.135-.7-3.135-2.871a1.8,1.8,0,0,1,.762-1.348q.645-.586,5.889-1.143t11.4-.937q6.152-.381,8.2-.381a3.66,3.66,0,0,1,2.4.615A3,3,0,0,1,499.16-18.809ZM550.254,2.4a1.753,1.753,0,0,1-.557,1.377,2.072,2.072,0,0,1-1.436.5q-.937,0-6.006-2.021T536.133-.176q-2.285-1-2.7-1.113A146.138,146.138,0,0,1,517.09-8.965a9.37,9.37,0,0,1-1.055-.586,2.991,2.991,0,0,0-1.348-.527q-.293,0-.7.615t-1.23,2.021a31.229,31.229,0,0,1-2.314,3.574,2.626,2.626,0,0,1-1.963,1.23.935.935,0,0,1-.85-.41,1.8,1.8,0,0,1-.264-1q0-.879,1.787-4.16a66.968,66.968,0,0,1,3.779-6.152q1.992-2.871,2.7-2.871a1.72,1.72,0,0,1,.938.469q.586.469.586.82a2.579,2.579,0,0,1-.586,1.406,2.254,2.254,0,0,0-.469,1.113,1.006,1.006,0,0,0,.322.645.884.884,0,0,0,.615.352q.469,0,.645-1.377t.176-1.436a10.315,10.315,0,0,1,.176-1.26q.117-.557.176-.967t.234-1.611a15.623,15.623,0,0,0,.176-2.256q0-.41-.176-.41a3.58,3.58,0,0,0-1.523.82,6.311,6.311,0,0,1-2.754,1.289,2.057,2.057,0,0,1-.967-.381q-.615-.381-.615-.732a1.715,1.715,0,0,1,.615-1.143q.615-.615,1.318-1.2t.938-.762a10.994,10.994,0,0,0,1.582-1.289,7.273,7.273,0,0,0,.293-1.934q0-1.289-.7-1.289a4.1,4.1,0,0,0-1,.176,4.1,4.1,0,0,1-1,.176q-1.465,0-1.465-1.406a1.12,1.12,0,0,1,.5-1.055,4.56,4.56,0,0,1,1.436-.469,5.192,5.192,0,0,0,.674-.117,1.653,1.653,0,0,0,.85-.41,3.03,3.03,0,0,0,.469-1.7,7.452,7.452,0,0,1,.5-2.051,1.2,1.2,0,0,1,1.2-.7,1.075,1.075,0,0,1,.791.322,1.075,1.075,0,0,1,.322.791v.7a1.816,1.816,0,0,0,.117.762l.234.059a2.6,2.6,0,0,0,.762-.264,2.61,2.61,0,0,1,1.055-.264,1.8,1.8,0,0,1,1,.205q.293.205.293.908a1.347,1.347,0,0,1-.352,1,5.931,5.931,0,0,1-1,.762,6.831,6.831,0,0,0-1.318,1.084,2.3,2.3,0,0,0-.439,1.553q0,.645.41.645a2.278,2.278,0,0,0,1.172-.469,3.171,3.171,0,0,1,1.172-.41q1.582,0,1.582,1.348,0,.82-1.318,1.963t-1.494,1.318l-.059,4.277a.909.909,0,0,0,.176.645l1.055-1a7.583,7.583,0,0,1,1.318-1.172,2.427,2.427,0,0,1,1.377-.41,1.183,1.183,0,0,1,1.025.557,2.179,2.179,0,0,1,.381,1.26q0,.938-1.934,2.7a42.724,42.724,0,0,1-3.633,2.988l-.059,1.465a12.589,12.589,0,0,0-.117,1.465,3.292,3.292,0,0,0,.059.645,1.021,1.021,0,0,0,.293.527,10.252,10.252,0,0,0,2.813.938L526-8.555q2.285.82,6.738,2.7.527.234,1.963.7t2.373.762q5.742,1.875,9.053,3.135T549.961.879A2.989,2.989,0,0,1,550.254,2.4ZM540.7-9.141a14.064,14.064,0,0,1-7.646-1.816q-2.842-1.816-2.842-6.387a17.38,17.38,0,0,1,.176-2.461,45.472,45.472,0,0,1,1.377-4.453,15.44,15.44,0,0,1,1.611-3.867A5.293,5.293,0,0,1,535.4-29.18a8.079,8.079,0,0,1,2.373-.41,3.111,3.111,0,0,1,2.2.732,2.772,2.772,0,0,1,.791,2.139,4.967,4.967,0,0,1-1.172,3.428,18.537,18.537,0,0,1-3.164,2.725,16.406,16.406,0,0,0-1.582,1.26,1.427,1.427,0,0,0-.527,1.025,4.052,4.052,0,0,0,.85,2.842A3.768,3.768,0,0,0,537.3-14.3a19.75,19.75,0,0,0,3.4.234,30.2,30.2,0,0,0,5.947-.5,8.431,8.431,0,0,0,4.248-2.256q1.465-1.465,1.758-1.465A1.571,1.571,0,0,1,554-17.49a2.876,2.876,0,0,1,.527,1.611,1.924,1.924,0,0,1-.381,1.084,10.913,10.913,0,0,1-.791,1.025,7.9,7.9,0,0,0-.527.645q-1.523,1.7-5.42,2.842A24.432,24.432,0,0,1,540.7-9.141ZM535.2-24.375a4.632,4.632,0,0,0,1.523-.264.947.947,0,0,0,.762-.908,1.229,1.229,0,0,0-.117-.5q-.117-.264-.293-.264a6.788,6.788,0,0,0-1.172.908A2.3,2.3,0,0,0,535.2-24.375Zm39.023-10.371a1.47,1.47,0,0,1,1.348-1.523q.527-.117,1.348-.234a3.685,3.685,0,0,0,1.436-.5,9.023,9.023,0,0,0,1.318-1.025,10.5,10.5,0,0,1,2.139-1.436,6.288,6.288,0,0,1,2.725-.5,3.108,3.108,0,0,1,.908.117.54.54,0,0,1,.381.586q0,.234-.645.645a6.487,6.487,0,0,0-.762.527,20.4,20.4,0,0,0-2.051,1.582,2.055,2.055,0,0,0-.762,1.23,13.717,13.717,0,0,1,1.611,2.549,5.848,5.848,0,0,1,.674,2.549,1.711,1.711,0,0,1-.439,1.025,14.222,14.222,0,0,1-1.377,1.436,15.558,15.558,0,0,0-1.816,1.992,2.962,2.962,0,0,0-.645,1.758q0,.293,1.436,1.377a5.289,5.289,0,0,0,1.787,1.084,30.829,30.829,0,0,0,3.193-.381,11.6,11.6,0,0,0,2.725-.557,2.774,2.774,0,0,0,.674-1.465q.322-1.23.5-2.168-.117-.352-.645-.352a3.205,3.205,0,0,0-.7.117,3.205,3.205,0,0,1-.7.117,4.075,4.075,0,0,1-1.377-.264q-.732-.264-.732-.791v-.469a1.466,1.466,0,0,1,.938-.674,14.678,14.678,0,0,1,1.992-.5q.762-.176,1.377-.352t.615-.41a1.229,1.229,0,0,0-.176-.645.53.53,0,0,0-.469-.293,4.943,4.943,0,0,0-2.2.7,10.075,10.075,0,0,1-1.436.7.917.917,0,0,1-.762-.381,1.36,1.36,0,0,1-.293-.85,2.4,2.4,0,0,1,1.26-2.051,4.63,4.63,0,0,1,2.549-.82q1.113,0,1.113-.41a4.413,4.413,0,0,0-.469-1.582,4.413,4.413,0,0,1-.469-1.582,1.346,1.346,0,0,1,.234-.762.689.689,0,0,1,.586-.352q2.109,0,2.813,2.988a26.771,26.771,0,0,1,.7,6.152,16.112,16.112,0,0,1-.762,4.219q-.469,1.934-.527,2.227a4.327,4.327,0,0,0,1.816.7q1.348.293,1.7.41a2.965,2.965,0,0,1,1.553,1.377,3.885,3.885,0,0,1,.732,2.021q0,3.047-3.574,4.746a4.947,4.947,0,0,1-1.934.645q-.82,0-.82-.879a.976.976,0,0,1,.352-.645q.352-.352.762-.7a12.023,12.023,0,0,0,1.2-1.143,1.6,1.6,0,0,0,.381-1.084q0-.586-1.143-.937a6.728,6.728,0,0,0-1.9-.352,2.723,2.723,0,0,0-1.494.527,2.566,2.566,0,0,1-1.143.527,1.7,1.7,0,0,1-.908-.41,1.7,1.7,0,0,0-.85-.41,57.571,57.571,0,0,0-12.891,1.436,23.643,23.643,0,0,0-10.254,4.834l-1.348,1.348q-1.113,1.113-1.7,1.113a1.269,1.269,0,0,1-.762-.322.886.886,0,0,1-.41-.674q0-.527,3.75-4.687l1.172-1.348a5.024,5.024,0,0,1-.937-3.223,39.765,39.765,0,0,1,.7-7.207,14.725,14.725,0,0,1,2.168-5.859q.059-.059.469-.586t.762-.527q.586,0,.586.645a3.72,3.72,0,0,1-.234,1.055,3.769,3.769,0,0,0-.234,1.113l.059.879a5.409,5.409,0,0,0,.762-.059,6.223,6.223,0,0,1,.879-.059q1.523,0,1.523,1.23a.657.657,0,0,1-.439.615,6.167,6.167,0,0,1-1.26.381,6.167,6.167,0,0,0-1.26.381.657.657,0,0,0-.439.615q0,.41.293.41a9.452,9.452,0,0,1,3.633-1.23,9.242,9.242,0,0,1,2.52.7,11.49,11.49,0,0,0,1.582.469q.293,0,1.758-1.465a13.808,13.808,0,0,0,1.025-.967,4.189,4.189,0,0,1,1.26-.967,1.177,1.177,0,0,0,.7-.527,4.155,4.155,0,0,0-.674-1.055q-.557-.7-.85-.7-.176,0-.908.7a10.876,10.876,0,0,1-1.377,1.143,2.445,2.445,0,0,1-1.406.439.918.918,0,0,1-.82-.469,1.949,1.949,0,0,1-.293-1.055,2.137,2.137,0,0,1,.381-1.172q.381-.586.5-.82a3.631,3.631,0,0,1-.674-.615A1.065,1.065,0,0,1,574.219-34.746Zm-13.125,2.461a4.428,4.428,0,0,1,1.055-2.432,11.025,11.025,0,0,1,2.49-2.461A4.5,4.5,0,0,1,567.07-38.2a1.864,1.864,0,0,1,1.23.439,1.417,1.417,0,0,1,.527,1.143,1.8,1.8,0,0,1-.7,1.289,16.382,16.382,0,0,1-2.051,1.523,16.618,16.618,0,0,0-1.846,1.377,1.533,1.533,0,0,0-.615,1.084,1.551,1.551,0,0,1-.234.879.789.789,0,0,1-.7.352,1.332,1.332,0,0,1-1.113-.732A2.659,2.659,0,0,1,561.094-32.285Zm13.828,8.145a2.394,2.394,0,0,0-.586-.967,2.951,2.951,0,0,0-.879-.85,3.508,3.508,0,0,0-.937.645,9.493,9.493,0,0,1-2.109,1.025q-1.582.615-2.7.967a9.989,9.989,0,0,0-.352,1.729q-.234,1.494-.293,1.9h.352a6.023,6.023,0,0,0,.732-.264,2.309,2.309,0,0,1,.85-.205q.7,0,.7.879a1.782,1.782,0,0,1-.322.967,1.709,1.709,0,0,0-.322.674l.117.176q4.336-1.641,4.922-2.227a5.332,5.332,0,0,0,.176-1.582,4.634,4.634,0,0,1,.293-1.934A2,2,0,0,0,574.922-24.141Zm3.633,3.105a.394.394,0,0,0-.176-.352.63.63,0,0,0-.352-.117q-.469,0-.469.352a.472.472,0,0,0,.176.381.621.621,0,0,0,.41.146.282.282,0,0,0,.264-.176A.986.986,0,0,1,578.555-21.035Zm-2.344,6.973a2.1,2.1,0,0,1,.527-1.348,1.51,1.51,0,0,1,1.172-.645,3.012,3.012,0,0,1,2.227,1.406,4.305,4.305,0,0,1,1.113,2.578,5.16,5.16,0,0,1-.352,1.816q-.352.938-.41,1.172a7.957,7.957,0,0,0-.82,2.871,11.339,11.339,0,0,0,2.432-.176q1.436-.234,2.842-.527a28.982,28.982,0,0,1,5.566-.82,14.135,14.135,0,0,1,4.248.615,2.391,2.391,0,0,1,1.963,2.373,1.927,1.927,0,0,1-.5,1.2,1.405,1.405,0,0,1-1.084.615,19.649,19.649,0,0,1-2.168-.293,10.264,10.264,0,0,0-2.227-.293,35.986,35.986,0,0,0-5.215.469,15.32,15.32,0,0,0-4.453,1.172,15.992,15.992,0,0,1-.41,4.629,16.506,16.506,0,0,1-2.109,3.633q-1.465,1.992-2.637,1.992a2.114,2.114,0,0,1-1.143-.352,1.067,1.067,0,0,1-.557-.937,5.578,5.578,0,0,1,.879-1.875,25.1,25.1,0,0,0,1.553-3.047,7.3,7.3,0,0,0,.557-2.812h-.7l-.117.059q-1.875.469-2.871.645-2.168.469-3.545.879a18.652,18.652,0,0,0-2.725,1.055,2.282,2.282,0,0,1-.82.293.634.634,0,0,1-.469-.176l-.117-.293q0-1.113,1.553-2.109a40.2,40.2,0,0,1,4.424-2.344A15.706,15.706,0,0,0,575.742-4.8a2.806,2.806,0,0,0-.322-.674,2.458,2.458,0,0,1-.322-.732,19.7,19.7,0,0,0,1.846-2.578,4.889,4.889,0,0,0,.85-2.4,1.649,1.649,0,0,0-.205-.967,1.591,1.591,0,0,0-.557-.439,1.514,1.514,0,0,1-.615-.439A1.787,1.787,0,0,1,576.211-14.062Zm51.855-20.332a4.08,4.08,0,0,1,1.2-2.7,9.467,9.467,0,0,1,2.93-2.2,7.046,7.046,0,0,1,3.018-.85,2.889,2.889,0,0,1,1.406.352,3.366,3.366,0,0,1,1.113,1q.82,1.23.82,12.6a38.994,38.994,0,0,1-.322,5.01q-.322,2.49-1.436,2.49a1.751,1.751,0,0,1-1.23-.732,2.156,2.156,0,0,1-.645-1.377,4.19,4.19,0,0,1,.088-.879,4.19,4.19,0,0,0,.088-.879,13.548,13.548,0,0,0-.176-2.578,6.014,6.014,0,0,0-2.139.41q-1.084.41-1.26.469-1.113.469-1.875.7a5.349,5.349,0,0,1-1.582.234,2.029,2.029,0,0,1-1.084-.352,1.025,1.025,0,0,1-.557-.879q0-.7,1.582-1.465a20.318,20.318,0,0,1,3.545-1.289,12.635,12.635,0,0,1,2.725-.527l1,.059a18.062,18.062,0,0,0,.293-3.4V-33.4q0-3.047-1-3.047a4.975,4.975,0,0,0-2.2.938,4.166,4.166,0,0,0-1.729,1.582l-.176.527a1.159,1.159,0,0,1-.322.527.925.925,0,0,1-.615.176,1.278,1.278,0,0,1-1.055-.527A1.863,1.863,0,0,1,628.066-34.395Zm-11.777-3.047a2.93,2.93,0,0,1,2.373.938,3.78,3.78,0,0,1,.791,2.52q0,2.754.293,6.27.234,4.219.234,6.27a13.458,13.458,0,0,1-.967,4.893q-.967,2.49-2.959,2.49a3.339,3.339,0,0,1-2.109-.791,2.363,2.363,0,0,1-1-1.9q0-1.875.938-1.875a.906.906,0,0,1,.41.088.906.906,0,0,0,.41.088,121.361,121.361,0,0,0,.762-13.008,5.121,5.121,0,0,0-.117-1.289,1.871,1.871,0,0,0-1.2.352,5.873,5.873,0,0,0-.967,1.055,5.086,5.086,0,0,1-.937,1.084,1.755,1.755,0,0,1-1.113.322,3.7,3.7,0,0,1-1.992-.586,1.79,1.79,0,0,1-.937-1.582q0-1,1.553-2.227A17.748,17.748,0,0,1,613.33-36.5,8.2,8.2,0,0,1,616.289-37.441Zm10.137,8.262a1.705,1.705,0,0,1,1.113-1.465,10.3,10.3,0,0,1,2.549-.908,11.111,11.111,0,0,1,2.314-.322q2.109,0,2.109.82,0,.879-1.465,1.348a8.751,8.751,0,0,1-2.637.469,1.31,1.31,0,0,0-.732.176,5.468,5.468,0,0,0-.732.645,2.539,2.539,0,0,1-.527.5,1.1,1.1,0,0,1-.645.205,1.235,1.235,0,0,1-.908-.5A1.489,1.489,0,0,1,626.426-29.18ZM606.8-25.664q0-1.172,2.051-1.172h.82q4.512,0,4.512,1.406,0,.82-3.984.82-.176,0-1.084.029a4.18,4.18,0,0,1-1.611-.234A.9.9,0,0,1,606.8-25.664Zm-1.406,7.5q0-.586,1.318-1.816a19.336,19.336,0,0,1,2.9-2.227,5.348,5.348,0,0,1,2.227-1,1.4,1.4,0,0,1,.732.234.682.682,0,0,1,.381.586,1.24,1.24,0,0,1-.557.967,20.767,20.767,0,0,1-1.787,1.2q-1.172.762-1.787,1.23a2.157,2.157,0,0,0-.791,1,2.98,2.98,0,0,1-.469.85.973.973,0,0,1-.762.264,1.536,1.536,0,0,1-1.025-.322A1.2,1.2,0,0,1,605.391-18.164ZM611.25-4.57q0-.7,6.182-6.3t8.291-7.236a6.28,6.28,0,0,1,.791-.557,1.743,1.743,0,0,1,.908-.264,4.936,4.936,0,0,1,.879.117,1.288,1.288,0,0,1,.176.762q0,.7-3.633,4.336T617.256-6.8q-3.955,3.281-4.834,3.281a1.3,1.3,0,0,1-.85-.264A.962.962,0,0,1,611.25-4.57Zm15.527-5.684a10.646,10.646,0,0,1,3.457-.937,3.653,3.653,0,0,1,3.223,1.523,6.429,6.429,0,0,1,1.055,3.75,6.314,6.314,0,0,1-.176,1.67,7.052,7.052,0,0,1-.586,1.377L633.164-1.7a1.022,1.022,0,0,0,.732.527q.439.059.5.059a1.513,1.513,0,0,1,.879.322,1.8,1.8,0,0,1,.293,1.26,2.326,2.326,0,0,1-.234,1.055q-.469.938-3.955,1.523a35.5,35.5,0,0,1-5.6.586A6.225,6.225,0,0,1,621.27,2.2,6.04,6.04,0,0,1,619.8-2.285a10.968,10.968,0,0,1,.7-3.252,13.744,13.744,0,0,1,1.816-3.633,3.03,3.03,0,0,1,2.344-1.553.909.909,0,0,1,.645.176l.117.762Zm3.281,3.574q0-.527-.645-.762a17.262,17.262,0,0,0-3.311.82q-1.9.645-1.9,1.523a.247.247,0,0,0,.146.205.525.525,0,0,0,.264.088,3.533,3.533,0,0,0,1.7-.527q.117-.059.7-.293a3.135,3.135,0,0,1,1.172-.234,4.563,4.563,0,0,0,1.26-.176Q630.059-6.211,630.059-6.68ZM628.77-2.4a.236.236,0,0,0-.117-.234.652.652,0,0,0-.293-.059,7.369,7.369,0,0,0-2.432.439q-1.26.439-1.26,1.377,0,.469.82.469a4.724,4.724,0,0,0,2.08-.615Q628.77-1.641,628.77-2.4ZM662.7-27.715a4.633,4.633,0,0,1,2.314-3.838,16.96,16.96,0,0,1,5.449-2.432,21.582,21.582,0,0,1,5.3-.82A4.1,4.1,0,0,1,679.8-32.08a15.2,15.2,0,0,1,1.172,6.064,4.3,4.3,0,0,1-1.611,3.34,23,23,0,0,1-4.072,2.754l-1.934,1.055q-5.918,3.4-6.445,3.4-.645,0-.645-.82.059-.176,1.9-2.93a12.268,12.268,0,0,0,1.846-6.973q0-2.227-.879-2.227a2.436,2.436,0,0,0-1.055.41,4.758,4.758,0,0,0-2.2,2.314,10.5,10.5,0,0,0-.5,3.6q0,2.52.527,7.559a33.52,33.52,0,0,0,1.113,6.621,6.632,6.632,0,0,0,1.729,2.7,4.613,4.613,0,0,0,2.314,1.084,23.534,23.534,0,0,0,3.516.205,26,26,0,0,0,8.5-1.348,14.515,14.515,0,0,0,6.5-4.395,6.885,6.885,0,0,0,1.494-2.7,12.884,12.884,0,0,0,.381-3.34,7.444,7.444,0,0,0-.059-.85,9.883,9.883,0,0,1-.059-1.143q0-2.344,1.406-2.344,1.348,0,1.875,1.729a12.081,12.081,0,0,1,.527,3.545,13.069,13.069,0,0,1-1.055,4.8,14.181,14.181,0,0,1-7,7.646A24.747,24.747,0,0,1,676.055.059a26.416,26.416,0,0,1-7.412-.908,6.765,6.765,0,0,1-4.424-3.9A23.852,23.852,0,0,1,662.7-10.9a52.8,52.8,0,0,1-.527-7.09,41.55,41.55,0,0,1,.7-6.973,7.032,7.032,0,0,0,.117-1,4.007,4.007,0,0,0-.146-.879A4.007,4.007,0,0,1,662.7-27.715Zm13.418.293a5.483,5.483,0,0,0-.322-1.846q-.322-.908-1.025-.908-1.465,0-1.934,1.875a16.635,16.635,0,0,0-.469,4.043v1.172a8.874,8.874,0,0,0,1.172-.879q.234-.176.527-.41a8.2,8.2,0,0,1,.762-.527A2.617,2.617,0,0,0,676.113-27.422ZM647.7-10.254a1.928,1.928,0,0,0-.117-.586,24.743,24.743,0,0,1-.41-5.742q0-6.855,2.051-6.855a1.244,1.244,0,0,1,.762.264,5.182,5.182,0,0,1,.762.732l.439.439a1.121,1.121,0,0,0,.791.381q.117,0,1.348-.176a5.555,5.555,0,0,1,1.348-.176,2.141,2.141,0,0,1,2.285,1.7,15.859,15.859,0,0,1,.469,4.16q1.406.7,1.406,1.582a1.89,1.89,0,0,1-.7,1.523,11.876,11.876,0,0,1-2.051,1.289q-.176.059-2.285,1.406-3.984,2.578-4.746,2.578a1.747,1.747,0,0,1-1.084-.381,1.169,1.169,0,0,1-.5-.967,2.208,2.208,0,0,1,.117-.615A2.156,2.156,0,0,0,647.7-10.254Zm7.09-6.973q0-1.992-1.641-1.992a3.623,3.623,0,0,1-.937.293,2.448,2.448,0,0,0-1.406,2.461l.059,1.7q0,1.523.41,1.523a3.167,3.167,0,0,0,2.373-1.377A4.184,4.184,0,0,0,654.785-17.227Zm48.867-4.922q0-.82.117-2.578l.059-2.52v-3.516l-.059-2.285a10.6,10.6,0,0,1,.791-4.482q.791-1.67,3.252-1.67a3.558,3.558,0,0,1,3.223,1.348,6.955,6.955,0,0,1,.879,3.809,13.282,13.282,0,0,1-.469,3.926L711.094-29q-3.105,10.488-3.867,11.074a1.478,1.478,0,0,1-1,.352,1.99,1.99,0,0,1-2.139-1.26A10.279,10.279,0,0,1,703.652-22.148Zm-1.289,16.23a11.667,11.667,0,0,1,.469-3.662,2.122,2.122,0,0,1,2.285-1.377A2.1,2.1,0,0,1,707.08-9.9a4.915,4.915,0,0,1,.615,2.52,7.742,7.742,0,0,1-.732,3.4,2.464,2.464,0,0,1-2.373,1.523A1.772,1.772,0,0,1,702.8-3.4,6.013,6.013,0,0,1,702.363-5.918Z" transform="translate(672 382)" fill="#2f454f"/>
    <g id="Group_48" data-name="Group 48">
      <g id="Group_343" data-name="Group 343">
        <g id="Group_347" data-name="Group 347">
          <path id="Path_2335" data-name="Path 2335" d="M63.375-144.219A6.962,6.962,0,0,1,64.9-148.18a4.221,4.221,0,0,1,3.352-2.133q3.656,0,4.875,2.539a24.552,24.552,0,0,1,1.828,7.211,24.328,24.328,0,0,0,.914,4.672,1.913,1.913,0,0,0,1.93,1.422,14.5,14.5,0,0,0,3.656-.711,14.705,14.705,0,0,1,3.859-.711,6.6,6.6,0,0,1,3.352,1.016,3.009,3.009,0,0,1,1.727,2.641,4.9,4.9,0,0,1-1.727,3.352,31.714,31.714,0,0,1-4.773,3.758,31.651,31.651,0,0,0-4.367,3.25A4,4,0,0,0,78-119.031q0,10.766-2.844,16.859l-1.828,3.656a10.967,10.967,0,0,0-1.422,4.469v.406a27.064,27.064,0,0,0,4.469.813A22.427,22.427,0,0,1,83.484-91.3q2.438,1.117,2.438,4.57a4.553,4.553,0,0,1-2.031,3.758,37.02,37.02,0,0,1-6.5,3.555,42.934,42.934,0,0,0-10.664,6.3q-3.758,3.25-3.758,9.547,0,1.828,1.625,1.828a2.139,2.139,0,0,0,1.828-.812q7.719-4.875,10.156-4.875a3.421,3.421,0,0,1,2.641,1.523,4.774,4.774,0,0,1,1.219,2.945A6.811,6.811,0,0,1,78.1-58.2a48.579,48.579,0,0,1-6.4,5.18,30.576,30.576,0,0,0-4.469,3.453l-.2.813a7.126,7.126,0,0,0,.813,2.031,7.211,7.211,0,0,1,.813,3.25,19.33,19.33,0,0,1-1.219,5.281,11.9,11.9,0,0,0-1.422,5.281,9.65,9.65,0,0,0,.813,3.758,4.438,4.438,0,0,0,2.234,2.539,39.526,39.526,0,0,1,9.953,1.117q4.266,1.117,4.266,4.977Q83.281-13,75.969-13q-1.625,0-3.859-.2a18.269,18.269,0,0,0-3.859,0q-.2,3.859-.2,11.375,0,.813.1,8.836A50.752,50.752,0,0,1,66.32,21.734q-1.93,6.7-5.789,6.7-4.672,0-6.2-8.227A110.163,110.163,0,0,1,52.508,5.383q-.3-6.6-.3-8.023a7.5,7.5,0,0,0-.3-1.93q-.3-1.117-.914-1.117-.406,0-2.031,2.031T46.922-1.016Q42.25,4.875,39,8.328t-5.891,3.453q-1.016,0-2.742-1.727T28.641,7.313q0-.812,5.484-9.344,7.516-12.187,12.086-20.211t4.57-11.477a1.821,1.821,0,0,0-.3-.914q-.3-.508-.508-.508-1.422,0-8.125,4.063-7.516,4.266-13.2,6.8a26.857,26.857,0,0,1-10.969,2.539,3.043,3.043,0,0,1-2.742-1.422,5.878,5.878,0,0,1-.914-3.25q0-2.234.813-2.945a16.56,16.56,0,0,1,3.453-1.93q4.469-1.828,16.352-9.547T49.359-51.594q1.219-1.219,3.25-8.125a23.7,23.7,0,0,1,2.234-6.7,8.4,8.4,0,0,0,1.016-2.641l-.406-.609-5.687,2.438q-9.953,4.063-15.437,6.094a26.911,26.911,0,0,1-8.734,2.031q-2.031,0-2.641-.812a5.4,5.4,0,0,1-.609-3.047q0-2.641,3.758-5.586a134.479,134.479,0,0,1,11.273-7.617q6.7-4.063,6.906-5.078a25.686,25.686,0,0,0-3.859-4.672,13.346,13.346,0,0,1-2.844-3.859,17.086,17.086,0,0,1-.812-6.3,9.364,9.364,0,0,1,.813-3.25,9.314,9.314,0,0,0,.813-2.844l-.2-.812q-.813,0-3.859.1A7.7,7.7,0,0,1,29.555-104a4.624,4.624,0,0,1-1.727-4.062q0-3.047,4.875-5.789a104.165,104.165,0,0,1,14.219-6.2,120.657,120.657,0,0,0,13.711-6.094Q65-128.578,65-131.219a34.954,34.954,0,0,0-.812-6.5A41.072,41.072,0,0,1,63.375-144.219Zm39.406,54.641q0-2.437,6.2-8.836a173.238,173.238,0,0,1,13.914-12.8q7.719-6.4,10.563-7.617a19.656,19.656,0,0,1,8.125-1.828q7.922,0,7.922,3.453a1.836,1.836,0,0,1-1.016,1.625q-1.016.609-5.383,2.742a39.676,39.676,0,0,0-8.023,5.18l-3.656,3.047a123.849,123.849,0,0,0-12.492,11.07q-4.773,4.977-4.773,9.445a54.045,54.045,0,0,0,.711,7.922q.711,4.672,2.133,5.078l6.094-4.469a281.235,281.235,0,0,1,23.867-16.25q10.258-6.094,18.992-6.094,6.094,0,6.094,4.266,0,2.234-2.945,4.469a71.224,71.224,0,0,1-8.023,5.078q-5.484,3.25-6.3,4.266l-.2,2.844q0,7.922.609,15.641.406,10.563.406,15.844v20.109q0,12.8-.2,19.094a112.608,112.608,0,0,1-2.336,16.453,99.1,99.1,0,0,1-5.789,19.4q-3.656,8.633-8.328,8.633-5.688,0-5.687-8.937,0-6.906,2.641-18.281,2.031-10.359,2.234-13.2.406-4.266,1.219-8.531a146.1,146.1,0,0,0,2.234-23.766l.609-9.953.609-7.109q.2-2.031.609-7.719t.406-10.156q0-4.063-.609-4.062-.813,0-13.609,8.43t-13.609,9.445a9.639,9.639,0,0,0-1.422,4.164q-.406,2.742-.609,4.57t-.2,2.438q-.609,8.125-2.234,12.289t-6.906,4.164q-3.25,0-4.57-4.164a27.738,27.738,0,0,1-1.32-8.43,74.75,74.75,0,0,1,.813-10.969q.812-5.484,1.828-10.461t1.422-7.008q.406-1.828,1.523-6.2a32.572,32.572,0,0,0,1.117-8.023,6.127,6.127,0,0,0-1.32-3.148A6.127,6.127,0,0,1,102.781-89.578ZM66.828-114.156a8.586,8.586,0,0,0-4.266,1.727q-2.641,1.727-6.5,4.773l-3.25,2.438q-4.266,2.641-4.266,6.3,0,1.828,2.844,4.672t4.672,2.844q1.219,0,6.3-9.75t5.281-11.984ZM218.563-95.672q-2.641,0-4.977-2.742a8.393,8.393,0,0,1-2.336-5.383q0-3.453,8.328-9.242A118.608,118.608,0,0,1,238.164-123.5q10.258-4.672,13.914-4.672,4.469,0,6.7,1.828t2.234,6.3a6.564,6.564,0,0,1-.3,2.234,5.525,5.525,0,0,1-1.32,1.828q-1.828,2.031-10.867,7.008t-18.281,9.141Q221-95.672,218.563-95.672ZM244.969,16.047q-6.3,0-18.789-3.25a96.68,96.68,0,0,1-22.141-8.531q-9.648-5.281-9.648-11.578a6.212,6.212,0,0,1,2.031-4.469,6.212,6.212,0,0,1,4.469-2.031,27.394,27.394,0,0,1,8.836,1.727q4.977,1.727,12.9,4.977,6.3,2.641,10.461,4.063a22.14,22.14,0,0,0,6.8,1.422,1.757,1.757,0,0,0,1.422-.812q1.016-1.625,1.016-38.8a20.386,20.386,0,0,0-.406-3.758q-.406-2.133-.609-2.945-5.891,0-8.734.2l-8.937.2q-22.141,0-22.141-6.5,0-3.25,5.891-4.773t18.078-3.352q13.2-1.422,15.031-3.25,1.219-1.422,1.219-4.875a13.437,13.437,0,0,0-1.016-5.992q-1.016-1.93-4.672-1.93l-7.719.2q-5.281.406-7.719.406-11.984,0-11.984-5.484,0-2.031,5.383-3.656t14.727-3.656q2.031-.406,4.977-1.117a22.586,22.586,0,0,0,3.758-1.117q2.438-1.219,3.656-5.484a14.149,14.149,0,0,1,2.031-3.859,4,4,0,0,1,3.25-1.219,3.385,3.385,0,0,1,2.336.813,10.22,10.22,0,0,1,1.93,2.641,8.2,8.2,0,0,0,2.844,3.656q1.625,1.016,7.922,1.422a33.648,33.648,0,0,1,9.344,1.32q3.25,1.117,3.25,4.977,0,4.266-2.945,5.688a26.393,26.393,0,0,1-8.227,2.031,26.834,26.834,0,0,0-6.4,1.523,3.341,3.341,0,0,0-2.133,3.352q0,5.281,1.117,7.313t5.789,2.031l8.125-.2q15.641,0,15.641,5.688a4.076,4.076,0,0,1-1.117,2.844,3.371,3.371,0,0,1-2.539,1.219,69.381,69.381,0,0,1-6.906,2.031q-8.734,2.641-13.3,4.469t-4.57,4.266a365.189,365.189,0,0,0,2.438,44.484,22.356,22.356,0,0,1,.2,3.453,13.879,13.879,0,0,1-3.961,10.258A13.879,13.879,0,0,1,244.969,16.047ZM414.781-97.3q.406-1.422,1.016-4.977a24.352,24.352,0,0,1,1.727-5.992q1.117-2.437,3.148-2.437a3.152,3.152,0,0,1,2.234.609,19.8,19.8,0,0,1,.508,3.859,10.6,10.6,0,0,0,.711,3.656l.2-.2q1.422-.406,4.063-1.117a17.713,17.713,0,0,1,4.469-.711q5.078,0,5.078,3.859a6.484,6.484,0,0,1-1.93,4.773,41.987,41.987,0,0,1-5.789,4.57,35.528,35.528,0,0,0-3.859,2.641,3.076,3.076,0,0,0-1.219,2.438,22.86,22.86,0,0,0,1.828,8.125,14.7,14.7,0,0,0,.609,2.133,13.14,13.14,0,0,1,.609,2.336,160.442,160.442,0,0,1,3.148,23.664q.711,12.086.711,28.742A41.329,41.329,0,0,1,428.7-5.078q-3.352,7.922-10.664,7.922-3.047,0-5.992-3.047T409.094-6.3a3.949,3.949,0,0,1,.813-2.031q.609-.2,4.875-1.016a5.641,5.641,0,0,0,2.539-.914,4.018,4.018,0,0,0,.508-2.539l-.2-7.312q0-30.469-1.219-31.484t-8.125-1.828a46.938,46.938,0,0,1-11.07-2.336q-3.961-1.523-3.961-5.383a2.147,2.147,0,0,1,1.016-2.133,6.476,6.476,0,0,1,2.844-.508q1.219,0,4.063.2t7.313.2q6.906,0,7.313-1.016a7.211,7.211,0,0,0,.406-2.641v-2.031q0-13.406-3.453-13.406A6.918,6.918,0,0,0,409.7-81.25a12.877,12.877,0,0,1-5.18,1.016q-3.758.2-6.4.2a42.347,42.347,0,0,1-8.836-.711q-3.148-.711-3.148-4.57a6.486,6.486,0,0,1,1.32-3.859A3.986,3.986,0,0,1,390.813-91a5.362,5.362,0,0,1,1.828.508,5.362,5.362,0,0,0,1.828.508q3.859,0,10.867-2.437T414.781-97.3ZM312.813-83.281q0-3.453,4.57-5.18a73,73,0,0,1,13.1-3.148q5.281-.812,8.227-1.523a7.41,7.41,0,0,0,3.961-1.93,21.517,21.517,0,0,0,1.828-4.875,27.921,27.921,0,0,1,1.625-5.18,2.6,2.6,0,0,1,2.438-1.727q2.641,0,2.641,3.656l-.2,3.859q0,1.625,1.117,2.031a10.407,10.407,0,0,0,3.352.406,10.017,10.017,0,0,1,4.164.711q1.523.711,1.523,3.148a3.951,3.951,0,0,1-1.523,3.25,20.491,20.491,0,0,1-4.164,2.438,13.015,13.015,0,0,0-2.539,1.422,2.179,2.179,0,0,0-1.117,1.625,35.545,35.545,0,0,0,.813,7.313q.812,3.859,1.016,4.875.609,2.234,1.422,6.7A4.33,4.33,0,0,0,357.3-65a33.085,33.085,0,0,0,3.656-.2,33.085,33.085,0,0,1,3.656-.2,9.184,9.184,0,0,1,4.977,1.117q1.727,1.117,1.727,3.961,0,4.672-2.945,5.992a23.432,23.432,0,0,1-8.43,1.523l-4.266.406-.2,6.7a212.308,212.308,0,0,1-2.234,30.977Q351.2-2.234,344.094-2.234q-3.453,0-4.469-7.312a107.659,107.659,0,0,1-1.016-14.828v-9.547q0-13.609-.812-14.422a7.608,7.608,0,0,0-2.234,2.539,13.467,13.467,0,0,1-1.422,2.133,26.651,26.651,0,0,1-3.047,4.164,4.339,4.339,0,0,1-3.25,1.523,4.474,4.474,0,0,1-3.25-1.422,4.474,4.474,0,0,1-1.422-3.25q0-4.875,3.555-11.781t9.445-16.25q.609-1.016,2.641-4.469t2.031-4.266a2.184,2.184,0,0,0-.406-1.219,1.367,1.367,0,0,0-1.219-.609,4.5,4.5,0,0,0-1.422.2,7.882,7.882,0,0,0-1.016.406q-6.3,1.828-17.469,1.828a10.314,10.314,0,0,1-4.773-.914Q312.813-80.641,312.813-83.281Z" transform="translate(989 270)" fill="#2f454f"/>
          <path id="Path_2336" data-name="Path 2336" d="M24.43,0A18.8,18.8,0,0,1,13.367-3.227Q8.758-6.453,8.758-12.676a10.349,10.349,0,0,1,2.881-7.26,9.218,9.218,0,0,1,7.029-3.111,20.058,20.058,0,0,1,5.3.691q.922.23,2.189.461a17.758,17.758,0,0,0,3.111.23q6.914,0,13.252-5.3T48.859-39.18a23.849,23.849,0,0,0-4.148-13.713A102.645,102.645,0,0,0,32.5-67.066,101.325,101.325,0,0,1,21.2-79.973a20.487,20.487,0,0,1-3.687-11.984,28.118,28.118,0,0,1,5.07-15.557,41.108,41.108,0,0,1,12.906-12.561,29.614,29.614,0,0,1,15.672-4.84,17.371,17.371,0,0,1,12.1,4.264q4.725,4.264,4.725,11.639a7.529,7.529,0,0,1-3,6.107,10.374,10.374,0,0,1-6.684,2.42,9.434,9.434,0,0,1-4.264-1.5,9.434,9.434,0,0,0-4.264-1.5q-3,0-7.029,4.264t-4.033,7.26a13.387,13.387,0,0,0,2.65,7.721,101.3,101.3,0,0,0,8.412,10.025A106.12,106.12,0,0,1,62.111-59a28.086,28.086,0,0,1,4.264,15.441q0,11.984-4.609,20.281Q56.7-14.75,45.287-7.375T24.43,0ZM159.254-15.441q0,8.988-10.141,12.1A74.3,74.3,0,0,1,127.219-.23a49.114,49.114,0,0,1-17.861-3.342A33.428,33.428,0,0,1,95.184-13.713a24.937,24.937,0,0,1-5.531-16.248q0-6.684,5.07-17.055a67.819,67.819,0,0,1,12.561-17.977q7.49-7.605,14.4-7.605,4.379,0,10.025,4.148t5.646,8.3q0,5.07-3.227,5.07a10.668,10.668,0,0,1-3.342-.807,10.9,10.9,0,0,0-3.572-.807q-3.227,0-7.029,5.3a54,54,0,0,0-6.453,12.215q-2.65,6.914-2.65,10.141,0,4.609,6.338,6.338a47.577,47.577,0,0,0,12.561,1.729,15.959,15.959,0,0,0,4.84-.807q2.535-.807,4.84-1.729,5.992-2.535,9.68-2.535a9.2,9.2,0,0,1,7.26,3A11.054,11.054,0,0,1,159.254-15.441ZM195.438,0a10.483,10.483,0,0,1-7.721-3.111,10.483,10.483,0,0,1-3.111-7.721q0-23.277-3.687-38.949a43.82,43.82,0,0,0-2.535-7.605q-.461-1.152-1.729-4.955a20.493,20.493,0,0,1-1.268-6.107,11.18,11.18,0,0,1,3.227-7.836,9.847,9.847,0,0,1,7.375-3.457,5.647,5.647,0,0,1,4.84,2.65,31.494,31.494,0,0,1,3.457,7.029A17.183,17.183,0,0,0,195.9-66.49q.922,1.5,1.844,1.5t5.3-3.227a102.422,102.422,0,0,1,8.873-5.877,14.943,14.943,0,0,1,7.49-2.189,12.63,12.63,0,0,1,7.26,1.959,6.866,6.866,0,0,1,2.881,6.107q0,5.07-2.535,7.375a28.657,28.657,0,0,1-8.066,4.609A29.391,29.391,0,0,0,208-49.436q-3.8,4.033-3.8,13.482a65.86,65.86,0,0,0,1.383,10.832q1.152,8.527,1.152,10.832a16.621,16.621,0,0,1-3.227,9.68Q200.277,0,195.438,0ZM304.68-.23a10.7,10.7,0,0,1-6.914-2.65,75,75,0,0,1-7.605-7.49q-.922-.922-2.766-2.881a6.791,6.791,0,0,0-3-2.189,49.365,49.365,0,0,0-5.762,5.762,40.43,40.43,0,0,1-6.684,6.568,12.161,12.161,0,0,1-7.375,2.189,20.914,20.914,0,0,1-11.293-3.687q-5.762-3.688-7.145-8.758a32.354,32.354,0,0,1-.691-7.836l.23-27.887q0-15.9,6.223-15.9,3.457,0,4.494,1.959a10.5,10.5,0,0,1,1.152,4.494q.115,2.535.115,3.688l2.535,27.2a46.961,46.961,0,0,0,.922,4.725A2.021,2.021,0,0,0,263.2-21.2q4.609,0,8.3-11.639a197.537,197.537,0,0,0,5.762-22.471q.23-1.152.691-4.148a13.923,13.923,0,0,1,1.613-4.955,8.054,8.054,0,0,1,3.457-3.111,6.606,6.606,0,0,1,3-.691,9.189,9.189,0,0,1,6.914,3.227,10.272,10.272,0,0,1,3,7.145,61.437,61.437,0,0,1-.23,6.223l-.23,6.223a30.431,30.431,0,0,0,1.152,8.988q1.152,3.687,7.605,14.289,4.148,6.684,5.992,10.025a12.117,12.117,0,0,1,1.844,5.416,5.675,5.675,0,0,1-2.3,4.609A7.933,7.933,0,0,1,304.68-.23Zm78.129,2.3q-7.605,0-7.605-12.906a185.84,185.84,0,0,1,1.383-18.9,185.84,185.84,0,0,0,1.383-18.9q0-1.844-.922-1.844-2.074,0-3.918,6.107T371.055-37.8a54.957,54.957,0,0,0-1.383,7.836,60.772,60.772,0,0,1-3.457,15.326q-2.3,5.646-7.836,5.646a5.3,5.3,0,0,1-4.84-2.65,11.51,11.51,0,0,1-1.613-6.107q0-5.531,2.3-16.594,2.3-10.6,2.3-16.363a14.412,14.412,0,0,0-.461-3.111q-.461-1.959-1.383-1.959-3,0-6.453,8.873a155.56,155.56,0,0,0-6.107,19.82q-2.65,10.947-3.342,15.557Q337.406-2.3,331.184-2.3q-3.688,0-4.955-3.8a25.715,25.715,0,0,1-1.268-8.182q0-8.3,2.074-31.8t3.688-26.965a6.733,6.733,0,0,1,1.729-2.65,4.672,4.672,0,0,1,2.65-.576,4.99,4.99,0,0,1,4.84,2.65,23.221,23.221,0,0,1,2.074,7.029q.691,4.379,1.844,4.379.691,0,2.3-1.844a13.78,13.78,0,0,1,4.033-3.111,14.882,14.882,0,0,1,6.8-1.268,11.592,11.592,0,0,1,5.992,1.268,18.237,18.237,0,0,1,3.8,3.111q1.729,1.844,2.42,1.844a32.394,32.394,0,0,0,4.148-3.918,27.138,27.138,0,0,1,4.264-3.918,8.388,8.388,0,0,1,4.955-1.383q7.605,0,9.68,7.029a62.367,62.367,0,0,1,2.074,17.4,229.657,229.657,0,0,1-2.42,31.92Q389.492,2.074,382.809,2.074Z" transform="translate(560 280)" fill="#2f454f"/>
          <g id="Group_47" data-name="Group 47" transform="translate(1438.278 219.078)">
            <path id="Path_8" data-name="Path 8" d="M410.137,60.333C421.261,55.4,424.349,67,431.945,72.23a49.381,49.381,0,0,1,5.541,3.8c6.582,6,.251,13.1-5.813,15.819a49.421,49.421,0,0,1-26.684,3.874,22.393,22.393,0,0,1-9.592-3.2c-3.173-2.136-5.923-6.244-4.888-10.216.977-3.746,4.732-5.241,6.971-8.05,3.735-4.685,5.745-10.311,11.341-13.28.452-.239.89-.452,1.316-.641" transform="translate(-379.093 -41.198)" fill="#2f454f"/>
            <path id="Path_9" data-name="Path 9" d="M393.622,58.382a6,6,0,0,1,5.7,2.725,8.415,8.415,0,0,1,1,6.413,14.288,14.288,0,0,1-3.057,5.859c-1.869,2.278-4.5,4.285-7.443,4.157-3.59-.155-6.429-3.683-6.6-7.273-.28-5.75,4.844-11.036,10.409-11.882" transform="translate(-383.202 -41.668)" fill="#2f454f"/>
            <path id="Path_10" data-name="Path 10" d="M405.6,48.1a5.55,5.55,0,0,1,3.884,4.362,7.77,7.77,0,0,1-1.441,5.827,13.217,13.217,0,0,1-4.7,3.9c-2.411,1.277-5.369,2.048-7.837.886-3.008-1.417-4.168-5.441-3.034-8.567,1.819-5,8.078-7.68,13.128-6.413" transform="translate(-378.074 -47.783)" fill="#2f454f"/>
            <path id="Path_11" data-name="Path 11" d="M423.163,53.776a5.551,5.551,0,0,1-.51,5.818,7.777,7.777,0,0,1-5.23,2.95,13.258,13.258,0,0,1-6.066-.744c-2.582-.88-5.171-2.5-6.018-5.1-1.033-3.16,1.1-6.766,4.152-8.082,4.888-2.109,11.131.61,13.672,5.154" transform="translate(-370.516 -47.718)" fill="#2f454f"/>
            <path id="Path_12" data-name="Path 12" d="M434.476,65.785a5.81,5.81,0,0,1-2.212,5.731A8.334,8.334,0,0,1,426.074,73a14.069,14.069,0,0,1-5.968-2.485c-2.378-1.626-4.549-4.005-4.658-6.865-.134-3.487,3.087-6.517,6.585-6.976,5.6-.733,11.17,3.8,12.442,9.112" transform="translate(-364.502 -42.672)" fill="#2f454f"/>
          </g>
        </g>
      </g>
    </g>
  </g>
</svg>
