<svg xmlns="http://www.w3.org/2000/svg" width="939.624" height="188.5" viewBox="0 0 939.624 188.5">
  <g id="title-2" transform="translate(-568.758 -119.688)">
    <g id="Group_48" data-name="Group 48">
      <path id="Path_2324" data-name="Path 2324" d="M63.375-144.219A6.962,6.962,0,0,1,64.9-148.18a4.221,4.221,0,0,1,3.352-2.133q3.656,0,4.875,2.539a24.552,24.552,0,0,1,1.828,7.211,24.328,24.328,0,0,0,.914,4.672,1.913,1.913,0,0,0,1.93,1.422,14.5,14.5,0,0,0,3.656-.711,14.705,14.705,0,0,1,3.859-.711,6.6,6.6,0,0,1,3.352,1.016,3.009,3.009,0,0,1,1.727,2.641,4.9,4.9,0,0,1-1.727,3.352,31.714,31.714,0,0,1-4.773,3.758,31.651,31.651,0,0,0-4.367,3.25A4,4,0,0,0,78-119.031q0,10.766-2.844,16.859l-1.828,3.656a10.967,10.967,0,0,0-1.422,4.469v.406a27.064,27.064,0,0,0,4.469.813A22.427,22.427,0,0,1,83.484-91.3q2.438,1.117,2.438,4.57a4.553,4.553,0,0,1-2.031,3.758,37.02,37.02,0,0,1-6.5,3.555,42.934,42.934,0,0,0-10.664,6.3q-3.758,3.25-3.758,9.547,0,1.828,1.625,1.828a2.139,2.139,0,0,0,1.828-.812q7.719-4.875,10.156-4.875a3.421,3.421,0,0,1,2.641,1.523,4.774,4.774,0,0,1,1.219,2.945A6.811,6.811,0,0,1,78.1-58.2a48.579,48.579,0,0,1-6.4,5.18,30.576,30.576,0,0,0-4.469,3.453l-.2.813a7.126,7.126,0,0,0,.813,2.031,7.211,7.211,0,0,1,.813,3.25,19.33,19.33,0,0,1-1.219,5.281,11.9,11.9,0,0,0-1.422,5.281,9.65,9.65,0,0,0,.813,3.758,4.438,4.438,0,0,0,2.234,2.539,39.526,39.526,0,0,1,9.953,1.117q4.266,1.117,4.266,4.977Q83.281-13,75.969-13q-1.625,0-3.859-.2a18.269,18.269,0,0,0-3.859,0q-.2,3.859-.2,11.375,0,.813.1,8.836A50.752,50.752,0,0,1,66.32,21.734q-1.93,6.7-5.789,6.7-4.672,0-6.2-8.227A110.163,110.163,0,0,1,52.508,5.383q-.3-6.6-.3-8.023a7.5,7.5,0,0,0-.3-1.93q-.3-1.117-.914-1.117-.406,0-2.031,2.031T46.922-1.016Q42.25,4.875,39,8.328t-5.891,3.453q-1.016,0-2.742-1.727T28.641,7.313q0-.812,5.484-9.344,7.516-12.187,12.086-20.211t4.57-11.477a1.821,1.821,0,0,0-.3-.914q-.3-.508-.508-.508-1.422,0-8.125,4.063-7.516,4.266-13.2,6.8a26.857,26.857,0,0,1-10.969,2.539,3.043,3.043,0,0,1-2.742-1.422,5.878,5.878,0,0,1-.914-3.25q0-2.234.813-2.945a16.56,16.56,0,0,1,3.453-1.93q4.469-1.828,16.352-9.547T49.359-51.594q1.219-1.219,3.25-8.125a23.7,23.7,0,0,1,2.234-6.7,8.4,8.4,0,0,0,1.016-2.641l-.406-.609-5.687,2.438q-9.953,4.063-15.437,6.094a26.911,26.911,0,0,1-8.734,2.031q-2.031,0-2.641-.812a5.4,5.4,0,0,1-.609-3.047q0-2.641,3.758-5.586a134.479,134.479,0,0,1,11.273-7.617q6.7-4.063,6.906-5.078a25.686,25.686,0,0,0-3.859-4.672,13.346,13.346,0,0,1-2.844-3.859,17.086,17.086,0,0,1-.812-6.3,9.364,9.364,0,0,1,.813-3.25,9.314,9.314,0,0,0,.813-2.844l-.2-.812q-.813,0-3.859.1A7.7,7.7,0,0,1,29.555-104a4.624,4.624,0,0,1-1.727-4.062q0-3.047,4.875-5.789a104.165,104.165,0,0,1,14.219-6.2,120.657,120.657,0,0,0,13.711-6.094Q65-128.578,65-131.219a34.954,34.954,0,0,0-.812-6.5A41.072,41.072,0,0,1,63.375-144.219Zm39.406,54.641q0-2.437,6.2-8.836a173.238,173.238,0,0,1,13.914-12.8q7.719-6.4,10.563-7.617a19.656,19.656,0,0,1,8.125-1.828q7.922,0,7.922,3.453a1.836,1.836,0,0,1-1.016,1.625q-1.016.609-5.383,2.742a39.676,39.676,0,0,0-8.023,5.18l-3.656,3.047a123.849,123.849,0,0,0-12.492,11.07q-4.773,4.977-4.773,9.445a54.045,54.045,0,0,0,.711,7.922q.711,4.672,2.133,5.078l6.094-4.469a281.235,281.235,0,0,1,23.867-16.25q10.258-6.094,18.992-6.094,6.094,0,6.094,4.266,0,2.234-2.945,4.469a71.224,71.224,0,0,1-8.023,5.078q-5.484,3.25-6.3,4.266l-.2,2.844q0,7.922.609,15.641.406,10.563.406,15.844v20.109q0,12.8-.2,19.094a112.608,112.608,0,0,1-2.336,16.453,99.1,99.1,0,0,1-5.789,19.4q-3.656,8.633-8.328,8.633-5.688,0-5.687-8.937,0-6.906,2.641-18.281,2.031-10.359,2.234-13.2.406-4.266,1.219-8.531a146.1,146.1,0,0,0,2.234-23.766l.609-9.953.609-7.109q.2-2.031.609-7.719t.406-10.156q0-4.063-.609-4.062-.813,0-13.609,8.43t-13.609,9.445a9.639,9.639,0,0,0-1.422,4.164q-.406,2.742-.609,4.57t-.2,2.438q-.609,8.125-2.234,12.289t-6.906,4.164q-3.25,0-4.57-4.164a27.738,27.738,0,0,1-1.32-8.43,74.75,74.75,0,0,1,.813-10.969q.812-5.484,1.828-10.461t1.422-7.008q.406-1.828,1.523-6.2a32.572,32.572,0,0,0,1.117-8.023,6.127,6.127,0,0,0-1.32-3.148A6.127,6.127,0,0,1,102.781-89.578ZM66.828-114.156a8.586,8.586,0,0,0-4.266,1.727q-2.641,1.727-6.5,4.773l-3.25,2.438q-4.266,2.641-4.266,6.3,0,1.828,2.844,4.672t4.672,2.844q1.219,0,6.3-9.75t5.281-11.984ZM218.563-95.672q-2.641,0-4.977-2.742a8.393,8.393,0,0,1-2.336-5.383q0-3.453,8.328-9.242A118.608,118.608,0,0,1,238.164-123.5q10.258-4.672,13.914-4.672,4.469,0,6.7,1.828t2.234,6.3a6.564,6.564,0,0,1-.3,2.234,5.525,5.525,0,0,1-1.32,1.828q-1.828,2.031-10.867,7.008t-18.281,9.141Q221-95.672,218.563-95.672ZM244.969,16.047q-6.3,0-18.789-3.25a96.68,96.68,0,0,1-22.141-8.531q-9.648-5.281-9.648-11.578a6.212,6.212,0,0,1,2.031-4.469,6.212,6.212,0,0,1,4.469-2.031,27.394,27.394,0,0,1,8.836,1.727q4.977,1.727,12.9,4.977,6.3,2.641,10.461,4.063a22.14,22.14,0,0,0,6.8,1.422,1.757,1.757,0,0,0,1.422-.812q1.016-1.625,1.016-38.8a20.386,20.386,0,0,0-.406-3.758q-.406-2.133-.609-2.945-5.891,0-8.734.2l-8.937.2q-22.141,0-22.141-6.5,0-3.25,5.891-4.773t18.078-3.352q13.2-1.422,15.031-3.25,1.219-1.422,1.219-4.875a13.437,13.437,0,0,0-1.016-5.992q-1.016-1.93-4.672-1.93l-7.719.2q-5.281.406-7.719.406-11.984,0-11.984-5.484,0-2.031,5.383-3.656t14.727-3.656q2.031-.406,4.977-1.117a22.586,22.586,0,0,0,3.758-1.117q2.438-1.219,3.656-5.484a14.149,14.149,0,0,1,2.031-3.859,4,4,0,0,1,3.25-1.219,3.385,3.385,0,0,1,2.336.813,10.22,10.22,0,0,1,1.93,2.641,8.2,8.2,0,0,0,2.844,3.656q1.625,1.016,7.922,1.422a33.648,33.648,0,0,1,9.344,1.32q3.25,1.117,3.25,4.977,0,4.266-2.945,5.688a26.393,26.393,0,0,1-8.227,2.031,26.834,26.834,0,0,0-6.4,1.523,3.341,3.341,0,0,0-2.133,3.352q0,5.281,1.117,7.313t5.789,2.031l8.125-.2q15.641,0,15.641,5.688a4.076,4.076,0,0,1-1.117,2.844,3.371,3.371,0,0,1-2.539,1.219,69.381,69.381,0,0,1-6.906,2.031q-8.734,2.641-13.3,4.469t-4.57,4.266a365.189,365.189,0,0,0,2.438,44.484,22.356,22.356,0,0,1,.2,3.453,13.879,13.879,0,0,1-3.961,10.258A13.879,13.879,0,0,1,244.969,16.047ZM414.781-97.3q.406-1.422,1.016-4.977a24.352,24.352,0,0,1,1.727-5.992q1.117-2.437,3.148-2.437a3.152,3.152,0,0,1,2.234.609,19.8,19.8,0,0,1,.508,3.859,10.6,10.6,0,0,0,.711,3.656l.2-.2q1.422-.406,4.063-1.117a17.713,17.713,0,0,1,4.469-.711q5.078,0,5.078,3.859a6.484,6.484,0,0,1-1.93,4.773,41.987,41.987,0,0,1-5.789,4.57,35.528,35.528,0,0,0-3.859,2.641,3.076,3.076,0,0,0-1.219,2.438,22.86,22.86,0,0,0,1.828,8.125,14.7,14.7,0,0,0,.609,2.133,13.14,13.14,0,0,1,.609,2.336,160.442,160.442,0,0,1,3.148,23.664q.711,12.086.711,28.742A41.329,41.329,0,0,1,428.7-5.078q-3.352,7.922-10.664,7.922-3.047,0-5.992-3.047T409.094-6.3a3.949,3.949,0,0,1,.813-2.031q.609-.2,4.875-1.016a5.641,5.641,0,0,0,2.539-.914,4.018,4.018,0,0,0,.508-2.539l-.2-7.312q0-30.469-1.219-31.484t-8.125-1.828a46.938,46.938,0,0,1-11.07-2.336q-3.961-1.523-3.961-5.383a2.147,2.147,0,0,1,1.016-2.133,6.476,6.476,0,0,1,2.844-.508q1.219,0,4.063.2t7.313.2q6.906,0,7.313-1.016a7.211,7.211,0,0,0,.406-2.641v-2.031q0-13.406-3.453-13.406A6.918,6.918,0,0,0,409.7-81.25a12.877,12.877,0,0,1-5.18,1.016q-3.758.2-6.4.2a42.347,42.347,0,0,1-8.836-.711q-3.148-.711-3.148-4.57a6.486,6.486,0,0,1,1.32-3.859A3.986,3.986,0,0,1,390.813-91a5.362,5.362,0,0,1,1.828.508,5.362,5.362,0,0,0,1.828.508q3.859,0,10.867-2.437T414.781-97.3ZM312.813-83.281q0-3.453,4.57-5.18a73,73,0,0,1,13.1-3.148q5.281-.812,8.227-1.523a7.41,7.41,0,0,0,3.961-1.93,21.517,21.517,0,0,0,1.828-4.875,27.921,27.921,0,0,1,1.625-5.18,2.6,2.6,0,0,1,2.438-1.727q2.641,0,2.641,3.656l-.2,3.859q0,1.625,1.117,2.031a10.407,10.407,0,0,0,3.352.406,10.017,10.017,0,0,1,4.164.711q1.523.711,1.523,3.148a3.951,3.951,0,0,1-1.523,3.25,20.491,20.491,0,0,1-4.164,2.438,13.015,13.015,0,0,0-2.539,1.422,2.179,2.179,0,0,0-1.117,1.625,35.545,35.545,0,0,0,.813,7.313q.812,3.859,1.016,4.875.609,2.234,1.422,6.7A4.33,4.33,0,0,0,357.3-65a33.085,33.085,0,0,0,3.656-.2,33.085,33.085,0,0,1,3.656-.2,9.184,9.184,0,0,1,4.977,1.117q1.727,1.117,1.727,3.961,0,4.672-2.945,5.992a23.432,23.432,0,0,1-8.43,1.523l-4.266.406-.2,6.7a212.308,212.308,0,0,1-2.234,30.977Q351.2-2.234,344.094-2.234q-3.453,0-4.469-7.312a107.659,107.659,0,0,1-1.016-14.828v-9.547q0-13.609-.812-14.422a7.608,7.608,0,0,0-2.234,2.539,13.467,13.467,0,0,1-1.422,2.133,26.651,26.651,0,0,1-3.047,4.164,4.339,4.339,0,0,1-3.25,1.523,4.474,4.474,0,0,1-3.25-1.422,4.474,4.474,0,0,1-1.422-3.25q0-4.875,3.555-11.781t9.445-16.25q.609-1.016,2.641-4.469t2.031-4.266a2.184,2.184,0,0,0-.406-1.219,1.367,1.367,0,0,0-1.219-.609,4.5,4.5,0,0,0-1.422.2,7.882,7.882,0,0,0-1.016.406q-6.3,1.828-17.469,1.828a10.314,10.314,0,0,1-4.773-.914Q312.813-80.641,312.813-83.281Z" transform="translate(989 270)" fill="#2f454f"/>
      <path id="Path_2325" data-name="Path 2325" d="M24.43,0A18.8,18.8,0,0,1,13.367-3.227Q8.758-6.453,8.758-12.676a10.349,10.349,0,0,1,2.881-7.26,9.218,9.218,0,0,1,7.029-3.111,20.058,20.058,0,0,1,5.3.691q.922.23,2.189.461a17.758,17.758,0,0,0,3.111.23q6.914,0,13.252-5.3T48.859-39.18a23.849,23.849,0,0,0-4.148-13.713A102.645,102.645,0,0,0,32.5-67.066,101.325,101.325,0,0,1,21.2-79.973a20.487,20.487,0,0,1-3.687-11.984,28.118,28.118,0,0,1,5.07-15.557,41.108,41.108,0,0,1,12.906-12.561,29.614,29.614,0,0,1,15.672-4.84,17.371,17.371,0,0,1,12.1,4.264q4.725,4.264,4.725,11.639a7.529,7.529,0,0,1-3,6.107,10.374,10.374,0,0,1-6.684,2.42,9.434,9.434,0,0,1-4.264-1.5,9.434,9.434,0,0,0-4.264-1.5q-3,0-7.029,4.264t-4.033,7.26a13.387,13.387,0,0,0,2.65,7.721,101.3,101.3,0,0,0,8.412,10.025A106.12,106.12,0,0,1,62.111-59a28.086,28.086,0,0,1,4.264,15.441q0,11.984-4.609,20.281Q56.7-14.75,45.287-7.375T24.43,0ZM159.254-15.441q0,8.988-10.141,12.1A74.3,74.3,0,0,1,127.219-.23a49.114,49.114,0,0,1-17.861-3.342A33.428,33.428,0,0,1,95.184-13.713a24.937,24.937,0,0,1-5.531-16.248q0-6.684,5.07-17.055a67.819,67.819,0,0,1,12.561-17.977q7.49-7.605,14.4-7.605,4.379,0,10.025,4.148t5.646,8.3q0,5.07-3.227,5.07a10.668,10.668,0,0,1-3.342-.807,10.9,10.9,0,0,0-3.572-.807q-3.227,0-7.029,5.3a54,54,0,0,0-6.453,12.215q-2.65,6.914-2.65,10.141,0,4.609,6.338,6.338a47.577,47.577,0,0,0,12.561,1.729,15.959,15.959,0,0,0,4.84-.807q2.535-.807,4.84-1.729,5.992-2.535,9.68-2.535a9.2,9.2,0,0,1,7.26,3A11.054,11.054,0,0,1,159.254-15.441ZM195.438,0a10.483,10.483,0,0,1-7.721-3.111,10.483,10.483,0,0,1-3.111-7.721q0-23.277-3.687-38.949a43.82,43.82,0,0,0-2.535-7.605q-.461-1.152-1.729-4.955a20.493,20.493,0,0,1-1.268-6.107,11.18,11.18,0,0,1,3.227-7.836,9.847,9.847,0,0,1,7.375-3.457,5.647,5.647,0,0,1,4.84,2.65,31.494,31.494,0,0,1,3.457,7.029A17.183,17.183,0,0,0,195.9-66.49q.922,1.5,1.844,1.5t5.3-3.227a102.422,102.422,0,0,1,8.873-5.877,14.943,14.943,0,0,1,7.49-2.189,12.63,12.63,0,0,1,7.26,1.959,6.866,6.866,0,0,1,2.881,6.107q0,5.07-2.535,7.375a28.657,28.657,0,0,1-8.066,4.609A29.391,29.391,0,0,0,208-49.436q-3.8,4.033-3.8,13.482a65.86,65.86,0,0,0,1.383,10.832q1.152,8.527,1.152,10.832a16.621,16.621,0,0,1-3.227,9.68Q200.277,0,195.438,0ZM304.68-.23a10.7,10.7,0,0,1-6.914-2.65,75,75,0,0,1-7.605-7.49q-.922-.922-2.766-2.881a6.791,6.791,0,0,0-3-2.189,49.365,49.365,0,0,0-5.762,5.762,40.43,40.43,0,0,1-6.684,6.568,12.161,12.161,0,0,1-7.375,2.189,20.914,20.914,0,0,1-11.293-3.687q-5.762-3.688-7.145-8.758a32.354,32.354,0,0,1-.691-7.836l.23-27.887q0-15.9,6.223-15.9,3.457,0,4.494,1.959a10.5,10.5,0,0,1,1.152,4.494q.115,2.535.115,3.688l2.535,27.2a46.961,46.961,0,0,0,.922,4.725A2.021,2.021,0,0,0,263.2-21.2q4.609,0,8.3-11.639a197.537,197.537,0,0,0,5.762-22.471q.23-1.152.691-4.148a13.923,13.923,0,0,1,1.613-4.955,8.054,8.054,0,0,1,3.457-3.111,6.606,6.606,0,0,1,3-.691,9.189,9.189,0,0,1,6.914,3.227,10.272,10.272,0,0,1,3,7.145,61.437,61.437,0,0,1-.23,6.223l-.23,6.223a30.431,30.431,0,0,0,1.152,8.988q1.152,3.687,7.605,14.289,4.148,6.684,5.992,10.025a12.117,12.117,0,0,1,1.844,5.416,5.675,5.675,0,0,1-2.3,4.609A7.933,7.933,0,0,1,304.68-.23Zm78.129,2.3q-7.605,0-7.605-12.906a185.84,185.84,0,0,1,1.383-18.9,185.84,185.84,0,0,0,1.383-18.9q0-1.844-.922-1.844-2.074,0-3.918,6.107T371.055-37.8a54.957,54.957,0,0,0-1.383,7.836,60.772,60.772,0,0,1-3.457,15.326q-2.3,5.646-7.836,5.646a5.3,5.3,0,0,1-4.84-2.65,11.51,11.51,0,0,1-1.613-6.107q0-5.531,2.3-16.594,2.3-10.6,2.3-16.363a14.412,14.412,0,0,0-.461-3.111q-.461-1.959-1.383-1.959-3,0-6.453,8.873a155.56,155.56,0,0,0-6.107,19.82q-2.65,10.947-3.342,15.557Q337.406-2.3,331.184-2.3q-3.688,0-4.955-3.8a25.715,25.715,0,0,1-1.268-8.182q0-8.3,2.074-31.8t3.688-26.965a6.733,6.733,0,0,1,1.729-2.65,4.672,4.672,0,0,1,2.65-.576,4.99,4.99,0,0,1,4.84,2.65,23.221,23.221,0,0,1,2.074,7.029q.691,4.379,1.844,4.379.691,0,2.3-1.844a13.78,13.78,0,0,1,4.033-3.111,14.882,14.882,0,0,1,6.8-1.268,11.592,11.592,0,0,1,5.992,1.268,18.237,18.237,0,0,1,3.8,3.111q1.729,1.844,2.42,1.844a32.394,32.394,0,0,0,4.148-3.918,27.138,27.138,0,0,1,4.264-3.918,8.388,8.388,0,0,1,4.955-1.383q7.605,0,9.68,7.029a62.367,62.367,0,0,1,2.074,17.4,229.657,229.657,0,0,1-2.42,31.92Q389.492,2.074,382.809,2.074Z" transform="translate(560 280)" fill="#2f454f"/>
      <g id="Group_47" data-name="Group 47" transform="translate(1438.278 219.078)">
        <path id="Path_8" data-name="Path 8" d="M410.137,60.333C421.261,55.4,424.349,67,431.945,72.23a49.381,49.381,0,0,1,5.541,3.8c6.582,6,.251,13.1-5.813,15.819a49.421,49.421,0,0,1-26.684,3.874,22.393,22.393,0,0,1-9.592-3.2c-3.173-2.136-5.923-6.244-4.888-10.216.977-3.746,4.732-5.241,6.971-8.05,3.735-4.685,5.745-10.311,11.341-13.28.452-.239.89-.452,1.316-.641" transform="translate(-379.093 -41.198)" fill="#2f454f"/>
        <path id="Path_9" data-name="Path 9" d="M393.622,58.382a6,6,0,0,1,5.7,2.725,8.415,8.415,0,0,1,1,6.413,14.288,14.288,0,0,1-3.057,5.859c-1.869,2.278-4.5,4.285-7.443,4.157-3.59-.155-6.429-3.683-6.6-7.273-.28-5.75,4.844-11.036,10.409-11.882" transform="translate(-383.202 -41.668)" fill="#2f454f"/>
        <path id="Path_10" data-name="Path 10" d="M405.6,48.1a5.55,5.55,0,0,1,3.884,4.362,7.77,7.77,0,0,1-1.441,5.827,13.217,13.217,0,0,1-4.7,3.9c-2.411,1.277-5.369,2.048-7.837.886-3.008-1.417-4.168-5.441-3.034-8.567,1.819-5,8.078-7.68,13.128-6.413" transform="translate(-378.074 -47.783)" fill="#2f454f"/>
        <path id="Path_11" data-name="Path 11" d="M423.163,53.776a5.551,5.551,0,0,1-.51,5.818,7.777,7.777,0,0,1-5.23,2.95,13.258,13.258,0,0,1-6.066-.744c-2.582-.88-5.171-2.5-6.018-5.1-1.033-3.16,1.1-6.766,4.152-8.082,4.888-2.109,11.131.61,13.672,5.154" transform="translate(-370.516 -47.718)" fill="#2f454f"/>
        <path id="Path_12" data-name="Path 12" d="M434.476,65.785a5.81,5.81,0,0,1-2.212,5.731A8.334,8.334,0,0,1,426.074,73a14.069,14.069,0,0,1-5.968-2.485c-2.378-1.626-4.549-4.005-4.658-6.865-.134-3.487,3.087-6.517,6.585-6.976,5.6-.733,11.17,3.8,12.442,9.112" transform="translate(-364.502 -42.672)" fill="#2f454f"/>
      </g>
    </g>
  </g>
</svg>
