<svg xmlns="http://www.w3.org/2000/svg" xmlns:xlink="http://www.w3.org/1999/xlink" width="154.563" height="52.467" viewBox="0 0 154.563 52.467">
  <defs>
    <clipPath id="clip-path">
      <rect id="Rectangle_123" data-name="Rectangle 123" width="44.522" height="52.467" fill="#de6e46"/>
    </clipPath>
  </defs>
  <g id="wrong" transform="translate(-1197 -822)">
    <path id="Path_2206" data-name="Path 2206" d="M12.109,3.672q-1.484,0-1.484-1.836A8.778,8.778,0,0,1,10.742.391a77.081,77.081,0,0,0,.625-11.016q0-3.125-1.367-3.125-.586,0-1.289,1.035A34.019,34.019,0,0,0,6.953-9.687Q5.742-7.461,5-6.387T3.594-5.312a.968.968,0,0,1-.762-.332,1.223,1.223,0,0,1-.293-.84,7.97,7.97,0,0,1,1.484-4.16q1.484-2.324,4.023-5.527Q9.258-17.7,9.785-18.418a2.735,2.735,0,0,0,.566-1.074l-.039-.078a1.088,1.088,0,0,0-.469-.078,3.92,3.92,0,0,0-.723.078q-.41.078-.566.117a5.428,5.428,0,0,1-1.289.234.649.649,0,0,1-.527-.273.931.931,0,0,1-.215-.586q0-.781,1.66-1.7a20.68,20.68,0,0,1,3.75-1.582,11.6,11.6,0,0,1,2.91-.664,4.89,4.89,0,0,1,1.348.2q.684.2.684.7a1.492,1.492,0,0,1-.82,1.172,10.416,10.416,0,0,1-1.523.859q-.7.313-.859.391a2.007,2.007,0,0,0-.9.684,5.9,5.9,0,0,0-.547,1.113q-.312.7-.43.938a2.533,2.533,0,0,0-.391,1.133q0,.078.156.137a.641.641,0,0,1,.2.1,9.535,9.535,0,0,0,2.188.547l.977.2,1.094.2q.352.039,1.055.2l1.484.352q.2.039,1.367.313a10.12,10.12,0,0,0,2.3.273,3.943,3.943,0,0,1,1.465.371,5.565,5.565,0,0,1,1.523.938,1.6,1.6,0,0,1,.645,1.191,1.161,1.161,0,0,1-.547,1.074,2.513,2.513,0,0,1-1.328.332,16.064,16.064,0,0,1-3.4-.527,30.475,30.475,0,0,1-3.672-1.074q-.2-.078-1.27-.469a5.282,5.282,0,0,0-1.621-.391l-.156.039-.039.2a8.814,8.814,0,0,0,.117,1.367q.117.742.156.977.234,1.211.273,1.68.156,1.719.156,2.617a31.9,31.9,0,0,1-.391,4.141,5.934,5.934,0,0,0-.078.977,20.788,20.788,0,0,1-.547,3.477Q13.164,3.672,12.109,3.672ZM43.594-3.789a1.125,1.125,0,0,1-.391.781,14.086,14.086,0,0,1-3.086,1.27Q37.344-.781,34.453.078a20.8,20.8,0,0,1-3.437.859q-.977,0-.977-.664a1.454,1.454,0,0,1,.586-1.25,7.244,7.244,0,0,1,1.8-.859,7.74,7.74,0,0,0,2.031-1,1.851,1.851,0,0,0,.7-1.582.99.99,0,0,0-.215-.742,1.3,1.3,0,0,0-.84-.2,3.4,3.4,0,0,1-1.367-.215q-.469-.215-.469-1a.808.808,0,0,1,.273-.7,3.349,3.349,0,0,1,.9-.391,3.337,3.337,0,0,0,1.309-.7A2.067,2.067,0,0,0,35.2-9.883q0-.664-.508-.664h-.762a1.127,1.127,0,0,1-.918-.332,1.541,1.541,0,0,1-.273-1,1.093,1.093,0,0,1,.332-.918,2.623,2.623,0,0,1,.918-.41,2.046,2.046,0,0,0,.684-.273.585.585,0,0,0,.215-.508,1.592,1.592,0,0,0-.781-1.406,3.089,3.089,0,0,0-1.719-.508,4.513,4.513,0,0,0-.742.059,4.513,4.513,0,0,1-.742.059q-1.406,0-1.406-.586a1.5,1.5,0,0,1,.605-1.367,4.639,4.639,0,0,1,1.66-.586,5.308,5.308,0,0,0,1.074-.312.526.526,0,0,0,.332-.508,2.254,2.254,0,0,0-.2-.859q-.039-.117-.117-.371a1.552,1.552,0,0,1-.078-.449,3.38,3.38,0,0,1,.273-1.465,1.057,1.057,0,0,1,1.055-.566.867.867,0,0,1,.84.527,4.71,4.71,0,0,1,.371,1.387q.039.156.078.352a1.394,1.394,0,0,0,.117.352q.078.156.156.156a.679.679,0,0,0,.117-.469q0-.586-.039-1.035t-.078-.762a14.591,14.591,0,0,1-.156-1.758.963.963,0,0,1,.293-.605.8.8,0,0,1,.566-.332q.508,0,.957.957a11.32,11.32,0,0,1,.742,2.188,8.778,8.778,0,0,1,.293,1.777v.156l.117.117a3.459,3.459,0,0,0,.156-1.484L38.594-22.7a3.018,3.018,0,0,1,.273-1.387,1.075,1.075,0,0,1,1.055-.527.933.933,0,0,1,.625.234.74.74,0,0,1,.273.586,7.538,7.538,0,0,1-.312,1.719,5.173,5.173,0,0,0-.352,1.719l.039.078q1.758-2.773,2.109-2.773a.73.73,0,0,1,.508.176.577.577,0,0,1,.2.449q0,.781-1.406,2.266a6.428,6.428,0,0,0-.625.859l.2.2a1.894,1.894,0,0,0,.41-.137.925.925,0,0,1,.371-.1,1.847,1.847,0,0,1,.938.273.8.8,0,0,1,.469.7,1.009,1.009,0,0,1-.449.938,3.337,3.337,0,0,1-1.23.391q-.352.078-.664.176a.726.726,0,0,0-.43.293,8.3,8.3,0,0,0-.469,1.23,5.76,5.76,0,0,0-.312,1.191.394.394,0,0,0,.176.352,2.3,2.3,0,0,0,.527.234,2.291,2.291,0,0,1,.625.313.564.564,0,0,1,.2.469,1.181,1.181,0,0,1-.625,1.191,5.729,5.729,0,0,1-1.8.41,7.113,7.113,0,0,0-1.289.254.546.546,0,0,0-.391.566,1.879,1.879,0,0,0,.117.781q.234-.039.9-.2.156-.039.527-.117a3.19,3.19,0,0,1,.645-.078q1.094,0,1.094,1.406a1.1,1.1,0,0,1-.273.84,3.313,3.313,0,0,1-.9.527,4,4,0,0,0-1.387,1,3.5,3.5,0,0,0-.605,2.09l.156.117q.039,0,.508-.117a16.883,16.883,0,0,1,4.336-.742,1.345,1.345,0,0,1,.859.313A.927.927,0,0,1,43.594-3.789Zm6.445,7.578a2.829,2.829,0,0,1-1.309-.332,1.039,1.039,0,0,1-.645-.957,4.77,4.77,0,0,1,.859-1.172A7.683,7.683,0,0,0,50.313-.547a13.2,13.2,0,0,0,.7-4.609A5.7,5.7,0,0,0,50.84-6.68a2.1,2.1,0,0,0-.684-1.055q-.273-.2-1.5-1.133a15.305,15.305,0,0,1-2.109-1.914,2.761,2.761,0,0,1-.879-1.68,1.059,1.059,0,0,1,.156-.566.514.514,0,0,1,.469-.254,1.926,1.926,0,0,1,1.016.391,19.05,19.05,0,0,1,1.523,1.172,5.3,5.3,0,0,0,1.8,1.133H50.7l.078-.2a8.254,8.254,0,0,0-.078-.9,8.254,8.254,0,0,1-.078-.9,5.291,5.291,0,0,1,.039-.547,7.53,7.53,0,0,0,.039-.82q0-1.563-.7-1.562a18.877,18.877,0,0,0-2.07.137,10.522,10.522,0,0,0-1.836.332,1.379,1.379,0,0,1-.547.117,1.437,1.437,0,0,1-.957-.391,1.165,1.165,0,0,1-.449-.9,1.113,1.113,0,0,1,.2-.664,9.125,9.125,0,0,1,2.813-.7q1.055-.2,2.031-.43a4.286,4.286,0,0,0,1.25-.43A3.226,3.226,0,0,0,50.82-20a7.951,7.951,0,0,1,.352-1.855.886.886,0,0,1,.9-.645.771.771,0,0,1,.762.566,11.983,11.983,0,0,1,.449,1.7,6.308,6.308,0,0,0,.234,1.094.842.842,0,0,0,.352.41,2.791,2.791,0,0,0,.449.215q.215.078.293.117a2.188,2.188,0,0,1,.82.391,1.036,1.036,0,0,1,.273.82,1.035,1.035,0,0,1-.254.762,2.779,2.779,0,0,1-.723.488,3.107,3.107,0,0,0-.508.332.468.468,0,0,0-.156.371l.039,1.367q.039.469.039,1.367L54.1-10.273q-.078,1.484-.078,2.227l.039,2.891a21.06,21.06,0,0,1-.527,5.02,6.147,6.147,0,0,1-2.129,3.418A2.121,2.121,0,0,1,50.039,3.789ZM36.992-14.336q.742-.664,1.23-1.172a1.4,1.4,0,0,0,.488-.82.18.18,0,0,0-.117-.2.866.866,0,0,0-.273-.039,6.245,6.245,0,0,0-1.113.156q-.762.156-.762.352a.45.45,0,0,0,.156.313,1.748,1.748,0,0,1,.273.723Q36.953-14.57,36.992-14.336Zm31.68-8.555a1.812,1.812,0,0,1,.84-1.426,6.248,6.248,0,0,1,1.973-1,6.67,6.67,0,0,1,1.914-.352,3.366,3.366,0,0,1,1.895.527,1.731,1.731,0,0,1,.8,1.543,2.948,2.948,0,0,1-1.035,2.266,13.689,13.689,0,0,1-2.6,1.8q-.117.078-.488.293t-.41.332a7.9,7.9,0,0,0-.215,1.25,13.407,13.407,0,0,0-.1,1.484q0,.352.2.352a8.886,8.886,0,0,0,1.836-.664A10.883,10.883,0,0,1,76.8-17.656l.039.039-.078.039a1.04,1.04,0,0,1,.469-.117,1.618,1.618,0,0,1,.918.273.849.849,0,0,1,.41.742,1.1,1.1,0,0,1-.273.664,2.261,2.261,0,0,1-.859.664,2.26,2.26,0,0,0-.625.41,4,4,0,0,0-.664,1q-.039.078-.234.43a1.855,1.855,0,0,0-.234.664l.039.039a4.626,4.626,0,0,1,.879-.742,1.773,1.773,0,0,1,.957-.352,1.923,1.923,0,0,1,.859.313,5.132,5.132,0,0,1,1.777,1.68,4.141,4.141,0,0,1,.645,2.266,1.654,1.654,0,0,1-.1.625.431.431,0,0,1-.449.234q-.2,0-.527-.391a9.235,9.235,0,0,1-.645-.859,14.279,14.279,0,0,0-.977-1.25,1.068,1.068,0,0,0-.742-.43,1.006,1.006,0,0,0-.488.254q-.332.254-.723.605Q75.117-10,74.434-9.551a2.4,2.4,0,0,1-1.309.449.9.9,0,0,1-.723-.293,1.121,1.121,0,0,1-.254-.762,2.741,2.741,0,0,1,.352-1.367,15.037,15.037,0,0,1,1.055-1.562,2.8,2.8,0,0,0,.7-1.133l-.117-.117a11.113,11.113,0,0,0-2.5.7,2.767,2.767,0,0,0-1.328,1.66,6.363,6.363,0,0,0-.547,2.324,1.156,1.156,0,0,1-.215.762.742.742,0,0,0-.215.449,5.367,5.367,0,0,1-.352,1.68Q68.633-5.742,67.93-4.18q-.664,1.6-.957,2.383A3.91,3.91,0,0,0,66.68-.469a.4.4,0,0,1-.293.391,1.72,1.72,0,0,1-.645.117,1.034,1.034,0,0,1-.918-.371,1.983,1.983,0,0,1-.254-1.113,14.7,14.7,0,0,1,.391-3.379q.391-1.66,1.211-4.2l.234-.742q1.172-3.711,3.2-11.289a2.137,2.137,0,0,0,.078-.469.528.528,0,0,0-.312-.508,2.285,2.285,0,0,1-.508-.332A.674.674,0,0,1,68.672-22.891Zm4.727.2a4.09,4.09,0,0,0-.332-.273.81.81,0,0,0-.488-.2q-.234,0-.586.391a1.861,1.861,0,0,0-.43.664.584.584,0,0,0,.2.332.477.477,0,0,0,.313.137.778.778,0,0,0,.508-.2,3.978,3.978,0,0,0,.469-.469Q73.281-22.578,73.4-22.7Zm-13.2,8.2a19,19,0,0,1,.273-3.2q.273-1.6,1.133-1.6.391,0,.391.586a1.068,1.068,0,0,1-.039.234,1.854,1.854,0,0,0-.039.43q0,.313.156.313a5.668,5.668,0,0,0,.742-.469,2.7,2.7,0,0,1,1.563-.43,1.546,1.546,0,0,1,1.445.84,3.82,3.82,0,0,1,.469,1.895,3.559,3.559,0,0,1-1.016,2.832A6.175,6.175,0,0,1,63.3-11.855a4.1,4.1,0,0,0-1,.41q-.039.078-.2.313a1.561,1.561,0,0,1-.332.371.649.649,0,0,1-.41.137Q60.2-10.625,60.2-14.492Zm2.344,1.016q.7,0,1.172-.937a3.889,3.889,0,0,0,.469-1.719.974.974,0,0,0-.078-.43q-.078-.156-.352-.156a1.061,1.061,0,0,0-.918.352,2.431,2.431,0,0,0-.371.977,1.822,1.822,0,0,0-.1.332,1.084,1.084,0,0,1-.176.41.949.949,0,0,0-.234.469.779.779,0,0,0,.176.469A.507.507,0,0,0,62.539-13.477ZM71.172-5.2a.857.857,0,0,1,.605-.781,7.462,7.462,0,0,1,1.66-.469L74-6.582a2.245,2.245,0,0,0,.605-.215.952.952,0,0,0,.41-.449,3.927,3.927,0,0,0,.176-.762,2.51,2.51,0,0,1,.352-1q.234-.332,1.016-.332a1.26,1.26,0,0,1,.605.137.471.471,0,0,1,.254.449,1.237,1.237,0,0,1-.059.352,1.353,1.353,0,0,0-.059.391.7.7,0,0,0,.176.449.519.519,0,0,0,.41.215,1.061,1.061,0,0,0,.332-.078,1.061,1.061,0,0,1,.332-.078q.313,0,.547.41a1.553,1.553,0,0,1,.234.762.826.826,0,0,1-.449.684,6.521,6.521,0,0,1-.937.508q-.488.215-.684.293a2.808,2.808,0,0,0-.977,1,2.534,2.534,0,0,0-.547,1.27.693.693,0,0,0,.313.078Q88.4-2.5,89.063-1.367a1.319,1.319,0,0,1,.156.664,1.057,1.057,0,0,1-.273.781,1.057,1.057,0,0,1-.781.273,12.744,12.744,0,0,1-2.07-.234L84.883-.039a57.969,57.969,0,0,0-6.406-.352q-1.211,0-2.109.039t-1.523.078q-2.422.156-3.633.156a3.737,3.737,0,0,1-1.562-.273,1.12,1.12,0,0,1-.586-1.133q0-.625,1.387-.8A22.188,22.188,0,0,1,73.242-2.5a3.888,3.888,0,0,0,.469-.7,2,2,0,0,0,.313-.742v-.039a1.854,1.854,0,0,0-.43-.039,3.385,3.385,0,0,0-.625.059,3.385,3.385,0,0,1-.625.059,1.063,1.063,0,0,1-.859-.371A1.376,1.376,0,0,1,71.172-5.2Zm24.883-9.57q0-.547.078-1.719l.039-1.68v-2.344l-.039-1.523a7.065,7.065,0,0,1,.527-2.988,2.153,2.153,0,0,1,2.168-1.113,2.372,2.372,0,0,1,2.148.9,4.637,4.637,0,0,1,.586,2.539,8.855,8.855,0,0,1-.312,2.617l-.234.742q-2.07,6.992-2.578,7.383a.986.986,0,0,1-.664.234,1.327,1.327,0,0,1-1.426-.84A6.853,6.853,0,0,1,96.055-14.766ZM95.2-3.945a7.778,7.778,0,0,1,.313-2.441A1.415,1.415,0,0,1,97.031-7.3a1.4,1.4,0,0,1,1.309.7,3.277,3.277,0,0,1,.41,1.68,5.161,5.161,0,0,1-.488,2.266A1.643,1.643,0,0,1,96.68-1.641a1.181,1.181,0,0,1-1.191-.625A4.009,4.009,0,0,1,95.2-3.945Z" transform="translate(1250 854)" fill="#de6e46"/>
    <g id="Group_166" data-name="Group 166" transform="translate(1197 822)">
      <g id="Group_165" data-name="Group 165" transform="translate(0 0)" clip-path="url(#clip-path)">
        <path id="Path_1480" data-name="Path 1480" d="M.618,2.531c.4-.136.836.159,1.262.478s.847.671,1.262.626c.87-.569.353-1.5.938-1.621.438-.364-.916-.586-.478-.955C4.116.682,3.934.364,4.246,0c.37.171.751.478,1.12.66A.873.873,0,0,0,6.447.6a4.6,4.6,0,0,0,2.5,1.28,23.482,23.482,0,0,0,2.315,2.65A19.76,19.76,0,0,1,13.6,7.285a5.679,5.679,0,0,0,1.621.99c1.814,2.519,4.5,4.987,6.4,8.2a5.429,5.429,0,0,0,1.513,1.541c.984,2.559,3.571,4.4,3.969,6.836,1.717,1.376,3.378,3.2,5.158,4.112a29.4,29.4,0,0,0,5.806,6.858c.517,1.314,1.513,2.667,1.353,3.924a11.234,11.234,0,0,1,1.035,1.928,10.647,10.647,0,0,0,2.371,4.862c-.08.8.842,1.672.682,2.462a13.956,13.956,0,0,1,1.007,2.2,1.689,1.689,0,0,1-2.144-1.029c-.574.279.034.665-.54.944.131-.6-.677-1.285-.756-1.905a24.211,24.211,0,0,1-4.123-4.447,30.345,30.345,0,0,1-5.545-5.556c-2.32-1.894-4.555-4.424-6.881-6.238A19.831,19.831,0,0,0,20.2,27.934c-.972-2.053-2.843-3.611-3.952-5.846a32.7,32.7,0,0,1-3.64-4.237,25.694,25.694,0,0,0-3.662-4.112A21.671,21.671,0,0,0,5.776,9.958,33.773,33.773,0,0,1,2.432,6.3,11.132,11.132,0,0,0,.163,5.329c-.591-.364.648-1,.245-1.388a9.725,9.725,0,0,1,.21-1.41" transform="translate(0.002 0.002)" fill="#de6e46" fill-rule="evenodd"/>
        <path id="Path_1481" data-name="Path 1481" d="M32.43,0c.478.694-.688,1.882-.341,2.622.808.66,1.518-.045,1.808.461.472.313.279-.972.756-.66.506.387.751.148,1.183.353-.1.739-.677,1.632.125,2.11a3.672,3.672,0,0,0-.33,2.519,17.109,17.109,0,0,0-1.57,2.775,18.415,18.415,0,0,1-1.6,2.895,4.97,4.97,0,0,0-.262,1.752c-1.553,2.411-2.8,5.681-5.061,8.405a4.884,4.884,0,0,0-.893,1.843,8.313,8.313,0,0,0-1.319,1.433c-.392.517-.756,1.063-1.115,1.592a12.83,12.83,0,0,1-1.137,1.49,4.7,4.7,0,0,1-1.4,1.069c-.364.978-.819,1.979-1.251,2.957a12.54,12.54,0,0,0-.955,2.9,25.993,25.993,0,0,0-2.758,3.532A24.357,24.357,0,0,0,14.3,43.585c-1.115.768-2.138,2-3.367,2.1a9.747,9.747,0,0,1-1.57,1.353,8.169,8.169,0,0,0-2.076,1.189A16,16,0,0,0,5.3,50.159c-.762.063-1.4,1.063-2.189,1.035-.893.54-.972.881-1.882,1.268a1.556,1.556,0,0,1,.529-2.184c-.392-.506-.62.125-1.007-.381.591.04,1.063-.813,1.632-.978a23.276,23.276,0,0,1,3.19-4.612,14.648,14.648,0,0,1,.751-1.626c.267-.529.557-1.041.87-1.547.62-1.007,1.325-1.985,2.07-3.06.273-.637.586-1.274.91-1.911s.665-1.291,1-1.939.665-1.291.972-1.934.574-1.3.808-1.934a15.628,15.628,0,0,0,3.185-5.192,12.755,12.755,0,0,0,1.939-2.491,15.559,15.559,0,0,1,1.99-2.656,20.661,20.661,0,0,1,1.115-2.252c.427-.745.9-1.49,1.359-2.235a21.026,21.026,0,0,0,2.28-4.549A14.39,14.39,0,0,0,26.038,9.06c.364-.694.694-1.427,1.035-2.161a24.021,24.021,0,0,1,2.28-4.2A13.592,13.592,0,0,0,29.615.263C29.8-.4,30.747.621,31.02.137A9.409,9.409,0,0,1,32.43,0" transform="translate(3.51 0.006)" fill="#de6e46" fill-rule="evenodd"/>
      </g>
    </g>
  </g>
</svg>
